**ABCDEFGHIJKLMNOPQRSTUVWXYZabcdefghijklmnopqrstuvwxyz**************************
**PARASOLID !"#$%&'()*+,-./:;<=>?@[\]^_`{|}~0123456789**************************
**PART1;
MC=unknown;
MC_MODEL=unknown;
MC_ID=unknown;
OS=unknown;
OS_RELEASE=unknown;
FRU=Parasolid 36.0.180;
APPL=Onshape;
SITE=unknown;
USER=unknown;
FORMAT=text;
GUISE=transmit;
KEY=BTGapi::writeModels_.xmt;
FILE=BTGapi::writeModels_.xmt;
DATE=2024-06-30T06:56:52 (UTC);
**PART2;
SCH=SCH_3600180_36001;
USFLD_SIZE=0;
**PART3;
**END_OF_HEADER*****************************************************************
T51 : TRANSMIT FILE created by modeller version 360018023 SCH_3600180_36001_1300
6231 0 12 36 CCCI7 lattice222 0 CCCI4 mesh1006 0 I8 polyline1008 0 CCCCCCCDI5 ow
ner1040 0 CCCI16 boundary_lattice222 0 CCCI13 boundary_mesh1006 0 I17 boundary_p
olyline1008 0 CCCA16 index_map_offset0 0 1 dA9 index_map82 0 A17 node_id_index_m
ap82 0 A20 schema_embedding_map82 0 A5 child12 0 A14 lowest_node_id0 0 1 dA16 me
sh_offset_data206 0 Z1 4221 2 3 0 0 0 0 0 0 0 1e3 1e-8 0 4 5 1 0 1 2 6 0 7 8 9 0
 0 10 11 12 0 0 0 0 0 0 0 81 255 1 2 4221 13 1 14 0 0 0 15 70 11 CI9 list_type0
 0 1 uI10 notransmit0 0 1 lCCCDCCDI12 finger_index0 0 1 dI12 finger_block1012 0
 CZ3 0 4 T1 0 0 4 20 1 16 16 13 255 6 169 0 1 0 17 0 0 18 0 51 255 7 1036 0 19 2
0 0 0 -.94488 .0930876351349595 -.0537441712033946 -1 0 0 .0127 0 .5 .8660254037
84438 38 12 CCCCCCCCCCCA17 intersection_data204 0 Z8 3709 0 11 21 0 0 +22 23 24
 25 26 27 29 255 9 3701 0 12 28 0 .2286 .1577391241438615 -.381 19 9 CCCCCCI5 fr
ame230 0 CA5 owner12 0 Z10 68 0 1 18 0 29 0 V0 16 255 11 3707 0 ?30 0 31 8 0 0 1
 18 255 12 3697 0 32 0 33 9 ?1 17 255 32 0 34 30 35 12 36 37 0 38 -18 33 3280 0
 39 12 40 28 ?1 17 39 0 41 42 38 33 43 44 0 45 +18 40 2663 0 46 33 47 48 ?1 29 2
8 3282 0 33 48 9 .2286 .2032 -.254 29 48 2665 0 40 49 28 .4064 -.1524 -.381 29 4
9 2662 0 47 50 48 .4064 -.1524 -.254 18 47 2658 0 51 40 52 49 ?1 29 50 2657 0 52
 53 49 .2286 -.1524 -.254 18 52 2653 0 54 47 55 50 ?1 29 53 2147 0 55 56 50 .139
7 -.1524 -.254 18 55 2145 0 57 52 58 53 ?1 29 56 2144 0 58 59 53 .1397 -.254 -.2
54 18 58 2140 0 60 55 61 56 ?1 29 59 2139 0 61 62 56 .4953 -.254 -.254 18 61 213
5 0 63 58 64 59 ?1 29 62 1341 0 64 65 59 .9398 -.05842 -.06858 18 64 1339 0 66 6
1 67 62 ?1 29 65 145 0 68 69 62 0 .254 .254 18 68 124 0 70 71 72 65 ?1 29 69 146
 0 72 73 65 0 .254 -.254 18 72 128 0 74 68 75 69 ?1 29 73 147 0 75 76 69 0 -.254
 -.254 18 75 132 0 77 72 78 73 ?1 29 76 148 0 78 79 73 0 -.254 .254 18 78 136 0
 80 75 81 76 ?1 29 79 59 0 67 82 76 .635 .254 -.254 18 67 57 0 83 64 84 79 ?1 29
 82 49 0 84 85 79 .635 -.254 -.254 18 84 47 0 86 67 71 82 ?1 29 85 44 0 71 87 82
 .635 -.254 .254 18 71 42 0 88 84 68 85 ?1 29 87 358 0 81 89 85 .762 .2035864478
55725 .1806765158129175 18 81 312 0 90 78 91 87 ?1 29 89 359 0 91 92 87 .762 .20
3586447855725 -.1806765158129175 18 91 310 0 93 81 94 89 ?1 29 92 360 0 94 95 89
 .762 -.203586447855725 -.1806765158129175 18 94 302 0 96 91 97 92 ?1 29 95 361
 0 97 98 92 .762 -.203586447855725 .1806765158129175 18 97 298 0 99 94 100 95 ?1
 29 98 365 0 100 101 95 .635 .254 .254 18 100 300 0 102 97 103 98 ?1 29 101 1471
 0 104 105 98 .9398 .05842 -.06858 18 104 1413 0 106 107 108 101 ?1 29 105 1473
 0 108 109 101 .9398 -.05842 .06858 18 108 1415 0 110 104 111 105 ?1 29 109 1474
 0 111 112 105 .9398 .05842 .06858 18 111 1417 0 113 108 114 109 ?1 29 112 1476
 0 103 115 109 1.27 -.05842 -.06858 18 103 1423 0 116 100 117 112 ?1 29 115 1477
 0 117 118 112 1.27 -.05842 .06858 18 117 1421 0 119 103 107 115 ?1 29 118 1478
 0 107 120 115 1.27 .05842 .06858 18 107 1411 0 121 117 104 118 ?1 29 120 1714 0
 114 122 118 1.27 .05842 -.06858 18 114 1686 0 123 111 124 120 ?1 29 122 2232 0
 124 125 120 .4953 -.1524 -.254 18 124 2199 0 126 114 127 122 ?1 29 125 2816 0 1
27 128 122 .2286 -.1524 -.381 18 127 2763 0 129 124 130 125 ?1 29 128 3412 0 130
 131 125 .4064 .2032 -.254 18 130 3366 0 132 127 133 128 ?1 29 131 3879 0 133 0
 128 .4064 .1577391241438615 -.381 18 133 3813 0 134 130 0 131 ?1 17 134 0 135 1
32 136 133 137 138 0 30 -15 255 135 3719 0 134 17 0 17 132 0 135 139 134 130 140
 141 0 142 +17 136 0 135 134 139 40 51 143 0 137 +17 137 0 34 35 30 40 134 138 0
 0 +16 138 2730 0 ?137 144 37 145 0 0 1 17 30 0 34 137 32 133 38 11 0 140 +15 34
 2782 0 35 146 0 17 38 0 41 39 140 12 30 11 0 43 -17 140 0 41 38 42 133 132 141
 0 0 -15 41 3708 0 38 147 0 17 42 0 41 140 39 130 148 149 0 0 +16 141 3328 0 ?13
2 143 149 150 0 0 1 16 143 2715 0 ?136 151 141 152 0 0 1 16 149 3349 0 ?42 141 4
4 153 0 0 1 31 255 150 3407 0 141 154 155 0 +.4064 .03777435011521215 -.26642087
15273245 1 0 0 0 0 -1 .1658913008246745 31 154 4182 0 156 157 150 0 +1.31064 0 4
62702176887849e-31 1 0 0 0 0 -1 .08255 31 155 3404 0 44 150 153 0 -.2286 .037774
35011521215 -.2664208715273245 -1 0 0 0 0 1 .1658913008246745 16 44 3346 0 ?39 1
49 158 155 0 0 1 30 255 153 3399 0 149 155 152 0 +.228598 .2032 -.254 1 0 0 30 1
52 2809 0 143 153 159 0 +.4064 -.1524 -.3175 0 -218547839493141e-30 -1 31 159 28
08 0 151 152 160 0 +.3175 -.1524 -.2833172666230105 0 1 -218547839493141e-30 0 2
18547839493141e-30 1 .13208 16 151 2725 0 ?35 161 143 159 0 0 1 30 160 2807 0 16
1 159 162 0 +.2286 -.1524 -.3175 0 -218547839493141e-30 -1 16 161 2750 0 ?129 16
3 151 160 0 0 1 30 162 2806 0 163 160 164 0 +.2286 .0508 -.254 0 -1 218547839493
141e-30 16 163 2710 0 ?54 37 161 162 0 0 1 30 164 2805 0 37 162 145 0 +.2286 .05
08 -.381 0 -1 218547839493141e-30 16 37 2736 0 ?36 138 163 164 0 0 1 30 145 2804
 0 138 164 165 0 +.4064 .0508 -.381 0 -1 218547839493141e-30 30 165 2803 0 144 1
45 166 0 +.4064 .0508 -.254 0 -1 218547839493141e-30 16 144 2720 0 ?139 167 138
 165 0 0 1 31 166 2465 0 168 165 169 0 +.3175 -.3048 -.254 0 -1 218547839493141e
-30 0 -218547839493141e-30 -1 .0508 16 168 2438 0 ?170 171 167 166 0 0 1 31 169
 2464 0 167 166 172 0 +.3175 -.3556 -.254 0 -1 218547839493141e-30 0 -2185478394
93141e-30 -1 .0508 16 167 2441 0 ?173 168 144 169 0 0 1 31 172 2228 0 174 169 17
5 0 +.3175 -.1524 -.254 0 -1 218547839493141e-30 0 -218547839493141e-30 -1 .1778
 16 174 2184 0 ?176 177 171 172 0 0 1 31 175 2227 0 171 172 178 0 +.3175 -.3556
 -.254 0 -1 218547839493141e-30 0 -218547839493141e-30 -1 .1778 16 171 2193 0 ?1
79 174 168 175 0 0 1 38 178 2226 0 177 175 180 0 +181 182 183 184 185 186 16 177
 2178 0 ?187 188 174 178 0 0 1 31 180 2128 0 189 178 190 0 +1.31064 0 4121548802
53042e-31 1 0 0 0 0 -1 .127 51 181 163 0 191 192 193 194 +.635 .335876935708648
 -555111512312578e-31 -1 0 0 .642238895802041 0 0 1 51 182 2223 0 195 196 197 19
8 +.3175 -.1524 -.254 0 -1 218547839493141e-30 .1778 0 -218547839493141e-30 -1 4
0 255 11 183 0 1 11 .01118591984727072 .35583375813637 ??.4953 -.254 -.254 .4855
88229429483 -.275709957174333 -.196041505132882 .456060901809831 -.2903345678662
03 -.1425831409092564 .4118714513726585 -.2979979944411835 -.1033120138636856 .3
57812314779873 -.3012551287916345 -.0808302645463461 .298925561430951 -.30170846
70526825 -.0771728803835662 .241882148533307 -.2995808861905165 -.09308144749730
98 .1934841554889805 -.2937621481691925 -.1265915610714164 .1592268910485375 -.2
826252257004065 -.172990969745106 .1418520584832982 -.2651261038054425 -.2264202
8569863 .1397 -.254 -.254 41 3 CI8 term_use0 0 1 cCZ1 184 L?.4953 -.254 -.254 41
 1 185 L?.1397 -.254 -.254 204 2 17 INTERSECTION_DATA17 Intersection data7 uv_ty
pe0 0 1 u6 values0 1 1 fT44 186 4 4.30578610278197 .1397 1.570796326794895 .1016
 4.40219116798021 .1494117705705174 1.902840036933015 .1233099571743328 4.488514
052564325 .1789390981901695 2.24803244013846 .137934567866203 4.5508247305179 .2
231285486273415 2.58208018971071 .1455979944411836 4.58619732127186 .27718768522
0127 2.91287533804685 .1488551287916344 4.59193565030667 .336074438569049 3.2462
5177189019 .1493084670526826 4.56694397873146 .393117851466693 3.5808829499949 .
1471808861905162 4.51398000489498 .441515844511019 3.9134981324627 .141362148169
1924 4.439664614042945 .475773108951463 4.23932169748568 .1302252257004066 4.352
09603446582 .493147941516702 4.55664359733716 .1127261038054422 4.30578610278197
 .4953 4.71238898038469 .1016 14 255 195 2209 199 ?200 201 202 6 182 +0 0 200 20
1 29 50 255 196 2224 0 200 203 182 0 +.3175 -.3556 -.254 0 -1 218547839493141e-3
0 1 0 0 50 197 2126 0 204 182 205 0 +1.31064 0 277555756156289e-31 1 0 0 0 1 0 1
41 255 198 178 198 198 182 14 204 2113 206 ?201 207 208 6 197 +0 0 201 207 29 50
 205 2125 0 201 197 209 0 +1.29159 0 277555756156289e-31 1 0 0 0 1 0 14 201 2117
 0 ?195 204 210 6 205 -0 0 195 204 29 51 209 2124 0 207 205 211 0 -1.31064 0 412
154880253042e-31 -1 0 0 .127 0 0 1 14 207 2108 212 ?204 213 214 6 209 -0 0 204 2
13 29 51 211 1919 0 213 209 215 0 -1.29159 0 334389808507185e-31 -1 0 0 .12065 0
 0 1 14 213 1904 0 ?207 216 217 6 211 -0 0 207 216 29 50 215 1709 0 216 211 218
 0 +1.28905 0 277555756156289e-31 1 0 0 0 1 0 14 216 1697 0 ?213 219 220 6 215 +
0 0 213 219 29 50 218 1708 0 221 215 222 0 +1.27 0 277555756156289e-31 1 0 0 0 1
 0 14 221 1701 223 ?219 224 225 6 218 -0 0 219 224 29 51 222 1707 0 219 218 226
 0 -1.28905 0 260512990348621e-31 -1 0 0 .127 0 0 1 14 219 1692 227 ?216 221 228
 6 222 -0 0 216 221 29 51 226 1456 0 224 222 229 0 -1.27 3469446951953615e-33 .0
0825237598825127 -1 0 0 .09652 0 0 1 14 224 1439 230 ?221 231 232 6 226 -0 0 221
 231 29 50 229 1455 0 231 226 233 0 +1.27 -.05842 0 0 1 1011795553208986e-31 0 -
1011795553208986e-31 1 14 231 1435 234 ?224 235 236 6 229 -0 0 224 235 29 51 233
 1454 0 235 229 237 0 -1.27 3469446951953615e-32 -.00825237598825124 -1 0 0 .096
52 0 0 1 14 235 1431 238 ?231 239 240 6 233 -0 0 231 239 29 50 237 1453 0 239 23
3 241 0 +1.27 .05842 1387778780781446e-32 0 1 0 0 0 1 14 239 1427 242 ?235 243 2
44 6 237 +0 0 235 243 29 50 241 642 0 245 237 246 0 +.94488 .00306073470307261 -
.0348029812307065 1 0 0 0 1 0 14 245 627 0 ?243 247 248 6 241 +0 0 243 247 29 51
 246 640 0 247 241 249 0 -.94488 .107488342406789 101094593269614e-32 -1 0 0 .01
651 0 0 1 14 247 622 0 ?245 250 251 6 246 -0 0 245 250 29 51 249 639 0 250 246 2
52 0 -.94488 .107488342406789 777650717458569e-33 -1 0 0 .0127 0 0 1 14 250 617
 0 ?247 253 254 6 249 +0 0 247 253 29 50 252 534 0 255 249 256 0 +.9398 0 0 1 0
 0 0 1 0 14 255 522 257 ?258 259 260 6 252 +258 243 258 259 29 51 256 532 0 253
 252 261 0 -.9398 0 182747918602764e-31 -1 0 0 .127 0 0 1 14 253 517 262 ?250 26
3 264 6 256 -0 0 250 263 29 50 261 454 0 263 256 265 0 +.8128 -555111512312578e-
31 555111512312578e-31 1 0 0 0 1 0 14 263 442 266 ?253 267 268 6 261 +0 0 253 26
7 29 51 265 452 0 267 261 269 0 -.8128 0 104982846856907e-31 -1 0 0 .17145 0 0 1
 14 267 437 270 ?263 271 272 6 265 -0 0 263 271 29 50 269 345 0 271 265 273 0 +.
762 0 1110223024625156e-31 1 0 0 0 1 0 14 271 330 274 ?267 275 276 6 269 +0 0 26
7 275 29 52 255 273 343 0 277 269 278 279 +.635 .335876935708648 -55511151231257
8e-31 -1 0 0 .642238895802041 .5 .866025403784439 0 0 -1 14 277 318 280 ?281 282
 283 6 273 +0 0 281 282 29 50 278 342 0 282 273 284 285 +.635 0 .254 .5 0 .86602
5403784439 .866025403784439 0 -.5 141 279 286 287 287 273 38 286 357 0 288 289 2
90 0 +273 278 291 292 293 294 141 287 295 279 279 273 38 295 355 0 296 290 297 0
 +273 298 299 300 301 302 16 296 271 0 ?303 288 304 295 0 0 1 38 290 356 0 305 2
86 295 0 +284 278 306 307 308 309 38 297 354 0 304 295 310 0 +284 298 311 312 31
3 314 50 298 340 0 281 284 315 316 -.635 0 -.254 .5 0 -.866025403784439 -.866025
403784439 0 -.5 40 2 299 0 1 2 .002216474303858645 .02749031456635845 ??.762 -.2
03586447855725 -.1806765158129175 .635 -.254 -.254 41 1 300 L?.762 -.20358644785
5725 -.1806765158129175 41 1 301 L?.635 -.254 -.254 204 8 302 4 1.24761938716095
 -.127 -.146646968374165 -.203586447855725 1.16419344919218 0 0 -.254 14 281 322
 317 ?275 277 318 6 298 -0 0 275 277 29 52 284 341 0 275 278 298 319 -.635 -.335
876935708648 -555111512312578e-31 -1 0 0 .642238895802041 .5 .866025403784439 0
 0 -1 50 315 140 0 320 298 321 0 +0 -.01242395076467394 -.02829890799627605 1 0
 0 0 1 0 141 316 295 322 322 298 141 322 297 316 316 298 14 320 94 323 ?282 324
 325 6 315 -0 0 282 324 29 51 321 161 0 324 315 192 0 -.635 -.335876935708648 -5
55111512312578e-31 -1 0 0 .642238895802041 0 0 1 14 324 154 326 ?320 191 327 6 3
21 -0 0 320 191 29 50 192 162 0 328 321 181 0 +.635 -.127 -.254 0 0 1 1 0 0 14 3
28 156 329 ?259 330 331 6 192 -0 0 259 330 29 81 1 329 4213 332 328 0 0 333 334
 335 14 259 2213 336 ?255 328 337 6 203 -0 0 255 328 29 14 330 2783 334 ?328 17
 338 6 339 +0 0 328 17 29 15 331 3286 0 148 328 0 13 29 69 0 0 0 0 0 0 10 17 14
 17 2775 340 ?330 0 135 6 341 -0 0 330 0 29 81 1 340 4209 332 17 0 0 274 212 342
 50 341 2798 0 17 343 344 0 +.4064 .0508 -.3175 -1 0 0 0 0 1 51 343 2799 0 146 3
39 341 0 -.3175 .0508 -.2833172666230105 0 -1 218547839493141e-30 .13208 0 -2185
47839493141e-30 -1 50 344 2463 0 345 341 346 0 +.3175 -.3048 -.254 0 -1 21854783
9493141e-30 1 0 0 14 345 2451 347 ?146 348 349 6 344 +0 0 146 348 29 51 346 2461
 0 348 344 203 0 +.3175 -.3048 -.254 0 -1 218547839493141e-30 .0508 0 -218547839
493141e-30 -1 14 348 2446 0 ?345 200 350 6 346 -0 0 345 200 29 50 203 2225 0 259
 346 196 0 +.3175 -.1524 -.254 0 -1 218547839493141e-30 1 0 0 14 200 2217 351 ?3
48 195 352 6 196 +0 0 348 195 29 15 350 2449 0 353 348 354 17 353 0 350 353 353
 0 170 168 0 0 -15 354 2450 0 173 348 0 17 173 0 354 173 173 0 355 167 0 0 +17 3
55 0 352 355 355 0 173 167 0 0 -15 352 2430 0 355 200 356 15 356 2220 0 179 200
 0 17 179 0 356 179 179 0 357 171 0 0 +17 357 0 202 357 357 0 179 171 0 0 -15 20
2 2203 0 357 195 358 15 358 2204 0 359 195 0 17 359 0 358 176 187 55 60 31 0 360
 -17 176 0 358 361 359 124 360 174 0 0 +17 187 0 358 359 361 58 63 177 0 0 +17 6
0 0 331 77 57 58 359 31 0 362 +16 31 2154 0 ?60 11 363 21 0 0 1 17 360 0 337 364
 126 55 176 174 0 0 -15 337 2208 0 364 259 0 17 364 0 337 129 360 52 57 365 0 36
6 +17 126 0 337 360 51 124 367 368 0 369 +17 51 0 337 126 46 47 136 143 0 367 -1
7 367 0 331 142 369 47 126 368 0 139 -16 368 2659 0 ?126 365 370 371 365 365 1 1
7 369 0 331 367 372 124 361 363 0 176 +17 372 0 331 369 373 61 86 374 0 361 +17
 361 0 358 187 176 61 369 363 0 0 -16 363 2152 0 ?369 31 365 375 0 0 1 16 365 21
49 0 ?364 363 368 371 368 368 1 30 375 2153 0 363 371 21 0 -.4953 -.1524 -.254 0
 -1 218547839493141e-30 30 371 2151 0 365 376 375 0 +.635 -.1524 -.254 1 0 0 30
 21 2156 0 31 375 8 0 +.1397 -.1524 -.254 0 -1 218547839493141e-30 31 376 1054 0
 377 378 371 0 +.9398 .0930876351349595 -.0537441712033946 1 0 0 0 -.5 -.8660254
03784438 .0127 16 377 1052 0 ?379 370 380 376 0 0 1 31 378 1050 0 380 381 376 0
 +.9398 .0930876351349595 -.0537441712033946 1 0 0 0 -.5 -.866025403784438 .0165
1 16 380 1048 0 ?382 377 383 378 0 0 1 31 381 1046 0 383 384 378 0 +.94488 .0930
876351349595 -.0537441712033946 1 0 0 0 -.5 -.866025403784438 .01651 16 383 1044
 0 ?385 380 386 381 0 0 1 31 384 1042 0 386 387 381 0 +.94488 .0930876351349595
 -.0537441712033946 1 0 0 0 -.5 -.866025403784438 .0127 16 386 1040 0 ?388 383 3
89 384 0 0 1 31 387 1018 0 389 390 384 0 +.9398 .0537441712033945 -.093087635134
9596 1 0 0 0 -.866025403784439 -.5 .0127 16 389 1016 0 ?391 386 392 387 0 0 1 31
 390 1014 0 392 393 387 0 +.9398 .0537441712033945 -.0930876351349596 1 0 0 0 -.
866025403784439 -.5 .01651 16 392 1012 0 ?394 389 395 390 0 0 1 31 393 1010 0 39
5 396 390 0 +.94488 .0537441712033945 -.0930876351349596 1 0 0 0 -.8660254037844
39 -.5 .01651 16 395 1008 0 ?397 392 398 393 0 0 1 31 396 1006 0 398 399 393 0 +
.94488 .0537441712033945 -.0930876351349596 1 0 0 0 -.866025403784439 -.5 .0127
 16 398 1004 0 ?400 395 401 396 0 0 1 31 399 982 0 401 402 396 0 +.9398 -1896763
74536608e-31 -.107488342406789 1 0 0 0 -1 183697019872103e-30 .0127 16 401 980 0
 ?403 398 404 399 0 0 1 31 402 978 0 404 405 399 0 +.9398 -187343422384232e-31 -
.107488342406789 1 0 0 0 -1 183697019872103e-30 .01651 16 404 976 0 ?406 401 407
 402 0 0 1 31 405 974 0 407 408 402 0 +.94488 -187343422384232e-31 -.10748834240
6789 1 0 0 0 -1 183697019872103e-30 .01651 16 407 972 0 ?409 404 410 405 0 0 1 3
1 408 970 0 410 411 405 0 +.94488 -189676374536608e-31 -.107488342406789 1 0 0 0
 -1 183697019872103e-30 .0127 16 410 968 0 ?412 407 413 408 0 0 1 31 411 946 0 4
13 414 408 0 +.9398 -.0537441712033946 -.0930876351349595 1 0 0 0 -.866025403784
438 .5 .0127 16 413 944 0 ?415 410 416 411 0 0 1 31 414 942 0 416 417 411 0 +.93
98 -.0537441712033946 -.0930876351349595 1 0 0 0 -.866025403784438 .5 .01651 16
 416 940 0 ?418 413 419 414 0 0 1 31 417 938 0 419 420 414 0 +.94488 -.053744171
2033946 -.0930876351349595 1 0 0 0 -.866025403784438 .5 .01651 16 419 936 0 ?421
 416 422 417 0 0 1 31 420 934 0 422 423 417 0 +.94488 -.0537441712033946 -.09308
76351349595 1 0 0 0 -.866025403784438 .5 .0127 16 422 932 0 ?424 419 425 420 0 0
 1 31 423 910 0 425 426 420 0 +.9398 -.0930876351349595 -.0537441712033945 1 0 0
 0 -.5 .866025403784439 .0127 16 425 908 0 ?427 422 428 423 0 0 1 31 426 906 0 4
28 429 423 0 +.9398 -.0930876351349595 -.0537441712033945 1 0 0 0 -.5 .866025403
784439 .01651 16 428 904 0 ?430 425 431 426 0 0 1 31 429 902 0 431 432 426 0 +.9
4488 -.0930876351349595 -.0537441712033945 1 0 0 0 -.5 .866025403784439 .01651 1
6 431 900 0 ?433 428 434 429 0 0 1 31 432 898 0 434 435 429 0 +.94488 -.09308763
51349595 -.0537441712033945 1 0 0 0 -.5 .866025403784439 .0127 16 434 896 0 ?436
 431 437 432 0 0 1 31 435 874 0 437 438 432 0 +.9398 -.107488342406789 123858747
2995432e-32 1 0 0 0 1224646799147352e-31 1 .0127 16 437 872 0 ?439 434 440 435 0
 0 1 31 438 870 0 440 441 435 0 +.9398 -.107488342406789 1215257951471676e-32 1
 0 0 0 1224646799147352e-31 1 .01651 16 440 868 0 ?442 437 443 438 0 0 1 31 441
 866 0 443 444 438 0 +.94488 -.107488342406789 1215257951471676e-32 1 0 0 0 1224
646799147352e-31 1 .01651 16 443 864 0 ?445 440 446 441 0 0 1 31 444 862 0 446 4
47 441 0 +.94488 -.107488342406789 1238587472995432e-32 1 0 0 0 1224646799147352
e-31 1 .0127 16 446 860 0 ?448 443 449 444 0 0 1 31 447 838 0 449 450 444 0 +.93
98 -.0930876351349595 .0537441712033946 1 0 0 0 .5 .866025403784439 .0127 16 449
 836 0 ?451 446 452 447 0 0 1 31 450 834 0 452 453 447 0 +.9398 -.09308763513495
95 .0537441712033946 1 0 0 0 .5 .866025403784439 .01651 16 452 832 0 ?454 449 45
5 450 0 0 1 31 453 830 0 455 456 450 0 +.94488 -.0930876351349595 .0537441712033
946 1 0 0 0 .5 .866025403784439 .01651 16 455 828 0 ?457 452 458 453 0 0 1 31 45
6 826 0 458 459 453 0 +.94488 -.0930876351349595 .0537441712033946 1 0 0 0 .5 .8
66025403784439 .0127 16 458 824 0 ?460 455 461 456 0 0 1 31 459 802 0 461 462 45
6 0 +.9398 -.0537441712033945 .0930876351349595 1 0 0 0 .866025403784439 .5 .012
7 16 461 800 0 ?463 458 464 459 0 0 1 31 462 798 0 464 465 459 0 +.9398 -.053744
1712033945 .0930876351349595 1 0 0 0 .866025403784439 .5 .01651 16 464 796 0 ?46
6 461 467 462 0 0 1 31 465 794 0 467 468 462 0 +.94488 -.0537441712033945 .09308
76351349595 1 0 0 0 .866025403784439 .5 .01651 16 467 792 0 ?469 464 470 465 0 0
 1 31 468 790 0 470 471 465 0 +.94488 -.0537441712033945 .0930876351349595 1 0 0
 0 .866025403784439 .5 .0127 16 470 788 0 ?472 467 473 468 0 0 1 31 471 766 0 47
3 474 468 0 +.9398 580411200624788e-32 .107488342406789 1 0 0 0 1 -6123233995736
77e-31 .0127 16 473 764 0 ?475 470 476 471 0 0 1 31 474 762 0 476 477 471 0 +.93
98 557081679101031e-32 .107488342406789 1 0 0 0 1 -612323399573677e-31 .01651 16
 476 760 0 ?478 473 479 474 0 0 1 31 477 758 0 479 480 474 0 +.94488 55708167910
1031e-32 .107488342406789 1 0 0 0 1 -612323399573677e-31 .01651 16 479 756 0 ?48
1 476 482 477 0 0 1 31 480 754 0 482 483 477 0 +.94488 580411200624788e-32 .1074
88342406789 1 0 0 0 1 -612323399573677e-31 .0127 16 482 752 0 ?484 479 485 480 0
 0 1 31 483 730 0 485 486 480 0 +.9398 .0537441712033946 .0930876351349595 1 0 0
 0 .866025403784439 -.5 .0127 16 485 728 0 ?487 482 488 483 0 0 1 31 486 726 0 4
88 489 483 0 +.9398 .0537441712033946 .0930876351349595 1 0 0 0 .866025403784439
 -.5 .01651 16 488 724 0 ?490 485 491 486 0 0 1 31 489 722 0 491 492 486 0 +.944
88 .0537441712033946 .0930876351349595 1 0 0 0 .866025403784439 -.5 .01651 16 49
1 720 0 ?493 488 494 489 0 0 1 31 492 718 0 494 495 489 0 +.94488 .0537441712033
946 .0930876351349595 1 0 0 0 .866025403784439 -.5 .0127 16 494 716 0 ?496 491 4
97 492 0 0 1 31 495 694 0 497 498 492 0 +.9398 .0930876351349595 .05374417120339
45 1 0 0 0 .5 -.866025403784439 .0127 16 497 692 0 ?499 494 500 495 0 0 1 31 498
 690 0 500 501 495 0 +.9398 .0930876351349595 .0537441712033945 1 0 0 0 .5 -.866
025403784439 .01651 16 500 688 0 ?502 497 503 498 0 0 1 31 501 686 0 503 504 498
 0 +.94488 .0930876351349595 .0537441712033945 1 0 0 0 .5 -.866025403784439 .016
51 16 503 684 0 ?505 500 506 501 0 0 1 31 504 682 0 506 507 501 0 +.94488 .09308
76351349595 .0537441712033945 1 0 0 0 .5 -.866025403784439 .0127 16 506 680 0 ?5
08 503 509 504 0 0 1 30 507 168 0 510 511 504 0 +.635 -.254 .254 -1 0 0 16 510 1
52 0 ?80 512 374 507 0 0 1 30 511 167 0 374 513 507 0 +.635 -.254 -.254 -1 0 0 1
6 374 151 0 ?372 510 514 511 514 514 1 30 513 166 0 515 516 511 0 +.635 .254 -.2
54 -1 0 0 16 515 150 0 ?517 514 518 513 0 0 1 30 516 165 0 518 519 513 0 +.635 .
254 .254 -1 0 0 16 518 149 0 ?70 515 520 516 0 0 1 31 519 141 0 521 522 516 0 +0
 -.335876935708648 -555111512312578e-31 1 0 0 0 0 -1 .642238895802041 16 521 104
 0 ?523 524 525 519 0 0 1 30 522 142 0 525 526 519 0 +0 -.127 -.254 0 1 0 16 525
 108 0 ?74 521 527 522 0 0 1 31 526 143 0 527 528 522 0 +0 .335876935708648 -555
111512312578e-31 -1 0 0 0 0 -1 .642238895802041 16 527 114 0 ?529 525 530 526 0
 0 1 30 528 144 0 530 531 526 0 +0 .127 .254 0 1 0 16 530 118 0 ?532 527 288 528
 0 0 1 31 531 34 0 520 533 528 0 +.635 -.335876935708648 -555111512312578e-31 1
 0 0 0 0 -1 .642238895802041 16 520 32 0 ?534 518 535 531 0 0 1 30 533 24 0 535
 536 531 0 +.635 -.127 -.254 0 1 0 16 535 22 0 ?537 520 538 533 0 0 1 31 536 19
 0 538 539 533 0 +.635 .335876935708648 -555111512312578e-31 -1 0 0 0 0 -1 .6422
38895802041 16 538 17 0 ?540 535 524 536 0 0 1 30 539 9 0 524 541 536 0 +.635 .1
27 .254 0 1 0 16 524 7 0 ?102 538 521 539 0 0 1 31 541 346 0 542 543 539 0 +.762
 -.335876935708648 -555111512312578e-31 1 0 0 0 0 -1 .568915411614958 16 542 285
 0 ?90 305 544 541 0 0 1 30 543 347 0 544 545 541 0 -.762 0 -.1806765158129175 0
 -1 0 16 544 282 0 ?93 542 546 543 0 0 1 31 545 348 0 546 310 543 0 -.762 .33587
6935708648 -555111512312578e-31 1 0 0 0 0 -1 .568915411614958 16 546 260 0 ?547
 544 548 545 0 0 1 30 310 349 0 548 297 545 0 +.762 0 .1806765158129175 0 1 0 16
 548 254 0 ?549 546 550 310 0 0 1 17 549 0 551 552 99 81 553 548 0 0 +16 550 434
 0 ?554 548 555 556 0 0 1 17 554 0 557 554 554 0 558 550 0 0 +16 555 514 0 ?559
 550 560 561 0 0 1 31 556 456 0 550 562 289 0 +.8128 0 104982846856907e-31 1 0 0
 0 0 -1 .17145 31 562 535 0 563 561 556 0 +.8128 0 182747918602764e-31 1 0 0 0 0
 -1 .127 31 289 455 0 512 556 286 0 +.762 0 104982846856907e-31 1 0 0 0 0 -1 .17
145 16 512 419 0 ?564 563 510 289 0 0 1 17 564 0 565 564 564 0 566 512 0 0 +16 5
63 499 0 ?567 509 512 562 0 0 1 17 567 0 568 567 567 0 569 563 0 0 +16 509 583 0
 ?570 506 563 571 0 0 1 17 570 0 572 570 570 0 573 509 0 0 +31 571 643 0 509 574
 561 0 +.9398 .107488342406789 101094593269614e-32 1 0 0 0 0 -1 .01651 31 574 64
4 0 575 576 571 0 +.9398 .107488342406789 777650717458569e-33 1 0 0 0 0 -1 .0127
 31 561 536 0 555 571 562 0 +.9398 0 182747918602764e-31 1 0 0 0 0 -1 .127 16 57
5 612 0 ?577 578 579 574 0 0 1 31 576 645 0 560 580 574 0 +.94488 .1074883424067
89 101094593269614e-32 1 0 0 0 0 -1 .01651 16 560 609 0 ?581 555 578 576 0 0 1 3
1 580 646 0 578 582 576 0 +.94488 .107488342406789 777650717458569e-33 1 0 0 0 0
 -1 .0127 16 578 601 0 ?583 560 575 580 0 0 1 30 582 1459 0 579 584 580 0 +1.27
 .05842 .06858 -1 0 0 16 579 1378 0 ?113 575 585 582 0 0 1 30 584 1460 0 585 586
 582 0 +1.27 -.05842 .06858 -1 0 0 16 585 1386 0 ?587 579 588 584 0 0 1 30 586 1
461 0 588 589 584 0 +1.27 -.05842 -.06858 -1 0 0 16 588 1394 0 ?66 585 590 586 0
 0 1 30 589 1462 0 590 591 586 0 +1.27 .05842 -.06858 -1 0 0 16 590 1370 0 ?106
 588 592 589 0 0 1 31 591 1463 0 593 594 589 0 +.9398 3469446951953615e-33 .0082
5237598825127 1 0 0 0 0 -1 .09652 16 593 1389 0 ?595 596 597 591 0 0 1 30 594 14
64 0 597 598 591 0 +.9398 -.05842 0 0 1011795553208986e-31 -1 16 597 1381 0 ?599
 593 600 594 0 0 1 31 598 1465 0 600 601 594 0 +.9398 3469446951953615e-32 -.008
25237598825124 1 0 0 0 0 -1 .09652 16 600 1373 0 ?110 597 602 598 0 0 1 30 601 1
466 0 602 603 598 0 +.9398 .05842 1387778780781446e-32 0 0 -1 16 602 1406 0 ?604
 600 605 601 0 0 1 31 603 1467 0 592 606 601 0 +1.27 3469446951953615e-33 .00825
237598825127 1 0 0 0 0 -1 .09652 16 592 1403 0 ?607 590 608 603 0 0 1 30 606 146
8 0 608 609 603 0 +1.27 -.05842 0 0 1011795553208986e-31 -1 16 608 1400 0 ?610 5
92 611 606 0 0 1 31 609 1469 0 611 612 606 0 +1.27 3469446951953615e-32 -.008252
37598825124 1 0 0 0 0 -1 .09652 16 611 1397 0 ?613 608 596 609 0 0 1 30 612 1470
 0 596 614 609 0 +1.27 .05842 1387778780781446e-32 0 0 -1 16 596 1367 0 ?123 611
 593 612 0 0 1 31 614 1710 0 615 616 612 0 +1.27 0 260512990348621e-31 1 0 0 0 0
 -1 .127 16 615 1674 0 ?617 605 618 614 0 0 1 31 616 1711 0 605 619 614 0 +1.289
05 0 260512990348621e-31 1 0 0 0 0 -1 .127 16 605 1677 0 ?620 602 615 616 0 0 1
 31 619 1922 0 370 621 616 0 +1.28905 0 334389808507185e-31 1 0 0 0 0 -1 .12065
 16 370 1886 0 ?622 368 377 619 0 0 1 31 621 1923 0 618 190 619 0 +1.29159 0 334
389808507185e-31 1 0 0 0 0 -1 .12065 16 618 1901 0 ?623 615 189 621 0 0 1 31 190
 2127 0 188 180 621 0 +1.29159 0 412154880253042e-31 1 0 0 0 0 -1 .127 16 188 20
95 0 ?624 189 177 190 0 0 1 17 624 0 625 624 624 0 626 188 0 0 +16 189 2098 0 ?6
27 618 188 180 0 0 1 17 627 0 628 627 627 0 629 189 0 0 +15 628 2116 0 627 204 0
 17 629 0 214 629 629 0 627 189 0 0 -15 214 2111 0 629 207 625 15 625 2112 0 624
 207 0 17 626 0 630 626 626 0 624 188 0 0 -15 630 2121 0 626 201 0 17 623 0 210
 623 623 0 631 618 0 0 +15 210 2120 0 623 201 630 17 631 0 217 631 631 0 623 618
 0 0 -15 217 1907 0 631 213 632 15 632 1908 0 622 213 0 17 622 0 632 622 622 0 6
33 370 0 0 +17 633 0 220 633 633 0 622 370 0 0 -15 220 1888 0 633 216 634 15 634
 1700 0 620 216 0 17 620 0 634 620 620 0 635 605 0 0 +17 635 0 228 635 635 0 620
 605 0 0 -15 228 1695 0 635 219 636 15 636 1696 0 617 219 0 17 617 0 636 617 617
 0 637 615 0 0 +17 637 0 225 637 637 0 617 615 0 0 -15 225 1690 0 637 221 638 15
 638 1691 0 639 221 0 17 639 0 638 613 607 107 123 596 0 0 -17 613 0 638 610 639
 117 640 611 0 0 +17 607 0 638 639 610 114 641 592 0 0 +17 123 0 244 106 121 114
 639 596 0 642 +15 244 1430 0 643 239 0 17 106 0 244 643 123 104 642 590 0 595 +
17 121 0 244 123 643 107 113 579 0 640 -17 642 0 232 641 595 114 106 590 0 607 -
15 232 1442 0 595 224 0 17 641 0 232 66 642 103 607 592 0 610 -17 595 0 232 642
 66 104 644 593 0 604 +17 66 0 232 595 641 64 116 588 0 599 +17 644 0 645 646 60
4 64 595 593 0 0 -17 604 0 645 644 647 104 643 602 0 0 +15 645 1352 0 604 255 0
 17 647 0 645 604 646 111 110 600 0 0 -17 643 0 244 121 106 111 604 602 0 647 -1
7 646 0 645 647 644 108 599 597 0 0 -17 110 0 240 119 113 108 647 600 0 587 +15
 240 1434 0 110 235 0 17 119 0 240 640 110 117 587 585 0 648 -17 113 0 240 110 6
40 111 121 579 0 643 +17 587 0 236 599 648 108 119 585 0 646 +15 236 1438 0 599
 231 0 17 599 0 236 116 587 64 646 597 0 644 +17 648 0 236 587 116 117 610 608 0
 613 -17 116 0 236 648 599 103 66 588 0 641 -17 610 0 638 607 613 103 648 608 0
 0 +17 640 0 240 113 119 107 613 611 0 639 -17 583 0 254 583 583 0 649 578 0 0 +
15 254 620 0 583 250 650 17 649 0 248 649 649 0 583 578 0 0 -15 248 630 0 649 24
5 651 15 651 631 0 581 245 0 17 581 0 651 581 581 0 652 560 0 0 +17 652 0 251 65
2 652 0 581 560 0 0 -15 251 625 0 652 247 572 15 572 626 0 570 247 0 15 650 621
 0 653 250 0 17 653 0 650 653 653 0 577 575 0 0 -17 577 0 654 577 577 0 653 575
 0 0 +15 654 590 0 577 243 0 14 243 592 0 ?239 245 654 6 252 +255 655 239 245 29
 14 655 1056 0 ?19 656 657 6 252 +243 656 19 656 29 14 19 1034 0 ?658 655 659 6
 7 +0 0 658 655 29 14 656 1058 0 ?655 660 661 6 252 +655 660 655 660 29 15 657 6
61 0 499 655 0 17 499 0 657 499 499 0 662 497 0 0 +17 662 0 663 662 662 0 499 49
7 0 0 -15 663 679 0 662 664 0 14 664 674 0 ?665 666 667 6 668 +0 0 665 666 29 14
 665 668 0 ?669 664 670 6 671 -0 0 669 664 29 14 666 698 0 ?664 672 673 6 674 +0
 0 664 672 29 15 667 678 0 508 664 663 51 668 676 0 664 671 674 0 -.94488 .09308
76351349595 .0537441712033945 -1 0 0 .0127 0 -.5 .866025403784439 51 671 670 0 6
65 675 668 0 -.94488 .0930876351349595 .0537441712033945 -1 0 0 .01651 0 -.5 .86
6025403784439 50 674 700 0 666 668 676 0 +.94488 .03167063322476115 -.0147508166
0824776 1 0 0 0 .5 .866025403784439 51 676 706 0 672 674 677 0 -.94488 .05374417
12033946 .0930876351349595 -1 0 0 .01651 0 -.866025403784439 .5 14 672 704 0 ?66
6 678 679 6 676 -0 0 666 678 29 51 677 712 0 678 676 680 0 -.94488 .053744171203
3946 .0930876351349595 -1 0 0 .0127 0 -.866025403784439 .5 14 678 710 0 ?672 681
 682 6 677 +0 0 672 681 29 50 680 736 0 681 677 683 0 +.94488 .0348029812307065
 .00306073470307261 1 0 0 0 612323399573677e-31 1 14 681 734 0 ?678 684 685 6 68
0 +0 0 678 684 29 51 683 742 0 684 680 686 0 -.94488 557081679101031e-32 .107488
342406789 -1 0 0 .01651 0 -1 612323399573677e-31 14 684 740 0 ?681 687 688 6 683
 -0 0 681 687 29 51 686 748 0 687 683 689 0 -.94488 580411200624788e-32 .1074883
42406789 -1 0 0 .0127 0 -1 612323399573677e-31 14 687 746 0 ?684 690 691 6 686 +
0 0 684 690 29 50 689 772 0 690 686 692 0 +.94488 .02860989852168855 .0200521646
2245875 1 0 0 0 -.5 .866025403784439 14 690 770 0 ?687 693 694 6 689 +0 0 687 69
3 29 51 692 778 0 693 689 695 0 -.94488 -.0537441712033945 .0930876351349595 -1
 0 0 .01651 0 -.866025403784439 -.5 14 693 776 0 ?690 696 697 6 692 -0 0 690 696
 29 51 695 784 0 696 692 698 0 -.94488 -.0537441712033945 .0930876351349595 -1 0
 0 .0127 0 -.866025403784439 -.5 14 696 782 0 ?693 699 700 6 695 +0 0 693 699 29
 50 698 808 0 699 695 701 0 +.94488 .01475081660824776 .03167063322476115 1 0 0
 0 -.866025403784439 .5 14 699 806 0 ?696 702 703 6 698 +0 0 696 702 29 51 701 8
14 0 702 698 704 0 -.94488 -.0930876351349595 .0537441712033946 -1 0 0 .01651 0
 -.5 -.866025403784439 14 702 812 0 ?699 705 706 6 701 -0 0 699 705 29 51 704 82
0 0 705 701 707 0 -.94488 -.0930876351349595 .0537441712033946 -1 0 0 .0127 0 -.
5 -.866025403784439 14 705 818 0 ?702 708 709 6 704 +0 0 702 708 29 50 707 844 0
 708 704 710 0 +.94488 -.003060734703072605 .0348029812307065 1 0 0 0 -1 1224646
799147352e-31 14 708 842 0 ?705 711 712 6 707 +0 0 705 711 29 51 710 850 0 711 7
07 713 0 -.94488 -.107488342406789 1215257951471676e-32 -1 0 0 .01651 0 -1224646
799147352e-31 -1 14 711 848 0 ?708 714 715 6 710 -0 0 708 714 29 51 713 856 0 71
4 710 716 0 -.94488 -.107488342406789 1238587472995432e-32 -1 0 0 .0127 0 -12246
46799147352e-31 -1 14 714 854 0 ?711 717 718 6 713 +0 0 711 717 29 50 716 880 0
 717 713 719 0 +.94488 -.02005216462245875 .02860989852168855 1 0 0 0 -.86602540
3784439 -.5 14 717 878 0 ?714 720 721 6 716 +0 0 714 720 29 51 719 886 0 720 716
 722 0 -.94488 -.0930876351349595 -.0537441712033945 -1 0 0 .01651 0 .5 -.866025
403784439 14 720 884 0 ?717 723 724 6 719 -0 0 717 723 29 51 722 892 0 723 719 7
25 0 -.94488 -.0930876351349595 -.0537441712033945 -1 0 0 .0127 0 .5 -.866025403
784439 14 723 890 0 ?720 726 727 6 722 +0 0 720 726 29 50 725 916 0 726 722 728
 0 +.94488 -.03167063322476115 .01475081660824778 1 0 0 0 -.5 -.866025403784438
 14 726 914 0 ?723 729 730 6 725 +0 0 723 729 29 51 728 922 0 729 725 731 0 -.94
488 -.0537441712033946 -.0930876351349595 -1 0 0 .01651 0 .866025403784438 -.5 1
4 729 920 0 ?726 732 733 6 728 -0 0 726 732 29 51 731 928 0 732 728 734 0 -.9448
8 -.0537441712033946 -.0930876351349595 -1 0 0 .0127 0 .866025403784438 -.5 14 7
32 926 0 ?729 735 736 6 731 +0 0 729 735 29 50 734 952 0 735 731 737 0 +.94488 -
.0348029812307065 -.003060734703072605 1 0 0 0 -183697019872103e-30 -1 14 735 95
0 0 ?732 738 739 6 734 +0 0 732 738 29 51 737 958 0 738 734 740 0 -.94488 -18734
3422384232e-31 -.107488342406789 -1 0 0 .01651 0 1 -183697019872103e-30 14 738 9
56 0 ?735 741 742 6 737 -0 0 735 741 29 51 740 964 0 741 737 743 0 -.94488 -1896
76374536608e-31 -.107488342406789 -1 0 0 .0127 0 1 -183697019872103e-30 14 741 9
62 0 ?738 744 745 6 740 +0 0 738 744 29 50 743 988 0 744 740 746 0 +.94488 -.028
60989852168855 -.02005216462245875 1 0 0 0 .5 -.866025403784439 14 744 986 0 ?74
1 747 748 6 743 +0 0 741 747 29 51 746 994 0 747 743 749 0 -.94488 .053744171203
3945 -.0930876351349596 -1 0 0 .01651 0 .866025403784439 .5 14 747 992 0 ?744 75
0 751 6 746 -0 0 744 750 29 51 749 1000 0 750 746 752 0 -.94488 .053744171203394
5 -.0930876351349596 -1 0 0 .0127 0 .866025403784439 .5 14 750 998 0 ?747 753 75
4 6 749 +0 0 747 753 29 50 752 1024 0 753 749 20 0 +.94488 -.01475081660824778 -
.03167063322476115 1 0 0 0 .866025403784438 -.5 14 753 1022 0 ?750 658 755 6 752
 +0 0 750 658 29 51 20 1030 0 658 752 7 0 -.94488 .0930876351349595 -.0537441712
033946 -1 0 0 .01651 0 .5 .866025403784438 14 658 1028 0 ?753 19 756 6 20 -0 0 7
53 19 29 15 756 1032 0 757 658 758 17 757 0 756 757 757 0 385 383 0 0 -15 758 10
33 0 382 658 0 17 382 0 758 382 382 0 759 380 0 0 +17 759 0 760 759 759 0 382 38
0 0 0 -15 760 1020 0 759 255 645 17 385 0 761 385 385 0 757 383 0 0 +15 761 1027
 0 385 753 0 15 755 1026 0 762 753 761 17 762 0 755 762 762 0 388 386 0 0 -17 38
8 0 659 388 388 0 762 386 0 0 +15 659 1038 0 388 19 763 15 763 1039 0 764 19 0 1
7 764 0 763 764 764 0 379 377 0 0 -17 379 0 765 379 379 0 764 377 0 0 +15 765 10
21 0 379 258 0 14 258 1076 0 ?766 255 765 6 252 +766 255 766 255 29 14 766 1074
 0 ?767 258 768 6 252 +767 258 767 258 29 14 767 1072 0 ?769 766 770 6 252 +769
 766 769 766 29 15 768 985 0 391 766 0 17 391 0 768 391 391 0 771 389 0 0 +17 77
1 0 772 771 771 0 391 389 0 0 -15 772 1003 0 771 750 0 14 769 1070 0 ?773 767 77
4 6 252 +773 767 773 767 29 15 770 949 0 403 767 0 17 403 0 770 403 403 0 775 40
1 0 0 +17 775 0 776 775 775 0 403 401 0 0 -15 776 967 0 775 741 0 14 773 1068 0
 ?777 769 778 6 252 +777 769 777 769 29 15 774 913 0 415 769 0 17 415 0 774 415
 415 0 779 413 0 0 +17 779 0 780 779 779 0 415 413 0 0 -15 780 931 0 779 732 0 1
4 777 1066 0 ?781 773 782 6 252 +781 773 781 773 29 15 778 877 0 427 773 0 17 42
7 0 778 427 427 0 783 425 0 0 +17 783 0 784 783 783 0 427 425 0 0 -15 784 895 0
 783 723 0 14 781 1064 0 ?785 777 786 6 252 +785 777 785 777 29 15 782 841 0 439
 777 0 17 439 0 782 439 439 0 787 437 0 0 +17 787 0 788 787 787 0 439 437 0 0 -1
5 788 859 0 787 714 0 14 785 1062 0 ?660 781 789 6 252 +660 781 660 781 29 15 78
6 805 0 451 781 0 17 451 0 786 451 451 0 790 449 0 0 +17 790 0 791 790 790 0 451
 449 0 0 -15 791 823 0 790 705 0 14 660 1060 0 ?656 785 792 6 252 +656 785 656 7
85 29 15 789 769 0 463 785 0 17 463 0 789 463 463 0 793 461 0 0 +17 793 0 794 79
3 793 0 463 461 0 0 -15 794 787 0 793 696 0 15 792 733 0 475 660 0 17 475 0 792
 475 475 0 795 473 0 0 +17 795 0 796 795 795 0 475 473 0 0 -15 796 751 0 795 687
 0 15 754 1002 0 400 750 772 17 400 0 754 400 400 0 797 398 0 0 +17 797 0 748 79
7 797 0 400 398 0 0 -15 748 990 0 797 744 798 15 798 991 0 397 744 0 17 397 0 79
8 397 397 0 799 395 0 0 +17 799 0 751 799 799 0 397 395 0 0 -15 751 996 0 799 74
7 800 15 800 997 0 394 747 0 17 394 0 800 394 394 0 801 392 0 0 +17 801 0 802 80
1 801 0 394 392 0 0 -15 802 984 0 801 255 760 15 745 966 0 412 741 776 17 412 0
 745 412 412 0 803 410 0 0 +17 803 0 739 803 803 0 412 410 0 0 -15 739 954 0 803
 735 804 15 804 955 0 409 735 0 17 409 0 804 409 409 0 805 407 0 0 +17 805 0 742
 805 805 0 409 407 0 0 -15 742 960 0 805 738 806 15 806 961 0 406 738 0 17 406 0
 806 406 406 0 807 404 0 0 +17 807 0 808 807 807 0 406 404 0 0 -15 808 948 0 807
 255 802 15 736 930 0 424 732 780 17 424 0 736 424 424 0 809 422 0 0 +17 809 0 7
30 809 809 0 424 422 0 0 -15 730 918 0 809 726 810 15 810 919 0 421 726 0 17 421
 0 810 421 421 0 811 419 0 0 +17 811 0 733 811 811 0 421 419 0 0 -15 733 924 0 8
11 729 812 15 812 925 0 418 729 0 17 418 0 812 418 418 0 813 416 0 0 +17 813 0 8
14 813 813 0 418 416 0 0 -15 814 912 0 813 255 808 15 727 894 0 436 723 784 17 4
36 0 727 436 436 0 815 434 0 0 +17 815 0 721 815 815 0 436 434 0 0 -15 721 882 0
 815 717 816 15 816 883 0 433 717 0 17 433 0 816 433 433 0 817 431 0 0 +17 817 0
 724 817 817 0 433 431 0 0 -15 724 888 0 817 720 818 15 818 889 0 430 720 0 17 4
30 0 818 430 430 0 819 428 0 0 +17 819 0 820 819 819 0 430 428 0 0 -15 820 876 0
 819 255 814 15 718 858 0 448 714 788 17 448 0 718 448 448 0 821 446 0 0 +17 821
 0 712 821 821 0 448 446 0 0 -15 712 846 0 821 708 822 15 822 847 0 445 708 0 17
 445 0 822 445 445 0 823 443 0 0 +17 823 0 715 823 823 0 445 443 0 0 -15 715 852
 0 823 711 824 15 824 853 0 442 711 0 17 442 0 824 442 442 0 825 440 0 0 +17 825
 0 826 825 825 0 442 440 0 0 -15 826 840 0 825 255 820 15 709 822 0 460 705 791
 17 460 0 709 460 460 0 827 458 0 0 +17 827 0 703 827 827 0 460 458 0 0 -15 703
 810 0 827 699 828 15 828 811 0 457 699 0 17 457 0 828 457 457 0 829 455 0 0 +17
 829 0 706 829 829 0 457 455 0 0 -15 706 816 0 829 702 830 15 830 817 0 454 702
 0 17 454 0 830 454 454 0 831 452 0 0 +17 831 0 832 831 831 0 454 452 0 0 -15 83
2 804 0 831 255 826 15 700 786 0 472 696 794 17 472 0 700 472 472 0 833 470 0 0
 +17 833 0 694 833 833 0 472 470 0 0 -15 694 774 0 833 690 834 15 834 775 0 469
 690 0 17 469 0 834 469 469 0 835 467 0 0 +17 835 0 697 835 835 0 469 467 0 0 -1
5 697 780 0 835 693 836 15 836 781 0 466 693 0 17 466 0 836 466 466 0 837 464 0
 0 +17 837 0 838 837 837 0 466 464 0 0 -15 838 768 0 837 255 832 15 691 750 0 48
4 687 796 17 484 0 691 484 484 0 839 482 0 0 +17 839 0 685 839 839 0 484 482 0 0
 -15 685 738 0 839 681 840 15 840 739 0 481 681 0 17 481 0 840 481 481 0 841 479
 0 0 +17 841 0 688 841 841 0 481 479 0 0 -15 688 744 0 841 684 842 15 842 745 0
 478 684 0 17 478 0 842 478 478 0 843 476 0 0 +17 843 0 844 843 843 0 478 476 0
 0 -15 844 732 0 843 255 838 15 682 714 0 496 678 845 17 496 0 682 496 496 0 846
 494 0 0 +15 845 715 0 847 678 0 17 847 0 845 847 847 0 487 485 0 0 -17 487 0 66
1 487 487 0 847 485 0 0 +15 661 697 0 487 656 0 17 846 0 673 846 846 0 496 494 0
 0 -15 673 702 0 846 666 848 15 848 703 0 493 666 0 17 493 0 848 493 493 0 849 4
91 0 0 +17 849 0 679 849 849 0 493 491 0 0 -15 679 708 0 849 672 850 15 850 709
 0 490 672 0 17 490 0 850 490 490 0 851 488 0 0 +17 851 0 852 851 851 0 490 488
 0 0 -15 852 696 0 851 255 844 50 675 664 0 669 193 671 0 +.94488 .0200521646224
5875 -.02860989852168855 1 0 0 0 .866025403784439 .5 14 669 662 0 ?853 665 854 6
 675 +0 0 853 665 29 50 193 164 0 853 181 675 0 +.635 .127 .254 0 0 1 1 0 0 14 8
53 160 333 ?191 669 855 6 193 +0 0 191 669 29 81 1 333 4212 332 853 0 0 280 329
 856 14 191 158 857 ?324 853 858 6 181 +0 0 324 853 29 15 855 159 0 859 853 0 17
 859 0 855 88 70 78 532 530 0 529 -17 88 0 855 102 859 71 80 510 0 540 -17 70 0
 855 859 102 68 860 518 0 523 +17 532 0 325 861 529 68 859 530 0 0 +17 529 0 325
 532 862 78 863 527 0 0 +15 325 103 0 532 320 0 17 862 0 325 529 861 75 74 525 0
 863 -17 863 0 858 362 80 75 529 527 0 0 -15 858 2161 0 63 191 0 17 362 0 858 63
 863 58 77 514 0 187 -17 80 0 858 863 540 78 88 510 0 859 +17 540 0 858 80 86 71
 864 538 0 865 +17 86 0 858 540 63 84 372 374 0 373 -17 864 0 283 96 865 84 540
 538 0 0 -17 865 0 283 864 547 71 99 288 0 866 +15 283 321 0 864 277 0 17 547 0
 283 865 96 97 867 546 0 0 +17 99 0 551 549 866 97 865 288 0 553 -16 288 263 0 ?
865 530 296 286 0 0 1 17 866 0 551 99 552 71 102 524 0 0 -15 551 317 0 866 282 0
 17 552 0 551 866 549 100 868 305 0 534 +17 102 0 855 70 88 100 866 524 0 860 +1
7 860 0 327 869 523 100 70 518 0 552 -15 327 153 0 523 324 0 17 869 0 327 517 86
0 67 534 520 0 537 -17 523 0 327 860 517 68 861 521 0 532 +17 517 0 327 523 869
 72 83 515 0 861 +17 861 0 325 862 532 72 523 521 0 0 -17 83 0 331 373 74 67 517
 515 0 869 -17 373 0 331 372 83 84 537 535 0 303 -17 74 0 331 83 77 72 862 525 0
 517 +17 77 0 331 74 60 75 362 514 0 862 +16 514 2141 0 ?77 374 515 511 374 374
 1 17 537 0 318 870 303 67 373 535 0 871 +17 303 0 318 537 872 84 96 296 0 864 +
15 318 325 0 537 281 0 17 872 0 318 303 870 94 93 544 0 867 -17 96 0 283 547 864
 94 303 296 0 872 -17 870 0 318 872 537 91 871 304 0 873 -17 93 0 874 90 867 91
 872 544 0 870 +17 867 0 874 93 553 94 547 546 0 0 -15 874 333 0 553 271 0 17 55
3 0 874 867 90 97 549 548 0 547 -17 90 0 874 553 93 81 873 542 0 868 +17 873 0 8
75 871 868 91 90 542 0 0 -17 868 0 875 873 534 81 552 305 0 549 -15 875 329 0 53
4 275 0 17 534 0 875 868 871 100 869 520 0 0 +16 305 257 0 ?552 304 542 290 0 0
 1 16 304 279 0 ?871 296 305 297 0 0 1 17 871 0 875 534 873 67 870 304 0 0 +14 2
75 326 876 ?271 281 875 6 284 -0 0 271 281 29 81 1 876 4193 332 275 0 0 257 223
 877 80 7 CCCCCDI12 legal_owners0 17 1 lCZ1 332 0 878 8001 0 0 0 0 3 5 0 0 0 FFF
FTFTFFFFFFFFFF2 81 1 257 4192 332 255 0 0 317 876 879 81 1 223 4194 332 221 0 0
 876 880 881 83 255 3 877 .972549019607843 .529411764705882 .00392156862745098 8
1 1 880 4195 332 282 0 0 223 347 882 83 3 881 .972549019607843 .529411764705882
 .00392156862745098 14 282 314 880 ?277 320 551 6 278 +0 0 277 320 29 81 1 347 4
196 332 345 0 0 880 270 883 83 3 882 .972549019607843 .529411764705882 .00392156
862745098 81 1 270 4197 332 267 0 0 347 262 884 83 3 883 .972549019607843 .52941
1764705882 .00392156862745098 81 1 262 4198 332 253 0 0 270 242 885 83 3 884 .49
8039215686275 .498039215686275 .498039215686275 81 1 242 4199 332 239 0 0 262 88
6 887 83 3 885 .972549019607843 .529411764705882 .00392156862745098 81 1 886 420
0 332 147 0 0 242 230 888 83 3 887 .972549019607843 .529411764705882 .0039215686
2745098 14 147 3388 886 ?889 146 41 6 22 +0 0 889 146 29 81 1 230 4202 332 224 0
 0 886 890 891 83 3 888 .498039215686275 .498039215686275 .498039215686275 81 1
 890 4203 332 146 0 0 230 238 892 83 3 891 .972549019607843 .529411764705882 .00
392156862745098 14 146 2779 890 ?147 345 34 6 343 -0 0 147 345 29 81 1 238 4204
 332 235 0 0 890 323 893 83 3 892 .498039215686275 .498039215686275 .49803921568
6275 81 1 323 4205 332 320 0 0 238 336 894 83 3 893 .972549019607843 .5294117647
05882 .00392156862745098 81 1 336 4206 332 259 0 0 323 326 895 83 3 894 .4980392
15686275 .498039215686275 .498039215686275 81 1 326 4207 332 324 0 0 336 274 896
 83 3 895 .972549019607843 .529411764705882 .00392156862745098 81 1 274 4208 332
 271 0 0 326 340 897 83 3 896 .498039215686275 .498039215686275 .498039215686275
 83 3 897 .972549019607843 .529411764705882 .00392156862745098 14 889 4164 0 ?89
8 147 899 6 900 -0 0 898 147 29 51 22 3394 0 147 23 339 901 +.228598 .0377743501
1521215 -.2664208715273245 1 0 0 .1658913008246745 0 0 -1 51 23 3862 0 1 900 22
 902 -.3175 1.671393995419765 -.283317266623011 0 -1 218547839493141e-30 .13208
 0 -218547839493141e-30 -1 50 339 2800 0 330 22 343 0 +.2286 .0508 -.3175 -1 0 0
 0 0 1 141 901 8 901 901 22 51 900 4179 0 889 903 23 0 +1.27254 0 46270217688784
9e-31 1 0 0 .08255 0 0 -1 141 902 8 902 902 23 50 903 4181 0 898 0 900 0 +1.2725
4 0 277555756156289e-31 1 0 0 0 1 0 14 898 4169 0 ?0 889 904 6 903 +0 0 0 889 29
 15 904 4172 0 905 898 0 17 905 0 904 905 905 0 906 158 0 0 +17 906 0 899 906 90
6 0 905 158 0 0 -16 158 4156 0 ?905 44 156 157 0 0 1 16 156 4159 0 ?907 158 0 15
4 0 0 1 31 157 4183 0 158 0 154 0 +1.27254 0 462702176887849e-31 1 0 0 0 0 -1 .0
8255 17 907 0 908 907 907 0 909 156 0 0 +15 908 4168 0 907 889 0 17 909 0 208 90
9 909 0 907 156 0 0 -15 208 4148 0 909 204 628 15 899 4167 0 906 889 908 81 1 31
7 4191 332 281 0 0 857 257 910 83 3 879 .498039215686275 .498039215686275 .49803
9215686275 81 1 857 4190 332 191 0 0 199 317 911 83 3 910 .972549019607843 .5294
11764705882 .00392156862745098 81 1 199 4189 332 195 0 0 0 857 912 83 3 911 .498
039215686275 .498039215686275 .498039215686275 83 3 912 .972549019607843 .529411
764705882 .00392156862745098 79 255 15 878 SDL/TYSA_COLOUR17 63 0 858 86 362 61
 187 177 0 372 -81 1 280 4211 332 277 0 0 212 333 913 83 3 856 .498039215686275
 .498039215686275 .498039215686275 81 1 212 4210 332 207 0 0 340 280 914 83 3 91
3 .972549019607843 .529411764705882 .00392156862745098 83 3 914 .972549019607843
 .529411764705882 .00392156862745098 15 854 666 0 915 669 916 17 915 0 854 915 9
15 0 508 506 0 0 -15 916 667 0 505 669 0 17 505 0 916 505 505 0 917 503 0 0 +17
 917 0 670 917 917 0 505 503 0 0 -15 670 672 0 917 665 918 15 918 673 0 502 665
 0 17 502 0 918 502 502 0 919 500 0 0 +17 919 0 920 919 919 0 502 500 0 0 -15 92
0 660 0 919 255 852 17 508 0 667 508 508 0 915 506 0 0 +17 573 0 921 573 573 0 5
70 509 0 0 -15 921 585 0 573 255 920 15 568 521 0 567 253 0 17 569 0 268 569 569
 0 567 563 0 0 -15 268 501 0 569 263 557 15 557 445 0 554 263 0 15 565 441 0 564
 267 0 17 566 0 276 566 566 0 564 512 0 0 -15 276 421 0 566 271 874 17 559 0 260
 559 559 0 922 555 0 0 +15 260 525 0 559 255 921 17 922 0 264 922 922 0 559 555
 0 0 -15 264 520 0 922 253 568 17 558 0 272 558 558 0 554 550 0 0 -15 272 440 0
 558 267 565 17 142 0 331 148 367 130 139 144 0 42 -17 139 0 135 136 132 47 142
 144 0 0 +17 148 0 331 54 142 33 42 149 0 0 -17 54 0 331 57 148 52 45 163 0 364
 +17 57 0 331 60 54 55 364 365 0 359 -17 45 0 338 43 366 33 54 163 0 148 -15 338
 2786 0 43 330 0 17 43 0 338 36 45 12 39 44 0 0 -17 366 0 338 45 36 52 129 161 0
 0 -17 36 0 338 366 43 127 32 37 0 35 +17 129 0 337 46 364 127 366 161 0 36 +17
 46 0 337 51 129 40 35 151 0 136 -17 35 0 34 32 137 127 46 151 0 0 +17 170 0 349
 170 170 0 353 168 0 0 +15 349 2454 0 170 345 0 81 1 351 4218 332 200 0 0 266 20
6 923 81 1 266 4217 332 263 0 0 227 351 924 81 1 206 4219 332 204 0 0 351 0 925
 83 3 923 .972549019607843 .529411764705882 .00392156862745098 83 3 925 .9725490
19607843 .529411764705882 .00392156862745098 81 1 227 4216 332 219 0 0 234 266 9
26 83 3 924 .498039215686275 .498039215686275 .498039215686275 81 1 234 4215 332
 231 0 0 334 227 927 83 3 926 .972549019607843 .529411764705882 .003921568627450
98 81 1 334 4214 332 330 0 0 329 234 928 83 3 927 .972549019607843 .529411764705
882 .00392156862745098 83 3 928 .498039215686275 .498039215686275 .4980392156862
75 83 3 342 .498039215686275 .498039215686275 .498039215686275 83 3 335 .4980392
15686275 .498039215686275 .498039215686275 141 319 290 929 929 284 141 929 297 3
19 319 284 40 2 311 0 1 2 .002216474303858645 .02749031456635845 ??.762 .2035864
47855725 -.1806765158129175 .635 .254 -.254 41 1 312 L?.762 .203586447855725 -.1
806765158129175 41 1 313 L?.635 .254 -.254 204 8 314 4 5.03556592001864 -.127 -.
146646968374165 .203586447855725 5.11899185798741 0 0 .254 40 2 306 0 1 2 .00221
647430385871 .02749031456635845 ??.762 .203586447855725 .1806765158129175 .635 .
254 .254 41 1 307 L?.762 .203586447855725 .1806765158129175 41 1 308 L?.635 .254
 .254 204 8 309 4 4.389212040750745 -.127 .146646968374165 .203586447855725 4.30
578610278197 0 0 .254 40 2 291 0 1 2 .00221647430385871 .02749031456635845 ??.76
2 -.203586447855725 .1806765158129175 .635 -.254 .254 41 1 292 L?.762 -.20358644
7855725 .1806765158129175 41 1 293 L?.635 -.254 .254 204 8 294 4 1.8939732664288
4 -.127 .146646968374165 -.203586447855725 1.977399204397615 0 0 -.254 141 285 2
86 930 930 278 141 930 290 285 285 278 141 194 178 194 194 181 19 18 170 0 1 0 1
0 6 0 S0 40 7 24 0 1 7 .01394819331565318 .392567863670599 ??.2286 .157739124143
8615 -.381 .277924341795472 .1220196007854494 -.409328748947751 .29985181801943
 .1131231298937862 -.4142129047198575 .320203060855991 .1108099491182326 -.41536
96042093205 .3402701194269805 .1146590858639032 -.4134197187954465 .369253989679
6435 .129214760158329 -.4048353761879615 .4064 .1577391241438615 -.381 41 1 25 L
?.2286 .1577391241438615 -.381 41 1 26 L?.4064 .1577391241438615 -.381 204 28 27
 4 .808356335609381 2000000000002e-18 5.54482394676693 1.513654871275905 .532668
62519 .0493263417954721 5.97887630637049 1.549374394634315 .471480474094181 .071
25381801943 6.14916711853563 1.55827086552598 .455890206840152 .091605060855991
 .0204667593777587 1.56058404630153 .481901027598648 .1116721194269806 .17326200
13182365 1.55673490955586 .583809889166226 .1406559896796434 .402628715858201 1.
542179235261435 .808356335609381 .177802 .738361360412651 1.513654871275905 74 4
 CI16 index_map_offset0 0 1 dCCZ20 16 4 0 0 206 931 14 2 0 0 0 0 0 0 0 0 0 0 0 0
 0 0 0 0 81 1 931 4201 932 1 0 14 0 0 933 81 1 14 4220 934 1 931 2 0 0 935 80 1
 934 13 936 8038 0 0 0 0 0 0 0 0 0 TTTTTTTTTTTTTFTFT10 98 255 6 935 80 97 114 11
6 32 49 79 14 936 SDL/TYSA_UNAME80 1 932 332 937 8040 0 0 0 0 3 5 0 0 0 TTTFFFFF
FFFFFFFFF2 83 3 933 .615686274509804 .811764705882353 .929411764705882 79 17 937
 SDL/TYSA_COLOUR_280 1 13 938 939 8017 0 0 0 0 0 0 0 0 0 TTTTTTTTTTTTTFTFT3 84 2
55 6 15 Part 179 13 939 SDL/TYSA_NAME1 0 
