**ABCDEFGHIJKLMNOPQRSTUVWXYZabcdefghijklmnopqrstuvwxyz**************************
**PARASOLID !"#$%&'()*+,-./:;<=>?@[\]^_`{|}~0123456789**************************
**PART1;
MC=unknown;
MC_MODEL=unknown;
MC_ID=unknown;
OS=unknown;
OS_RELEASE=unknown;
FRU=Parasolid 36.0.180;
APPL=Onshape;
SITE=unknown;
USER=unknown;
FORMAT=text;
GUISE=transmit;
KEY=BTGapi::writeModels_.xmt;
FILE=BTGapi::writeModels_.xmt;
DATE=2024-06-30T06:56:52 (UTC);
**PART2;
SCH=SCH_3600180_36001;
USFLD_SIZE=0;
**PART3;
**END_OF_HEADER*****************************************************************
T51 : TRANSMIT FILE created by modeller version 360018023 SCH_3600180_36001_1300
6231 0 12 36 CCCI7 lattice222 0 CCCI4 mesh1006 0 I8 polyline1008 0 CCCCCCCDI5 ow
ner1040 0 CCCI16 boundary_lattice222 0 CCCI13 boundary_mesh1006 0 I17 boundary_p
olyline1008 0 CCCA16 index_map_offset0 0 1 dA9 index_map82 0 A17 node_id_index_m
ap82 0 A20 schema_embedding_map82 0 A5 child12 0 A14 lowest_node_id0 0 1 dA16 me
sh_offset_data206 0 Z1 3221 2 3 0 0 0 0 0 0 0 1e3 1e-8 0 4 5 1 0 1 2 6 0 7 8 9 0
 0 10 11 12 0 0 0 0 0 0 0 81 255 1 2 3221 13 1 14 0 0 0 15 70 11 CI9 list_type0
 0 1 uI10 notransmit0 0 1 lCCCDCCDI12 finger_index0 0 1 dI12 finger_block1012 0
 CZ3 0 4 T1 0 0 4 20 1 16 16 13 255 6 39 0 1 0 17 0 0 18 0 51 255 7 1988 0 19 20
 0 0 +.127 -1474514954580286e-32 .11176 -1 0 0 .00762 0 0 1 31 255 8 1959 0 11 2
1 0 0 -.1143 -1474514954580286e-32 .11176 1 0 0 0 0 -1 .00762 29 255 9 2211 0 12
 22 0 .2636183303818855 -.0500158667564392 .08636 19 9 CCCCCCI5 frame230 0 CA5 o
wner12 0 Z10 13 0 1 18 0 23 0 V0 16 255 11 1953 0 ?24 0 25 8 0 0 1 18 255 12 220
7 0 26 0 27 9 ?1 17 255 26 0 28 29 30 12 31 32 0 33 +18 27 2187 0 34 12 35 22 ?1
 17 34 0 28 36 29 27 37 38 0 39 -18 35 1943 0 40 27 41 42 ?1 29 22 2191 0 27 42
 9 .2636183303818855 -.0500158667564392 -.06096 29 42 1946 0 35 43 22 .1143 -.00
762 .11176 29 43 1932 0 41 44 42 .127 -.00762 .11176 18 41 1929 0 45 35 46 43 ?1
 29 44 1919 0 46 47 43 .127 .00762 .11176 18 46 1916 0 48 41 49 44 ?1 29 47 1915
 0 49 50 44 .1143 .00762 .11176 18 49 1912 0 24 46 51 47 ?1 29 50 1745 0 51 52 4
7 .127 .00762 .08636 18 51 1743 0 53 49 54 50 ?1 29 52 1742 0 54 55 50 .127 -.00
762 .08636 18 54 1740 0 56 51 57 52 ?1 29 55 1726 0 57 58 52 .1143 -.00762 .0863
6 18 57 1722 0 59 54 60 55 ?1 29 58 1721 0 60 61 55 .1143 .00762 .08636 18 60 17
17 0 62 57 63 58 ?1 29 61 1507 0 63 64 58 .1143 .00762 -.11176 18 63 1504 0 65 6
0 66 61 ?1 29 64 1493 0 66 67 61 .127 .00762 -.11176 18 66 1490 0 68 63 69 64 ?1
 29 67 1480 0 69 70 64 .127 -.00762 -.11176 18 69 1477 0 71 66 72 67 ?1 29 70 14
76 0 72 73 67 .1143 -.00762 -.11176 18 72 1473 0 74 69 75 70 ?1 29 73 1306 0 75
 76 70 .127 -.00762 -.08636 18 75 1304 0 77 72 78 73 ?1 29 76 1303 0 78 79 73 .1
27 .00762 -.08636 18 78 1301 0 80 75 81 76 ?1 29 79 1287 0 81 82 76 .1143 -.0076
2 -.08636 18 81 1283 0 83 78 84 79 ?1 29 82 1282 0 84 85 79 .1143 .00762 -.08636
 18 84 1278 0 86 81 87 82 ?1 29 85 596 0 87 88 82 .1143 .1114130979732634 -.0609
6 18 87 592 0 89 84 90 85 ?1 29 88 591 0 90 91 85 .1143 .0931179381215027 -.0863
6 18 90 587 0 92 87 93 88 ?1 29 91 586 0 93 94 88 .1143 -.0931179381215027 -.086
36 18 93 582 0 95 90 96 91 ?1 29 94 120 0 96 97 91 .1143 -.1114130979732634 .060
96 18 96 116 0 98 93 99 94 ?1 29 97 356 0 99 100 94 .1143 .1114130979732634 .060
96 18 99 235 0 101 96 102 97 ?1 29 100 357 0 102 103 97 .1143 -.0931179381215027
 .08636 18 102 236 0 104 99 105 100 ?1 29 103 358 0 105 106 100 .1143 .093117938
1215027 .08636 18 105 237 0 107 102 108 103 ?1 29 106 359 0 109 110 103 .1143 .1
9685 .08636 18 109 267 0 111 112 113 106 ?1 29 110 360 0 113 114 106 .1469536105
720762 .235765057710444 .08636 18 113 263 0 115 109 116 110 ?1 29 114 361 0 116
 117 110 .172353610572076 .235765057710444 .08636 18 116 259 0 118 113 119 114 ?
1 29 117 362 0 119 120 114 .2636183303818855 .127 .08636 18 119 255 0 121 116 12
2 117 ?1 29 120 363 0 122 123 117 .2636183303818855 -.127 .08636 18 122 251 0 12
4 119 125 120 ?1 29 123 364 0 125 126 120 .172353610572076 -.235765057710444 .08
636 18 125 247 0 127 122 128 123 ?1 29 126 365 0 128 129 123 .1469536105720762 -
.235765057710444 .08636 18 128 243 0 130 125 131 126 ?1 29 129 366 0 131 132 126
 .1143 -.19685 .08636 18 131 269 0 133 128 134 129 ?1 29 132 367 0 108 135 129 .
1143 .19685 .06096 18 108 238 0 136 105 137 132 ?1 29 135 368 0 137 138 132 .146
9536105720762 .235765057710444 .06096 18 137 265 0 139 108 140 135 ?1 29 138 369
 0 140 141 135 .172353610572076 .235765057710444 .06096 18 140 261 0 142 137 143
 138 ?1 29 141 370 0 143 144 138 .2636183303818855 .127 .06096 18 143 257 0 145
 140 146 141 ?1 29 144 371 0 146 147 141 .2636183303818855 -.127 .06096 18 146 2
53 0 148 143 149 144 ?1 29 147 372 0 149 150 144 .172353610572076 -.235765057710
444 .06096 18 149 249 0 151 146 152 147 ?1 29 150 373 0 152 153 147 .14695361057
20762 -.235765057710444 .06096 18 152 245 0 154 149 112 150 ?1 29 153 374 0 112
 155 150 .1143 -.19685 .06096 18 112 241 0 156 152 109 153 ?1 29 155 831 0 134 1
57 153 .1143 -.1114130979732634 -.06096 18 134 711 0 158 131 159 155 ?1 29 157 8
35 0 160 161 155 .1143 .19685 -.08636 18 160 717 0 162 163 164 157 ?1 29 161 836
 0 164 165 157 .1469536105720762 .235765057710444 -.08636 18 164 721 0 166 160 1
67 161 ?1 29 165 837 0 167 168 161 .172353610572076 .235765057710444 -.08636 18
 167 725 0 169 164 170 165 ?1 29 168 838 0 170 171 165 .2636183303818855 .127 -.
08636 18 170 729 0 172 167 173 168 ?1 29 171 839 0 173 174 168 .2636183303818855
 -.127 -.08636 18 173 733 0 175 170 176 171 ?1 29 174 840 0 176 177 171 .1723536
10572076 -.235765057710444 -.08636 18 176 737 0 178 173 179 174 ?1 29 177 841 0
 179 180 174 .1469536105720762 -.235765057710444 -.08636 18 179 741 0 181 176 18
2 177 ?1 29 180 842 0 182 183 177 .1143 -.19685 -.08636 18 182 714 0 184 179 185
 180 ?1 29 183 843 0 159 186 180 .1143 .19685 -.06096 18 159 719 0 187 134 188 1
83 ?1 29 186 844 0 188 189 183 .1469536105720762 .235765057710444 -.06096 18 188
 723 0 190 159 191 186 ?1 29 189 845 0 191 192 186 .172353610572076 .23576505771
0444 -.06096 18 191 727 0 193 188 194 189 ?1 29 192 846 0 194 195 189 .263618330
3818855 .127 -.06096 18 194 731 0 196 191 197 192 ?1 29 195 847 0 197 198 192 .2
636183303818855 -.127 -.06096 18 197 735 0 199 194 200 195 ?1 29 198 848 0 200 2
01 195 .172353610572076 -.235765057710444 -.06096 18 200 739 0 202 197 203 198 ?
1 29 201 849 0 203 204 198 .1469536105720762 -.235765057710444 -.06096 18 203 74
3 0 205 200 163 201 ?1 29 204 850 0 163 206 201 .1143 -.19685 -.06096 18 163 745
 0 207 203 160 204 ?1 29 206 2393 0 185 208 204 .2636183303818855 -.050015866756
4392 .06096 18 185 2338 0 29 182 209 206 ?1 29 208 2395 0 209 210 206 .263618330
3818855 .0500158667564392 .06096 18 209 2321 0 211 185 212 208 ?1 29 210 2396 0
 212 213 208 .2636183303818855 .0500158667564392 -.06096 18 212 2323 0 214 209 2
15 210 ?1 29 213 2398 0 216 217 210 .2636183303818855 .0500158667564392 .08636 1
8 216 2324 0 218 219 220 213 ?1 29 217 2399 0 220 221 213 .2636183303818855 .050
0158667564392 -.08636 18 220 2330 0 222 216 223 217 ?1 29 221 2400 0 223 224 217
 .2636183303818855 -.0500158667564392 -.08636 18 223 2332 0 225 220 0 221 ?1 29
 224 2401 0 215 226 221 .2712383303818855 -.0500158667564392 .08636 18 215 2326
 0 31 212 227 224 ?1 29 226 2402 0 227 228 224 .2712383303818855 .05001586675643
92 .08636 18 227 2334 0 229 215 230 226 ?1 29 228 2403 0 230 231 226 .2712383303
818855 .0500158667564392 -.08636 18 230 2336 0 232 227 219 228 ?1 29 231 2404 0
 219 0 228 .2712383303818855 -.0500158667564392 -.08636 18 219 2328 0 233 230 21
6 231 ?1 17 233 0 28 30 36 219 225 234 0 235 -15 255 28 2360 0 36 236 0 17 30 0
 28 26 233 215 237 238 0 239 +17 36 0 28 233 34 223 240 241 0 242 -17 225 0 243
 244 235 223 233 234 0 36 +16 234 2302 0 ?225 32 245 246 0 0 1 17 235 0 243 225
 247 219 232 248 0 237 -15 243 1310 0 77 249 250 17 247 0 243 235 251 230 222 24
5 0 252 -17 232 0 253 229 237 230 235 248 0 247 +16 248 2308 0 ?232 254 238 255
 0 0 1 17 237 0 253 232 239 219 30 238 0 0 -15 253 2368 0 229 256 0 17 239 0 253
 237 229 215 257 258 0 0 -16 238 2291 0 ?30 248 259 260 0 0 1 16 259 2269 0 ?261
 238 262 263 264 262 1 30 255 260 2392 0 238 265 255 0 +.2712383303818855 -.0500
158667564392 -.07366 0 0 1 31 265 2660 0 266 267 260 0 +0 0 349942822856356e-32
 -1 0 0 0 0 1 .05715 30 255 2391 0 248 260 268 0 +.2712383303818855 0 -.08636 0
 1 0 30 268 2390 0 254 255 269 0 +.2712383303818855 .0500158667564392 -.07366 0
 0 1 16 254 2305 0 ?229 258 248 268 0 0 1 30 269 2389 0 258 268 270 0 +.27123833
03818855 -.0635 .08636 0 1 0 16 258 2285 0 ?257 245 254 269 0 0 1 30 270 2388 0
 241 269 263 0 +.2636183303818855 -.0500158667564392 -.07366 0 0 1 16 241 2261 0
 ?240 264 38 270 271 38 1 30 263 2386 0 259 270 272 0 +.2636183303818855 .050015
8667564392 -.07366 0 0 1 30 272 2384 0 32 263 273 0 +.2712383303818855 -.0500158
667564392 .08636 -1 0 0 16 32 2294 0 ?26 274 234 272 0 0 1 30 273 2383 0 274 272
 275 0 +.2712383303818855 .0500158667564392 .08636 -1 0 0 16 274 2288 0 ?276 277
 32 273 0 0 1 30 275 2382 0 245 273 246 0 +.2712383303818855 .0500158667564392 -
.08636 -1 0 0 16 245 2282 0 ?222 234 258 275 0 0 1 30 246 2381 0 234 275 278 0 +
.2712383303818855 -.0500158667564392 -.08636 -1 0 0 30 278 1878 0 279 246 280 0
 +.127 .0635 .08636 0 -1 0 16 279 1769 0 ?56 281 282 278 0 0 1 30 280 1877 0 281
 278 283 0 +.127 .00762 .10287 0 0 1 16 281 1801 0 ?284 285 279 280 0 0 1 30 283
 1875 0 285 280 286 0 +.127 -.00762 .10287 0 0 1 16 285 1795 0 ?287 288 281 283
 0 0 1 30 286 1873 0 289 283 290 0 +.1143 .00762 .10287 0 0 1 16 289 1779 0 ?291
 282 277 286 0 0 1 30 290 1871 0 282 286 292 0 +.1143 -.00762 .10287 0 0 1 16 28
2 1809 0 ?293 279 289 290 0 0 1 30 292 1870 0 288 290 294 0 +.127 -.00762 .08636
 -1 0 0 16 288 1774 0 ?59 295 285 292 0 0 1 30 294 1867 0 295 292 296 0 +.127 .0
0762 .08636 -1 0 0 16 295 1784 0 ?297 298 288 294 0 0 1 30 296 1439 0 299 294 30
0 0 +.127 .0635 -.08636 0 -1 0 16 299 1362 0 ?301 302 303 296 0 0 1 30 300 1438
 0 302 296 304 0 +.127 -.00762 -.10287 0 1050710766793946e-31 -1 16 302 1367 0 ?
305 306 299 300 0 0 1 30 304 1436 0 306 300 307 0 +.127 .00762 -.10287 0 1050710
766793946e-31 -1 16 306 1356 0 ?308 309 302 304 0 0 1 30 307 1434 0 298 304 310
 0 +.1143 -.00762 -.10287 0 1050710766793946e-31 -1 16 298 1340 0 ?311 303 295 3
07 0 0 1 30 310 1432 0 303 307 312 0 +.1143 .00762 -.10287 0 1050710766793946e-3
1 -1 16 303 1370 0 ?313 299 298 310 0 0 1 30 312 1431 0 309 310 314 0 +.127 .007
62 -.08636 -1 0 0 16 309 1335 0 ?86 315 306 312 0 0 1 30 314 1428 0 315 312 316
 0 +.127 -.00762 -.08636 -1 0 0 16 315 1345 0 ?317 318 309 314 0 0 1 31 316 1136
 0 319 314 320 0 +.159653610572076 .225078210910444 -.08636 0 0 -1 -1 0 0 .00762
 16 319 1039 0 ?321 322 318 316 0 0 1 31 320 1134 0 318 316 323 0 +.159653610572
076 -.225078210910444 -.08636 0 0 1 -1 0 0 .00762 16 318 1076 0 ?324 319 315 320
 0 0 1 31 323 1133 0 322 320 325 0 -.159653610572076 -.225078210910444 -.06096 0
 0 -1 -1 0 0 .00762 16 322 1084 0 ?326 327 319 323 0 0 1 31 325 1130 0 327 323 3
28 0 +.159653610572076 .225078210910444 -.06096 0 0 -1 -1 0 0 .00762 16 327 1036
 0 ?329 330 322 325 0 0 1 30 328 830 0 331 325 332 0 +.1143 .0635 -.06096 0 -1 0
 16 331 679 0 ?333 334 335 328 336 335 1 30 332 829 0 334 328 337 0 +.1306268052
86038 -.216307528855222 -.06096 .64278760968654 -.766044443118978 0 16 334 690 0
 ?338 339 331 332 0 0 1 30 337 828 0 339 332 340 0 +.159653610572076 -.235765057
710444 -.06096 1 0 0 16 339 693 0 ?341 342 334 337 0 0 1 30 340 827 0 342 337 34
3 0 +.217985970476981 -.181382528855222 -.06096 .642787609686539 .76604444311897
8 0 16 342 696 0 ?344 345 339 340 0 0 1 30 343 826 0 346 340 347 0 +.26361833038
18855 -.0635 -.06096 0 1 0 16 346 699 0 ?348 349 350 343 345 350 1 30 347 825 0
 349 343 351 0 +.217985970476981 .181382528855222 -.06096 .642787609686539 -.766
044443118978 0 16 349 649 0 ?352 353 346 347 0 0 1 30 351 824 0 353 347 354 0 +.
159653610572076 .235765057710444 -.06096 1 0 0 16 353 643 0 ?355 356 349 351 0 0
 1 30 354 823 0 356 351 357 0 +.130626805286038 .216307528855222 -.06096 .642787
60968654 .766044443118978 0 16 356 637 0 ?358 359 353 354 0 0 1 30 357 822 0 360
 354 361 0 +.1143 .0635 -.08636 0 -1 0 16 360 628 0 ?362 363 364 357 365 364 1 3
0 361 821 0 363 357 366 0 +.130626805286038 -.216307528855222 -.08636 .642787609
68654 -.766044443118978 0 16 363 673 0 ?367 368 360 361 0 0 1 30 366 820 0 368 3
61 369 0 +.159653610572076 -.235765057710444 -.08636 1 0 0 16 368 667 0 ?370 371
 363 366 0 0 1 30 369 819 0 371 366 372 0 +.217985970476981 -.181382528855222 -.
08636 .642787609686539 .766044443118978 0 16 371 661 0 ?373 374 368 369 0 0 1 30
 372 818 0 375 369 376 0 +.2636183303818855 -.0635 -.08636 0 1 0 16 375 655 0 ?2
42 377 374 372 374 374 1 30 376 817 0 377 372 378 0 +.217985970476981 .181382528
855222 -.08636 .642787609686539 -.766044443118978 0 16 377 708 0 ?379 380 375 37
6 0 0 1 30 378 816 0 380 376 381 0 +.159653610572076 .235765057710444 -.08636 1
 0 0 16 380 705 0 ?382 383 377 378 0 0 1 30 381 815 0 383 378 384 0 +.1306268052
86038 .216307528855222 -.08636 .64278760968654 .766044443118978 0 16 383 702 0 ?
385 336 380 381 0 0 1 30 384 814 0 386 381 387 0 +.1143 .19685 -.06096 0 0 -1 16
 386 634 0 ?162 388 389 384 0 0 1 30 387 813 0 389 384 390 0 +.1469536105720762
 .235765057710444 -.06096 0 0 -1 16 389 640 0 ?166 386 391 387 0 0 1 30 390 812
 0 391 387 392 0 +.172353610572076 .235765057710444 -.06096 0 0 -1 16 391 646 0
 ?169 389 393 390 0 0 1 30 392 811 0 393 390 394 0 +.2636183303818855 .127 -.060
96 0 0 -1 16 393 652 0 ?395 391 396 392 0 0 1 30 394 810 0 396 392 397 0 +.26361
83303818855 -.127 -.06096 0 0 -1 16 396 658 0 ?175 393 398 394 0 0 1 30 397 809
 0 398 394 399 0 +.172353610572076 -.235765057710444 -.06096 0 0 -1 16 398 664 0
 ?178 396 400 397 0 0 1 30 399 808 0 400 397 401 0 +.1469536105720762 -.23576505
7710444 -.06096 0 0 -1 16 400 670 0 ?181 398 359 399 0 0 1 30 401 807 0 359 399
 402 0 +.1143 -.19685 -.06096 0 0 -1 16 359 676 0 ?403 400 356 401 0 0 1 31 402
 561 0 404 401 405 0 +.159653610572076 -.2250782137004115 .08636 0 0 1 1 0 0 .00
762 16 404 494 0 ?406 407 388 402 0 0 1 31 405 559 0 388 402 408 0 +.15965361057
2076 .2250782137004115 .08636 0 0 -1 1 0 0 .00762 16 388 518 0 ?409 404 386 405
 0 0 1 31 408 558 0 407 405 410 0 -.159653610572076 .2250782137004115 .06096 0 0
 1 1 0 0 .00762 16 407 523 0 ?411 412 404 408 0 0 1 31 410 557 0 412 408 413 0 +
.159653610572076 -.2250782137004115 .06096 0 0 1 1 0 0 .00762 16 412 488 0 ?414
 415 407 410 0 0 1 30 413 354 0 416 410 417 0 +.1143 .0635 .06096 0 -1 0 16 416
 146 0 ?418 419 420 413 420 421 1 30 417 353 0 419 413 422 0 +.130626805286038 -
.216307528855222 .06096 .64278760968654 -.766044443118978 0 16 419 161 0 ?423 42
4 416 417 0 0 1 30 422 352 0 424 417 425 0 +.159653610572076 -.235765057710444 .
06096 1 0 0 16 424 167 0 ?426 427 419 422 0 0 1 30 425 351 0 427 422 428 0 +.217
985970476981 -.181382528855222 .06096 .642787609686539 .766044443118978 0 16 427
 173 0 ?429 430 424 425 0 0 1 30 428 350 0 431 425 432 0 +.2636183303818855 -.06
35 .06096 0 1 0 16 431 179 0 ?433 434 430 428 430 277 1 30 432 349 0 434 428 435
 0 +.217985970476981 .181382528855222 .06096 .642787609686539 -.766044443118978
 0 16 434 209 0 ?436 437 431 432 0 0 1 30 435 348 0 437 432 438 0 +.159653610572
076 .235765057710444 .06096 1 0 0 16 437 206 0 ?439 440 434 435 0 0 1 30 438 347
 0 440 435 441 0 +.130626805286038 .216307528855222 .06096 .64278760968654 .7660
44443118978 0 16 440 203 0 ?442 443 437 438 0 0 1 30 441 346 0 444 438 445 0 +.1
143 .0635 .08636 0 -1 0 16 444 212 0 ?446 447 415 441 448 449 1 30 445 345 0 447
 441 450 0 +.130626805286038 -.216307528855222 .08636 .64278760968654 -.76604444
3118978 0 16 447 223 0 ?451 452 444 445 0 0 1 30 450 344 0 452 445 453 0 +.15965
3610572076 -.235765057710444 .08636 1 0 0 16 452 226 0 ?454 455 447 450 0 0 1 30
 453 343 0 455 450 456 0 +.217985970476981 -.181382528855222 .08636 .64278760968
6539 .766044443118978 0 16 455 229 0 ?457 458 452 453 0 0 1 30 456 342 0 459 453
 460 0 +.2636183303818855 -.0635 .08636 0 1 0 16 459 232 0 ?461 462 458 456 458
 458 1 30 460 341 0 462 456 463 0 +.217985970476981 .181382528855222 .08636 .642
787609686539 -.766044443118978 0 16 462 185 0 ?464 465 459 460 0 0 1 30 463 340
 0 465 460 466 0 +.159653610572076 .235765057710444 .08636 1 0 0 16 465 191 0 ?4
67 468 462 463 0 0 1 30 466 339 0 468 463 469 0 +.130626805286038 .2163075288552
22 .08636 .64278760968654 .766044443118978 0 16 468 197 0 ?470 420 465 466 0 0 1
 30 469 338 0 443 466 471 0 +.1143 .19685 .06096 0 0 1 16 443 200 0 ?111 472 440
 469 0 0 1 30 471 337 0 472 469 473 0 +.1469536105720762 .235765057710444 .06096
 0 0 1 16 472 194 0 ?115 474 443 471 0 0 1 30 473 336 0 474 471 475 0 +.17235361
0572076 .235765057710444 .06096 0 0 1 16 474 188 0 ?118 476 472 473 0 0 1 30 475
 335 0 476 473 477 0 +.2636183303818855 .127 .06096 0 0 1 16 476 182 0 ?478 479
 474 475 0 0 1 30 477 334 0 479 475 480 0 +.2636183303818855 -.127 .06096 0 0 1
 16 479 176 0 ?124 481 476 477 0 0 1 30 480 333 0 481 477 482 0 +.17235361057207
6 -.235765057710444 .06096 0 0 1 16 481 170 0 ?127 483 479 480 0 0 1 30 482 332
 0 483 480 484 0 +.1469536105720762 -.235765057710444 .06096 0 0 1 16 483 164 0
 ?130 485 481 482 0 0 1 30 484 331 0 485 482 486 0 +.1143 -.19685 .06096 0 0 1 1
6 485 158 0 ?487 488 483 484 0 0 1 31 486 95 0 489 484 490 0 +.1143 0 1983009329
51935e-31 1 0 0 0 0 -1 .127 16 489 73 0 ?107 491 492 486 488 492 1 31 490 94 0 4
93 486 494 0 +.0508 0 198300932951935e-31 1 0 0 0 0 -1 .127 16 493 58 0 ?495 421
 496 490 0 0 1 31 494 9 0 496 490 497 0 +.0508 0 1205358612060782e-32 1 0 0 0 0
 -1 .19685 16 496 7 0 ?498 493 491 494 0 0 1 31 497 33 0 491 494 499 0 +0 0 1205
358612060782e-32 1 0 0 0 0 -1 .19685 16 491 28 0 ?500 496 489 497 0 0 1 30 499 1
483 0 501 497 502 0 -.127 -.00762 -.11176 -1 0 0 16 501 1481 0 ?503 504 449 499
 0 0 1 31 502 1496 0 504 499 505 0 +.127 2668805347656625e-33 -.11176 1 0 0 0 0
 -1 .00762 16 504 1494 0 ?68 506 501 502 0 0 1 30 505 1510 0 506 502 507 0 +.127
 .00762 -.11176 -1 0 0 16 506 1508 0 ?508 509 504 505 0 0 1 31 507 1520 0 509 50
5 510 0 -.1143 934081871679819e-33 -.11176 1 0 0 0 0 -1 .00762 16 509 1514 0 ?74
 511 506 507 0 0 1 30 510 1922 0 511 507 512 0 -.127 .00762 .11176 -1 0 0 16 511
 1920 0 ?513 514 509 510 0 0 1 31 512 1935 0 514 510 21 0 +.127 -147451495458028
6e-32 .11176 1 0 0 0 0 -1 .00762 16 514 1933 0 ?45 25 511 512 0 0 1 30 21 1949 0
 25 512 8 0 +.127 -.00762 .11176 -1 0 0 16 25 1947 0 ?515 11 514 21 0 0 1 17 515
 0 516 517 287 35 518 25 0 293 +15 516 1850 0 287 519 0 17 517 0 516 520 515 57
 293 282 0 0 -17 287 0 516 515 520 41 521 285 0 518 +17 518 0 522 48 40 41 515 2
5 0 0 -17 293 0 523 24 524 35 517 282 0 0 +15 523 127 0 524 525 0 17 24 0 523 62
 293 49 40 11 0 291 +17 524 0 523 293 526 57 104 448 0 517 -17 526 0 523 524 527
 102 528 492 0 0 +17 104 0 529 133 59 102 524 448 0 530 +16 448 1723 0 ?104 449
 421 441 415 444 1 16 449 126 0 ?531 501 448 441 444 415 1 16 421 121 0 ?532 448
 493 413 416 420 1 16 415 220 0 ?133 444 412 441 449 448 1 17 133 0 529 451 104
 131 530 415 0 487 +15 529 1749 0 53 533 534 17 451 0 529 454 133 128 535 447 0
 0 +17 530 0 536 537 487 102 133 415 0 538 -17 487 0 536 530 156 131 539 485 0 5
35 +15 536 282 0 530 540 0 17 156 0 536 487 537 112 98 420 0 539 +17 539 0 541 4
23 535 112 487 485 0 542 -17 535 0 541 539 130 131 451 447 0 0 -15 541 286 0 535
 543 0 17 130 0 541 535 423 128 154 483 0 544 +17 423 0 541 130 539 152 542 419
 0 545 +17 154 0 546 426 544 152 130 483 0 423 -17 544 0 546 154 127 128 454 452
 0 451 -15 546 290 0 544 547 0 17 127 0 546 544 426 125 151 481 0 548 +17 454 0
 529 457 451 125 544 452 0 0 +17 457 0 529 461 454 122 548 455 0 0 +17 461 0 529
 31 457 12 549 459 0 0 +17 548 0 550 151 124 125 457 455 0 454 -15 550 294 0 548
 551 0 17 151 0 550 429 548 149 127 481 0 426 -17 124 0 550 548 429 122 148 479
 0 549 +17 429 0 550 124 151 146 552 427 0 553 +17 148 0 554 433 549 146 124 479
 0 429 -17 549 0 554 148 33 122 461 459 0 457 -15 554 298 0 433 17 0 17 33 0 554
 549 433 12 29 271 0 461 +17 433 0 554 33 148 185 553 431 0 0 +17 29 0 28 34 26
 185 33 271 0 37 -16 271 2311 0 ?33 38 555 270 38 241 1 16 38 2255 0 ?37 241 271
 270 241 271 1 16 555 2634 0 ?556 271 266 267 0 0 1 17 556 0 557 556 556 0 558 5
55 0 0 +16 266 2637 0 ?559 555 0 265 0 0 1 31 267 2661 0 555 0 265 0 +.0762 0 34
9942822856356e-32 -1 0 0 0 0 1 .05715 17 559 0 560 559 559 0 561 266 0 0 +15 560
 2646 0 559 562 0 17 561 0 563 561 561 0 559 266 0 0 -15 563 2625 0 561 564 565
 14 255 564 23 0 ?566 567 563 6 568 -0 0 566 567 23 15 565 27 0 569 564 0 17 569
 0 565 569 569 0 500 491 0 0 -17 500 0 570 500 500 0 569 491 0 0 +15 570 36 0 50
0 571 0 14 571 35 572 ?567 573 574 6 575 -0 0 567 573 23 81 1 572 3208 576 571 0
 0 577 578 579 14 567 1 580 ?564 571 581 6 582 +0 0 564 571 23 14 573 123 583 ?5
71 533 584 6 585 +525 586 571 533 23 15 574 34 0 587 571 570 51 575 38 0 571 568
 20 0 -.0508 0 1205358612060782e-32 -1 0 0 .19685 0 0 1 13 23 14 0 0 0 0 0 0 10
 17 14 17 2229 588 ?589 0 554 6 590 +591 591 589 0 23 81 1 588 3211 576 17 0 0 5
92 593 594 14 589 2204 595 ?525 17 596 6 597 -598 598 525 17 23 50 255 590 325 0
 591 599 600 0 +.2636183303818855 -.0635 .06096 1 0 0 0 0 -1 14 591 295 601 ?602
 551 603 6 590 +17 17 602 551 23 81 1 601 3192 576 591 0 0 604 605 606 14 602 29
9 607 ?608 591 609 6 599 -0 0 608 591 23 14 551 291 610 ?591 547 550 6 600 +0 0
 591 547 23 15 603 2233 0 611 591 0 17 611 0 603 145 612 209 218 264 0 613 -17 1
45 0 603 478 611 143 613 430 0 614 +17 612 0 603 611 478 216 121 458 0 0 -17 218
 0 615 616 617 216 611 264 0 276 +16 264 2277 0 ?218 262 241 263 262 259 1 17 61
3 0 618 619 436 209 145 430 0 0 -15 618 314 0 620 621 622 17 619 0 618 553 613 1
85 211 277 0 433 -17 436 0 618 613 439 143 623 434 0 0 +16 430 2223 0 ?145 431 4
27 428 277 431 1 16 277 2258 0 ?211 289 274 428 431 430 1 17 211 0 624 214 37 20
9 619 277 0 617 +15 624 2344 0 37 625 0 17 214 0 624 39 211 212 617 262 0 261 -1
7 37 0 624 211 39 185 34 38 0 619 +17 617 0 615 218 261 209 214 262 0 611 +15 61
5 2352 0 261 626 0 17 261 0 615 617 222 212 627 259 0 628 +16 262 2274 0 ?617 25
9 264 263 259 264 1 17 222 0 615 261 252 220 247 245 0 627 +17 627 0 596 172 628
 220 261 259 0 251 -17 628 0 596 627 629 212 196 345 0 630 -15 596 2203 0 627 58
9 0 17 629 0 596 628 172 194 395 393 0 352 -17 196 0 631 632 630 194 628 345 0 6
29 +16 345 2193 0 ?196 350 342 343 350 346 1 17 630 0 631 196 348 212 39 350 0 0
 +15 631 790 0 333 633 634 17 348 0 631 630 344 27 635 346 0 0 +17 39 0 624 37 2
14 27 630 350 0 240 -16 350 2188 0 ?630 346 345 343 346 345 1 17 240 0 636 635 2
42 27 36 241 0 348 +15 636 774 0 242 598 0 17 635 0 636 175 240 197 348 346 0 34
4 -17 242 0 636 240 175 223 244 375 0 0 +17 175 0 636 242 635 173 199 396 0 373
 +17 244 0 243 637 225 173 242 375 0 0 -17 637 0 243 638 244 176 373 371 0 0 -17
 638 0 243 639 637 179 370 368 0 0 -17 373 0 640 199 178 173 637 371 0 244 +15 6
40 778 0 373 641 0 17 199 0 640 642 373 197 175 396 0 635 -17 178 0 640 373 642
 176 202 398 0 370 +17 642 0 640 178 199 200 344 342 0 341 -17 202 0 643 644 370
 200 178 398 0 642 -17 370 0 643 202 181 176 638 368 0 637 +15 643 782 0 370 645
 0 17 181 0 643 370 644 179 205 400 0 367 +17 644 0 643 181 202 203 341 339 0 33
8 -17 205 0 646 647 367 203 181 400 0 644 -17 367 0 646 205 403 179 639 363 0 63
8 +15 646 786 0 367 648 0 17 403 0 646 367 647 182 649 359 0 639 +17 639 0 243 6
50 638 182 367 363 0 0 -17 650 0 243 651 639 93 184 330 0 0 -17 651 0 243 77 650
 81 95 365 0 317 -17 184 0 652 649 653 182 650 330 0 403 +16 330 625 0 ?184 365
 327 357 364 365 1 16 365 1284 0 ?95 364 330 357 330 360 1 16 364 617 0 ?654 360
 365 357 360 330 1 17 654 0 655 313 656 84 657 364 0 658 +15 655 84 0 654 586 0
 17 313 0 655 74 654 63 658 303 0 0 +17 656 0 655 654 95 90 659 660 0 657 +17 65
7 0 243 661 86 90 654 364 0 362 -17 658 0 662 663 508 84 313 303 0 0 -15 662 141
1 0 308 664 0 17 663 0 662 308 658 78 86 309 0 665 -17 508 0 662 658 308 63 666
 506 0 313 +17 308 0 662 508 663 66 665 306 0 666 +17 666 0 667 71 65 66 508 506
 0 0 -15 667 1531 0 666 668 0 17 71 0 667 669 666 69 68 504 0 503 -17 65 0 667 6
66 669 63 74 509 0 508 -17 669 0 667 65 71 72 503 501 0 0 -17 74 0 655 83 313 72
 65 509 0 311 +17 83 0 655 95 74 81 311 298 0 651 -17 311 0 670 503 317 72 83 29
8 0 669 +15 670 1403 0 311 671 0 17 503 0 670 672 311 69 669 501 0 305 +17 317 0
 670 311 672 81 77 315 0 0 +17 672 0 670 317 503 75 305 302 0 301 -17 77 0 243 8
0 651 75 317 315 0 672 -17 80 0 243 86 77 78 301 299 0 663 -17 86 0 243 657 80 8
4 663 309 0 654 +17 301 0 673 305 665 75 80 299 0 0 +15 673 1415 0 305 674 0 17
 305 0 673 68 301 69 672 302 0 0 +17 665 0 673 301 68 78 308 306 0 0 -17 68 0 67
3 665 305 66 71 504 0 308 +14 674 1412 675 ?668 664 673 6 676 +0 0 668 664 23 81
 1 675 3179 576 674 0 0 677 678 679 14 668 1530 680 ?681 674 667 6 20 +0 0 681 6
74 23 14 664 1408 677 ?674 671 662 6 682 +0 0 674 671 23 50 676 1427 0 674 683 6
82 0 +.127 0 -.10668 1 0 0 0 1 0 50 683 1862 0 681 684 676 0 +.127 .00762 .10287
 0 -1 0 0 0 -1 50 682 1425 0 664 676 685 0 +.127 .00762 -.10287 0 1 105071076679
3946e-31 0 -1050710766793946e-31 1 50 685 1423 0 671 682 686 0 +.127 -.00762 -.1
0287 0 1 1050710766793946e-31 0 -1050710766793946e-31 1 14 671 1400 578 ?664 687
 670 6 685 -0 0 664 687 23 51 686 1125 0 687 685 688 0 +.159653610572076 .225078
210910444 .582107151852061 0 0 -1 .00762 -1 0 0 14 687 1059 0 ?671 689 690 6 686
 -0 0 671 689 23 51 688 1122 0 689 686 691 0 -.159653610572076 -.225078210910444
 .582107151852061 0 0 -1 .00762 -1 0 0 14 689 1105 0 ?687 648 692 6 688 +0 0 687
 648 23 50 691 806 0 633 688 693 0 +.214597597718239 -.01479045157251996 -.06096
 0 0 -1 1 0 0 14 633 787 694 ?249 586 631 6 691 -0 0 249 586 23 50 693 805 0 249
 691 695 0 +.214597597718239 -.01479045157251996 -.08636 0 0 -1 1 0 0 14 249 791
 696 ?621 633 243 6 693 +0 0 621 633 23 50 695 804 0 697 693 698 0 +.13062680528
6038 .216307528855222 -.06096 -.766044443118978 .64278760968654 0 -.642787609686
54 -.766044443118978 0 14 697 759 699 ?700 701 702 6 695 +0 0 700 701 23 50 698
 803 0 700 695 703 0 +.159653610572076 .235765057710444 -.06096 0 1 0 0 0 1 14 7
00 763 704 ?705 697 706 6 698 +0 0 705 697 23 50 703 802 0 705 698 597 0 +.21798
5970476981 .181382528855222 -.06096 .766044443118978 .642787609686539 0 -.642787
609686539 .766044443118978 0 14 705 767 707 ?598 700 708 6 703 +0 0 598 700 23 5
0 597 801 0 598 703 709 0 +.2636183303818855 -.0635 -.06096 -1 0 0 0 0 1 14 598
 771 604 ?641 705 636 6 597 -589 589 641 705 23 50 709 800 0 641 597 710 0 +.217
985970476981 -.181382528855222 -.06096 -.766044443118978 .642787609686539 0 -.64
2787609686539 -.766044443118978 0 14 641 775 711 ?645 598 640 6 709 -0 0 645 598
 23 50 710 799 0 645 709 712 0 +.159653610572076 -.235765057710444 -.06096 0 1 0
 0 0 1 14 645 779 713 ?648 641 643 6 710 -0 0 648 641 23 50 712 798 0 648 710 71
4 0 +.130626805286038 -.216307528855222 -.06096 .766044443118978 .64278760968654
 0 -.64278760968654 .766044443118978 0 14 648 783 715 ?689 645 646 6 712 -0 0 68
9 645 23 50 714 797 0 701 712 716 0 +.1143 .0635 -.06096 1 0 0 0 0 -1 14 701 755
 577 ?697 717 718 6 714 -717 717 697 717 23 51 716 554 0 719 714 720 0 +.1596536
10572076 -.2250782137004115 -.582107151852061 0 0 1 .00762 1 0 0 14 719 504 0 ?7
17 721 722 6 716 -0 0 717 721 23 51 720 551 0 721 716 723 0 -.159653610572076 .2
250782137004115 -.582107151852061 0 0 1 .00762 1 0 0 14 721 534 0 ?719 724 725 6
 720 +0 0 719 724 23 50 723 330 0 621 720 726 0 +.214597597718239 -.014790451572
51996 .06096 0 0 1 1 0 0 14 621 311 727 ?533 249 618 6 723 -0 0 533 249 23 50 72
6 329 0 533 723 728 0 +.214597597718239 -.01479045157251996 .08636 0 0 1 1 0 0 1
4 533 315 729 ?573 621 529 6 726 +0 0 573 621 23 50 728 328 0 724 726 730 0 +.13
0626805286038 .216307528855222 .06096 .766044443118978 -.64278760968654 0 .64278
760968654 .766044443118978 0 14 724 307 592 ?721 608 731 6 728 -0 0 721 608 23 5
0 730 327 0 608 728 599 0 +.159653610572076 .235765057710444 .06096 0 -1 0 0 0 -
1 14 608 303 732 ?724 602 733 6 730 -0 0 724 602 23 50 599 326 0 602 730 590 0 +
.217985970476981 .181382528855222 .06096 -.766044443118978 -.642787609686539 0 .
642787609686539 -.766044443118978 0 81 1 732 3202 576 608 0 0 734 711 735 15 733
 306 0 467 608 0 17 467 0 733 142 115 116 736 465 0 737 +17 142 0 733 738 467 14
0 118 474 0 623 -17 115 0 733 467 738 113 139 472 0 470 +17 736 0 529 739 737 11
3 467 465 0 0 -17 737 0 529 736 121 116 464 462 0 0 -17 121 0 529 737 276 119 61
2 458 0 478 +17 464 0 609 614 118 119 737 462 0 0 +15 609 302 0 464 602 0 17 614
 0 609 623 464 143 478 476 0 436 -17 118 0 609 464 623 116 142 474 0 467 +17 623
 0 609 118 614 140 436 434 0 439 -17 439 0 618 436 442 140 738 437 0 0 +17 442 0
 618 439 620 137 740 440 0 0 +17 738 0 733 115 142 137 439 437 0 442 -17 620 0 6
18 442 741 108 418 416 0 0 -17 740 0 731 111 139 108 442 440 0 620 -15 731 310 0
 470 724 0 17 111 0 731 470 740 109 136 443 0 739 +17 139 0 731 740 470 137 115
 472 0 738 -17 470 0 731 139 111 113 739 468 0 736 +17 739 0 529 446 736 109 470
 468 0 742 -17 446 0 529 531 739 105 742 444 0 527 +17 742 0 743 136 107 109 446
 444 0 0 -15 743 278 0 418 744 0 17 136 0 743 418 742 108 111 443 0 740 -17 107
 0 743 742 418 105 745 489 0 446 +17 418 0 743 107 136 99 620 416 0 745 +17 745
 0 746 747 528 99 107 489 0 0 -15 746 79 0 745 566 748 17 747 0 746 92 745 87 10
1 488 0 749 -17 528 0 746 745 538 105 526 492 0 0 -17 538 0 746 528 750 102 537
 751 0 526 -16 492 107 0 ?526 489 751 486 489 751 1 16 751 112 0 ?537 492 752 48
6 492 752 1 17 537 0 536 156 530 96 538 751 0 532 +16 752 117 0 ?158 751 753 486
 751 753 1 17 158 0 584 89 532 134 750 752 0 754 +16 753 578 0 ?653 752 660 486
 752 660 1 17 653 0 652 184 755 93 754 753 0 650 +16 660 583 0 ?656 753 756 486
 753 756 1 16 756 588 0 ?749 660 488 486 660 488 1 17 749 0 718 757 362 87 92 75
6 0 333 +16 488 593 0 ?101 756 485 486 756 489 1 17 101 0 584 532 89 99 747 488
 0 741 +15 584 598 0 89 573 0 17 532 0 584 158 101 96 741 421 0 750 +17 89 0 584
 101 158 87 758 335 0 747 -17 741 0 618 620 98 99 532 421 0 418 -17 98 0 618 741
 542 96 156 420 0 537 -17 542 0 618 98 545 112 423 419 0 0 -16 420 155 0 ?156 41
6 468 413 421 416 1 17 545 0 618 542 552 152 426 424 0 0 -17 552 0 618 545 553 1
49 429 427 0 0 -17 426 0 546 127 154 149 545 424 0 552 +17 553 0 618 552 619 146
 433 431 0 0 -17 758 0 631 207 333 134 89 335 0 0 +16 335 682 0 ?758 331 336 328
 331 336 1 16 336 687 0 ?207 335 383 328 335 331 1 17 207 0 631 338 758 163 755
 336 0 649 +17 338 0 631 341 207 203 647 334 0 0 +17 755 0 652 653 649 134 207 3
36 0 758 -17 649 0 652 755 184 163 403 359 0 647 -15 652 754 0 755 717 0 17 647
 0 646 403 205 163 338 334 0 0 -14 717 751 759 ?701 719 652 6 714 -701 701 701 7
19 23 81 1 759 3186 576 717 0 0 760 761 762 80 7 CCCCCDI12 legal_owners0 17 1 lC
Z1 576 0 763 8001 0 0 0 0 3 5 0 0 0 FFFFTFTFFFFFFFFFF2 81 1 760 3185 576 681 0 0
 704 759 764 81 1 761 3187 576 625 0 0 759 765 766 83 255 3 762 .498039215686275
 .498039215686275 .498039215686275 14 625 2369 761 ?626 19 624 6 767 -0 0 626 19
 23 81 1 765 3188 576 519 0 0 761 729 768 83 3 766 .498039215686275 .49803921568
6275 .498039215686275 14 519 1847 765 ?769 681 516 6 684 +0 0 769 681 23 81 1 72
9 3189 576 533 0 0 765 713 770 83 3 768 .972549019607843 .529411764705882 .00392
156862745098 81 1 713 3190 576 645 0 0 729 604 771 83 3 770 .972549019607843 .52
9411764705882 .00392156862745098 81 1 604 3191 576 598 0 0 713 601 772 83 3 771
 .498039215686275 .498039215686275 .498039215686275 83 3 772 .498039215686275 .4
98039215686275 .498039215686275 14 769 1851 773 ?19 519 774 6 775 +0 0 19 519 23
 14 681 1839 760 ?519 668 776 6 683 -0 0 519 668 23 50 684 1864 0 519 775 683 0
 +.127 -.00762 .10287 0 -1 0 0 0 -1 50 775 1866 0 769 777 684 0 +.127 0 .10668 1
 0 0 0 1 0 50 777 2375 0 236 778 775 0 +.2712383303818855 -.0500158667564392 -.0
7366 0 -1 0 0 0 -1 14 236 2357 779 ?256 626 28 6 777 +0 0 256 626 23 50 778 2377
 0 626 767 777 0 +.2712383303818855 .0500158667564392 -.07366 0 -1 0 0 0 -1 14 6
26 2349 780 ?236 625 615 6 778 -0 0 236 625 23 50 767 2379 0 625 781 778 0 +.263
6183303818855 0 0 1 0 0 0 1 0 50 781 2380 0 256 782 767 0 +.2712383303818855 0 0
 1 0 0 0 1 0 14 256 2365 783 ?562 236 253 6 781 +0 0 562 236 23 51 782 2657 0 56
2 784 781 0 +.0762 0 349942822856356e-32 -1 0 0 .05715 0 0 1 14 562 2642 0 ?785
 256 786 6 782 -0 0 785 256 23 50 784 2659 0 785 0 782 0 +.0762 0 0 -1 0 0 0 -1
 0 14 785 2647 0 ?0 562 557 6 784 +0 0 0 562 23 15 557 2650 0 556 785 0 15 786 2
645 0 558 562 560 17 558 0 786 558 558 0 556 555 0 0 -81 1 783 3205 576 256 0 0
 707 577 787 81 1 707 3204 576 705 0 0 711 783 788 81 1 577 3207 576 701 0 0 783
 572 789 83 3 787 .498039215686275 .498039215686275 .498039215686275 83 3 789 .4
98039215686275 .498039215686275 .498039215686275 81 1 711 3203 576 641 0 0 732 7
07 790 83 3 788 .498039215686275 .498039215686275 .498039215686275 83 3 790 .498
039215686275 .498039215686275 .498039215686275 81 1 780 3217 576 626 0 0 580 791
 792 81 1 580 3216 576 567 0 0 694 780 793 81 1 791 3218 576 525 0 0 780 610 794
 83 3 792 .498039215686275 .498039215686275 .498039215686275 14 525 81 791 ?586
 589 523 6 585 +586 573 586 589 23 81 1 610 3219 576 551 0 0 791 0 795 83 3 794
 .498039215686275 .498039215686275 .498039215686275 83 3 795 .498039215686275 .4
98039215686275 .498039215686275 14 586 604 796 ?633 525 655 6 585 +573 525 633 5
25 23 50 585 93 0 525 797 798 0 +.1143 0 0 1 0 0 0 1 0 50 797 321 0 540 799 585
 0 +.1143 .0635 .06096 -1 0 0 0 0 1 51 798 91 0 566 585 582 0 -.1143 0 198300932
951935e-31 -1 0 0 .127 0 0 1 14 566 76 734 ?744 564 746 6 798 -0 0 744 564 23 50
 582 3 0 567 798 568 0 +.0508 0 0 1 0 0 0 1 0 50 568 32 0 564 582 575 0 +0 0 0 1
 0 0 0 1 0 81 1 734 3201 576 566 0 0 696 732 800 14 744 275 678 ?540 566 743 6 7
97 +540 540 540 566 23 81 1 678 3180 576 744 0 0 675 607 801 14 540 279 802 ?543
 744 536 6 797 +744 744 543 744 23 81 1 802 3196 576 540 0 0 715 595 803 14 543
 283 593 ?547 540 541 6 799 +0 0 547 540 23 81 1 593 3212 576 543 0 0 588 804 80
5 14 547 287 804 ?551 543 546 6 806 +0 0 551 543 23 50 799 322 0 543 806 797 0 +
.130626805286038 -.216307528855222 .06096 -.766044443118978 -.64278760968654 0 .
64278760968654 -.766044443118978 0 50 806 323 0 547 600 799 0 +.159653610572076
 -.235765057710444 .06096 0 -1 0 0 0 -1 50 600 324 0 551 590 806 0 +.21798597047
6981 -.181382528855222 .06096 .766044443118978 -.642787609686539 0 .642787609686
539 .766044443118978 0 81 1 804 3213 576 547 0 0 593 727 807 81 1 727 3214 576 6
21 0 0 804 694 808 83 3 807 .498039215686275 .498039215686275 .498039215686275 8
1 1 694 3215 576 633 0 0 727 580 809 83 3 808 .972549019607843 .529411764705882
 .00392156862745098 83 3 809 .972549019607843 .529411764705882 .0039215686274509
8 83 3 805 .498039215686275 .498039215686275 .498039215686275 81 1 715 3195 576
 648 0 0 796 802 810 81 1 595 3197 576 589 0 0 802 699 811 83 3 803 .49803921568
6275 .498039215686275 .498039215686275 81 1 699 3198 576 697 0 0 595 773 812 83
 3 811 .498039215686275 .498039215686275 .498039215686275 81 1 773 3199 576 769
 0 0 699 696 813 83 3 812 .498039215686275 .498039215686275 .498039215686275 81
 1 696 3200 576 249 0 0 773 734 814 83 3 813 .498039215686275 .498039215686275 .
498039215686275 83 3 814 .972549019607843 .529411764705882 .00392156862745098 81
 1 796 3194 576 586 0 0 605 715 815 83 3 810 .498039215686275 .498039215686275 .
498039215686275 81 1 605 3193 576 19 0 0 601 796 816 83 3 815 .498039215686275 .
498039215686275 .498039215686275 14 19 1969 605 ?625 769 522 6 7 +0 0 625 769 23
 83 3 816 .972549019607843 .529411764705882 .00392156862745098 15 522 1970 0 518
 19 0 81 1 607 3181 576 602 0 0 678 680 817 83 3 801 .498039215686275 .498039215
686275 .498039215686275 81 1 680 3182 576 668 0 0 607 583 818 83 3 817 .49803921
5686275 .498039215686275 .498039215686275 81 1 583 3183 576 573 0 0 680 704 819
 83 3 818 .972549019607843 .529411764705882 .00392156862745098 81 1 704 3184 576
 700 0 0 583 760 820 83 3 819 .498039215686275 .498039215686275 .498039215686275
 83 3 820 .498039215686275 .498039215686275 .498039215686275 83 3 800 .972549019
607843 .529411764705882 .00392156862745098 83 3 793 .498039215686275 .4980392156
86275 .498039215686275 81 1 779 3177 576 236 0 0 0 677 821 81 1 677 3178 576 664
 0 0 779 675 822 83 3 821 .498039215686275 .498039215686275 .498039215686275 83
 3 822 .972549019607843 .529411764705882 .00392156862745098 15 776 1842 0 291 68
1 0 17 291 0 776 513 297 49 62 289 0 823 +17 513 0 776 824 291 46 823 511 0 284
 +17 297 0 776 291 824 60 53 295 0 0 +17 62 0 523 527 24 60 291 289 0 531 -17 82
3 0 522 40 48 49 513 511 0 0 -17 40 0 522 518 823 35 24 11 0 515 -17 48 0 522 82
3 518 46 45 514 0 513 -17 45 0 774 521 284 41 48 514 0 287 +15 774 1854 0 284 76
9 0 17 521 0 774 825 45 54 287 285 0 0 -17 284 0 774 45 825 46 824 281 0 0 +17 8
25 0 774 284 521 51 56 279 0 0 -17 824 0 776 297 513 51 284 281 0 825 -17 56 0 5
29 59 53 54 825 279 0 520 +17 59 0 529 104 56 57 520 288 0 524 +17 53 0 529 56 5
31 51 297 295 0 824 -17 520 0 516 287 517 54 59 288 0 521 -17 531 0 529 53 446 6
0 527 449 0 297 +17 527 0 523 526 62 105 531 449 0 528 -83 3 764 .97254901960784
3 .529411764705882 .00392156862745098 79 255 15 763 SDL/TYSA_COLOUR17 341 0 631
 344 338 200 644 339 0 0 +17 344 0 631 348 341 197 642 342 0 0 +17 333 0 631 758
 826 87 757 331 0 0 +17 826 0 631 333 827 159 358 356 0 757 -17 757 0 718 162 74
9 159 333 331 0 0 -15 718 758 0 362 701 0 17 162 0 718 362 757 160 187 386 0 828
 +17 362 0 718 749 162 90 661 360 0 0 +17 187 0 702 358 828 159 162 386 0 826 -1
7 828 0 702 187 166 160 385 383 0 661 -15 702 762 0 828 697 0 17 166 0 702 828 3
58 164 190 389 0 829 +17 385 0 243 382 661 164 828 383 0 0 +17 661 0 243 385 657
 160 362 360 0 0 -17 382 0 243 379 385 167 829 380 0 0 +17 379 0 243 251 382 170
 830 377 0 0 +17 829 0 706 190 169 164 382 380 0 385 -15 706 766 0 829 700 0 17
 190 0 706 355 829 188 166 389 0 358 -17 169 0 706 829 355 167 193 391 0 830 +17
 355 0 706 169 190 191 827 353 0 632 +17 193 0 708 352 830 191 169 391 0 355 -17
 830 0 708 193 395 167 379 377 0 382 -15 708 770 0 830 705 0 17 395 0 708 830 35
2 170 629 393 0 379 +17 352 0 708 395 193 194 632 349 0 0 +17 632 0 631 827 196
 191 352 349 0 0 -17 827 0 631 826 632 188 355 353 0 0 -17 358 0 702 166 187 188
 826 356 0 827 +17 251 0 243 247 379 220 172 374 0 0 -17 172 0 596 629 627 170 2
51 374 0 395 +16 374 2183 0 ?172 375 371 372 375 375 1 17 750 0 746 538 754 96 1
58 752 0 0 -17 754 0 746 750 659 134 653 753 0 755 -17 659 0 746 754 92 93 656 6
60 0 653 -17 92 0 746 659 747 90 749 756 0 656 -15 748 80 0 495 566 0 17 495 0 7
48 495 495 0 831 493 0 0 +17 831 0 581 831 831 0 495 493 0 0 -15 581 60 0 831 56
7 832 15 832 6 0 498 567 0 17 498 0 832 498 498 0 587 496 0 0 +17 587 0 574 587
 587 0 498 496 0 0 -17 478 0 603 612 145 119 614 476 0 464 +17 276 0 529 121 257
 216 616 274 0 612 +16 458 2213 0 ?121 459 455 456 459 459 1 17 257 0 529 276 31
 227 239 258 0 0 +17 616 0 615 252 218 227 276 274 0 257 -17 252 0 615 222 616 2
30 229 254 0 0 -17 229 0 253 239 232 227 252 254 0 616 +17 31 0 529 257 461 215
 26 32 0 30 -83 3 735 .498039215686275 .498039215686275 .498039215686275 81 1 59
2 3210 576 724 0 0 578 588 833 81 1 578 3209 576 671 0 0 572 592 834 83 3 833 .4
98039215686275 .498039215686275 .498039215686275 83 3 834 .972549019607843 .5294
11764705882 .00392156862745098 15 725 532 0 835 721 836 17 835 0 725 835 835 0 4
09 388 0 0 -15 836 533 0 411 721 0 17 411 0 836 411 411 0 837 407 0 0 +17 837 0
 622 837 837 0 411 407 0 0 -15 622 469 0 837 621 838 15 838 474 0 414 621 0 17 4
14 0 838 414 414 0 839 412 0 0 +17 839 0 840 839 839 0 414 412 0 0 -15 840 503 0
 839 719 0 17 409 0 534 409 409 0 835 388 0 0 +15 534 454 0 409 533 841 15 841 4
62 0 842 533 0 17 842 0 841 842 842 0 406 404 0 0 -17 406 0 722 406 406 0 842 40
4 0 0 +15 722 502 0 406 719 840 15 692 1103 0 843 689 844 17 843 0 692 843 843 0
 324 318 0 0 -15 844 1104 0 326 689 0 17 326 0 844 326 326 0 845 322 0 0 +17 845
 0 634 845 845 0 326 322 0 0 -15 634 1000 0 845 633 846 15 846 1005 0 329 633 0
 17 329 0 846 329 329 0 847 327 0 0 +17 847 0 848 847 847 0 329 327 0 0 -15 848
 1058 0 847 687 0 17 324 0 250 324 324 0 843 318 0 0 +15 250 985 0 324 249 849 1
5 849 993 0 850 249 0 17 850 0 849 850 850 0 321 319 0 0 -17 321 0 690 321 321 0
 850 319 0 0 +15 690 1057 0 321 687 848 51 20 1549 0 668 575 7 0 +.127 266880534
7656625e-33 -.11176 -1 0 0 .00762 0 0 1 83 3 679 .498039215686275 .4980392156862
75 .498039215686275 17 95 0 655 656 83 93 651 365 0 659 +83 3 606 .4980392156862
75 .498039215686275 .498039215686275 83 3 594 .498039215686275 .498039215686275
 .498039215686275 83 3 579 .972549019607843 .529411764705882 .00392156862745098
 19 18 40 0 1 0 10 6 0 S0 74 4 CI16 index_map_offset0 0 1 dCCZ20 16 4 0 0 610 85
1 14 2 0 0 0 0 0 0 0 0 0 0 0 0 0 0 0 0 81 1 851 3206 852 1 0 14 0 0 853 81 1 14
 3220 854 1 851 2 0 0 855 80 1 854 13 856 8038 0 0 0 0 0 0 0 0 0 TTTTTTTTTTTTTFT
FT10 98 255 6 855 80 97 114 116 32 49 79 14 856 SDL/TYSA_UNAME80 1 852 576 857 8
040 0 0 0 0 3 5 0 0 0 TTTFFFFFFFFFFFFFF2 83 3 853 .615686274509804 .811764705882
353 .929411764705882 79 17 857 SDL/TYSA_COLOUR_280 1 13 858 859 8017 0 0 0 0 0 0
 0 0 0 TTTTTTTTTTTTTFTFT3 84 255 6 15 Part 179 13 859 SDL/TYSA_NAME1 0 
