**ABCDEFGHIJKLMNOPQRSTUVWXYZabcdefghijklmnopqrstuvwxyz**************************
**PARASOLID !"#$%&'()*+,-./:;<=>?@[\]^_`{|}~0123456789**************************
**PART1;
MC=unknown;
MC_MODEL=unknown;
MC_ID=unknown;
OS=unknown;
OS_RELEASE=unknown;
FRU=Parasolid 36.0.180;
APPL=Onshape;
SITE=unknown;
USER=unknown;
FORMAT=text;
GUISE=transmit;
KEY=BTGapi::writeModels_.xmt;
FILE=BTGapi::writeModels_.xmt;
DATE=2024-06-30T06:56:52 (UTC);
**PART2;
SCH=SCH_3600180_36001;
USFLD_SIZE=0;
**PART3;
**END_OF_HEADER*****************************************************************
T51 : TRANSMIT FILE created by modeller version 360018023 SCH_3600180_36001_1300
6231 0 12 36 CCCI7 lattice222 0 CCCI4 mesh1006 0 I8 polyline1008 0 CCCCCCCDI5 ow
ner1040 0 CCCI16 boundary_lattice222 0 CCCI13 boundary_mesh1006 0 I17 boundary_p
olyline1008 0 CCCA16 index_map_offset0 0 1 dA9 index_map82 0 A17 node_id_index_m
ap82 0 A20 schema_embedding_map82 0 A5 child12 0 A14 lowest_node_id0 0 1 dA16 me
sh_offset_data206 0 Z1 207 2 3 0 0 0 0 0 0 0 1e3 1e-8 0 4 0 1 0 1 2 5 0 6 7 0 0
 0 8 9 0 0 0 0 0 0 0 0 81 255 1 2 207 10 1 11 0 0 0 12 70 11 CI9 list_type0 0 1
 uI10 notransmit0 0 1 lCCCDCCDI12 finger_index0 0 1 dI12 finger_block1012 0 CZ3
 0 4 T1 0 0 3 20 1 13 13 13 255 5 99 0 1 0 14 0 0 15 0 51 255 6 163 0 14 16 0 0
 +.00762 0 0 0 0 -1 .00762 -1 0 0 31 255 7 169 0 9 17 0 0 +.00762 0 -.08636 0 0
 -1 -1 0 0 .00762 19 9 CCCCCCI5 frame230 0 CA5 owner12 0 Z8 114 0 1 15 0 18 0 V0
 16 255 9 148 0 ?19 0 20 7 0 0 1 17 255 19 0 21 19 19 0 22 9 0 0 +16 20 143 0 ?2
3 9 24 17 0 0 1 17 23 0 25 23 23 0 26 20 0 0 +16 24 138 0 ?27 20 28 29 0 0 1 31
 17 168 0 20 29 7 0 +.00762 0 -.08636 0 0 -1 -1 0 0 .0183515182685852 31 29 167
 0 24 30 17 0 +.00762 0 -.09144 0 0 -1 -1 0 0 .0183515182685852 31 30 166 0 28 3
1 29 0 +.00762 0 .09144 0 0 -1 -1 0 0 .01835151826858525 16 28 123 0 ?32 24 33 3
0 0 0 1 31 31 165 0 33 34 30 0 +.00762 0 .08636 0 0 -1 -1 0 0 .0183515182685852
 16 33 118 0 ?35 28 36 31 0 0 1 31 34 164 0 36 0 31 0 +.00762 0 .08636 0 0 -1 -1
 0 0 .00762 16 36 116 0 ?37 33 0 34 0 0 1 17 37 0 38 37 37 0 39 36 0 0 +15 255 3
8 190 0 37 14 40 17 39 0 41 39 39 0 37 36 0 0 -15 41 184 0 39 42 43 14 255 42 12
1 0 ?0 44 41 5 45 -0 0 0 44 18 15 43 120 0 35 42 0 17 35 0 43 35 35 0 46 33 0 0
 +17 46 0 47 46 46 0 35 33 0 0 -15 47 185 0 46 44 48 14 44 126 0 ?42 49 47 5 50
 -0 0 42 49 18 15 48 125 0 32 44 0 17 32 0 48 32 32 0 51 28 0 0 +17 51 0 52 51 5
1 0 32 28 0 0 -15 52 186 0 51 49 0 14 49 131 0 ?44 53 52 5 54 -0 0 44 53 18 14 5
3 141 0 ?49 55 56 5 57 -0 0 49 55 18 50 255 54 159 0 49 50 57 0 +-.0015557591342
92615 0 .09144 0 0 -1 -1 0 0 13 18 113 0 0 0 0 0 0 8 14 14 14 154 0 ?58 0 38 5 6
 +0 0 58 0 18 14 58 151 0 ?55 14 59 5 16 -0 0 55 14 18 14 55 146 0 ?53 58 60 5 6
1 -0 0 53 58 18 15 59 189 0 26 58 21 50 16 162 0 58 61 6 0 +-.0053657591342926 0
 -.08636 0 0 -1 -1 0 0 51 61 161 0 55 57 16 0 -.00762 0 0 0 0 -1 .01835151826858
52 -1 0 0 50 57 160 0 53 54 61 0 +-.001555759134292605 0 -.09144 0 0 1 1 0 0 17
 26 0 59 26 26 0 23 20 0 0 -15 21 150 0 19 58 0 15 60 188 0 62 55 25 17 62 0 60
 62 62 0 27 24 0 0 -15 25 145 0 23 55 0 17 27 0 56 27 27 0 62 24 0 0 +15 56 140
 0 27 53 0 51 50 158 0 44 45 54 0 -.00762 0 0 0 0 -1 .0183515182685852 -1 0 0 50
 45 157 0 42 0 50 0 +-.0053657591342926 0 .08636 0 0 1 1 0 0 15 40 153 0 22 14 0
 17 22 0 40 22 22 0 19 9 0 0 -19 15 98 0 1 0 8 5 0 S0 74 4 CI16 index_map_offset
0 0 1 dCCZ20 13 3 0 0 63 11 2 0 0 0 0 0 0 0 0 0 0 0 0 0 0 0 0 0 81 1 63 205 64 1
 0 11 0 0 65 81 1 11 206 66 1 63 2 0 0 67 80 7 CCCCCDI12 legal_owners0 17 1 lCZ1
 66 10 68 8038 0 0 0 0 0 0 0 0 0 TTTTTTTTTTTTTFTFT10 98 255 6 67 80 97 114 116 3
2 49 79 255 14 68 SDL/TYSA_UNAME80 1 64 69 70 8040 0 0 0 0 3 5 0 0 0 TTTFFFFFFFF
FFFFFF2 83 255 3 65 .647058823529412 .647058823529412 .647058823529412 79 17 70
 SDL/TYSA_COLOUR_280 1 10 71 72 8017 0 0 0 0 0 0 0 0 0 TTTTTTTTTTTTTFTFT3 84 255
 6 12 Part 179 13 72 SDL/TYSA_NAME1 0 
