**ABCDEFGHIJKLMNOPQRSTUVWXYZabcdefghijklmnopqrstuvwxyz**************************
**PARASOLID !"#$%&'()*+,-./:;<=>?@[\]^_`{|}~0123456789**************************
**PART1;
MC=unknown;
MC_MODEL=unknown;
MC_ID=unknown;
OS=unknown;
OS_RELEASE=unknown;
FRU=Parasolid 36.0.180;
APPL=Onshape;
SITE=unknown;
USER=unknown;
FORMAT=text;
GUISE=transmit;
KEY=BTGapi::writeModels_.xmt;
FILE=BTGapi::writeModels_.xmt;
DATE=2024-06-30T06:56:52 (UTC);
**PART2;
SCH=SCH_3600180_36001;
USFLD_SIZE=0;
**PART3;
**END_OF_HEADER*****************************************************************
T51 : TRANSMIT FILE created by modeller version 360018023 SCH_3600180_36001_1300
6231 0 12 36 CCCI7 lattice222 0 CCCI4 mesh1006 0 I8 polyline1008 0 CCCCCCCDI5 ow
ner1040 0 CCCI16 boundary_lattice222 0 CCCI13 boundary_mesh1006 0 I17 boundary_p
olyline1008 0 CCCA16 index_map_offset0 0 1 dA9 index_map82 0 A17 node_id_index_m
ap82 0 A20 schema_embedding_map82 0 A5 child12 0 A14 lowest_node_id0 0 1 dA16 me
sh_offset_data206 0 Z1 2641 2 3 0 0 0 0 0 0 0 1e3 1e-8 0 4 5 1 0 1 2 6 0 7 8 9 0
 0 10 11 12 0 0 0 0 0 0 0 81 255 1 2 2641 13 1 14 0 0 0 15 70 11 CI9 list_type0
 0 1 uI10 notransmit0 0 1 lCCCDCCDI12 finger_index0 0 1 dI12 finger_block1012 0
 CZ3 0 4 T1 0 0 4 20 1 16 16 13 255 6 49 0 1 0 17 0 0 18 0 51 255 7 1008 0 19 20
 0 0 -.208881230508629 -.27051 -.086521438601855 0 1 0 .01397 .3826834323650905
 0 .923879532511287 31 255 8 2357 0 21 22 0 0 -0 .3048 .0721321424048793 0 0 -1
 -1 0 0 .08255 29 255 9 1346 0 12 23 0 -.1410973531910192 -3469446951953615e-32
 -.0721321424048793 19 9 CCCCCCI5 frame230 0 CA5 owner12 0 Z10 57 0 1 18 0 24 0
 V0 16 255 11 2579 0 ?25 0 21 26 0 0 1 18 255 12 1344 0 27 0 28 9 ?1 17 255 27 0
 29 30 31 12 32 33 0 34 +18 28 1341 0 30 12 35 23 ?1 17 30 0 29 36 27 28 37 38 0
 39 +18 35 1335 0 31 28 40 41 ?1 29 23 1343 0 28 41 9 .1410973531910192 -3469446
951953615e-32 -.0721321424048793 29 41 1337 0 35 42 23 -.1410973531910192 -34694
46951953615e-32 .0721321424048793 29 42 1468 0 43 44 41 .1410973531910192 -34694
46951953615e-32 .0721321424048793 18 43 1410 0 36 40 45 42 ?1 29 44 1470 0 40 46
 42 -.1410973531910192 .3048 -.0721321424048793 18 40 1414 0 47 35 43 44 ?1 29 4
6 1938 0 45 48 44 .1410973531910192 .3048 -.0721321424048793 18 45 1904 0 49 43
 50 46 ?1 29 48 1940 0 50 51 46 .1410973531910192 .3048 .0721321424048793 18 50
 1901 0 52 45 53 48 ?1 29 51 1941 0 53 0 48 -.1410973531910192 .3048 .0721321424
048793 18 53 1903 0 54 50 0 51 ?1 17 54 0 55 52 47 53 56 57 0 58 -15 255 55 1924
 0 52 59 0 17 52 0 55 49 54 50 58 60 0 61 -17 47 0 55 54 49 40 62 63 0 64 -17 56
 0 65 34 66 40 54 57 0 0 +16 57 1362 0 ?56 67 38 68 0 0 1 17 58 0 69 70 61 53 52
 60 0 66 +15 69 1429 0 61 71 0 17 70 0 69 72 58 35 66 73 0 32 +17 61 0 69 58 72
 50 74 75 0 76 -16 60 1882 0 ?58 33 63 77 0 0 1 17 66 0 65 56 32 53 70 73 0 0 -1
5 65 1425 0 32 78 0 17 32 0 65 66 34 35 27 33 0 0 -16 73 1373 0 ?70 79 75 80 0 0
 1 16 79 432 0 ?81 82 73 83 0 0 1 16 75 1381 0 ?74 73 84 85 0 0 1 30 255 80 1454
 0 73 85 86 0 +-.1410973531910192 .3048 .0721321424048793 0 -1 0 30 85 1455 0 75
 87 80 0 +.1410973531910192 .3048 .0721321424048793 0 -1 0 31 86 474 0 82 80 88
 0 +.2260914146900175 -.27051 286702799462479e-31 0 -1 0 0 0 -1 .01397 16 82 429
 0 ?89 90 79 86 0 0 1 31 88 473 0 90 86 83 0 +.2260914146900175 -.27051 28981340
2332313e-31 0 -1 0 0 0 -1 .01905 16 90 437 0 ?91 92 82 88 0 0 1 31 83 471 0 79 8
8 93 0 +.2260914146900175 -.26543 289813402332313e-31 0 -1 0 0 0 -1 .01905 31 93
 375 0 92 83 94 0 +0 -.27813 2781486415704345e-32 0 -1 0 0 0 -1 .19685 16 92 353
 0 ?95 96 90 93 0 0 1 31 94 374 0 97 93 98 0 +0 -.26543 2781486415704345e-32 0 -
1 0 0 0 -1 .19685 16 97 338 0 ?99 100 101 94 0 0 1 31 98 310 0 102 94 103 0 +0 -
.26543 1576127803643565e-32 0 -1 0 0 0 -1 .2574012041252915 16 102 280 0 ?104 10
5 96 98 0 0 1 31 103 309 0 96 98 106 0 +0 -.21463 1576127803643565e-32 0 -1 0 0
 0 -1 .2574012041252915 16 96 277 0 ?107 102 92 103 0 0 1 31 106 247 0 108 103 1
09 0 +0 -.21463 1540822811738975e-32 0 -1 0 0 0 -1 .251635461393727 16 108 220 0
 ?110 111 105 106 0 0 1 31 109 246 0 105 106 112 0 +0 -.20955 1540822811738975e-
32 0 -1 0 0 0 -1 .251635461393727 16 105 217 0 ?113 108 102 109 0 0 1 31 112 190
 0 111 109 114 0 +0 -.20955 0 0 1 0 0 0 1 .246634 16 111 214 0 ?115 116 108 112
 0 0 1 31 114 189 0 116 112 117 0 +0 -.10795 0 0 1 0 0 0 1 .246634304523468 16 1
16 160 0 ?118 119 111 114 0 0 1 31 117 144 0 119 114 120 0 +0 -.10795 1477536363
171282e-32 0 -1 0 0 0 -1 .2413 16 119 122 0 ?121 122 116 117 0 0 1 31 120 143 0
 101 117 123 0 +0 -.1016 1477536363171282e-32 0 -1 0 0 0 -1 .2413 16 101 107 0 ?
124 97 125 120 0 0 1 31 123 83 0 122 120 126 0 +0 -.1016 0 0 1 0 0 0 1 .254 16 1
22 61 0 ?127 125 119 123 0 0 1 31 126 84 0 125 123 128 0 +0 -555111512312578e-31
 0 0 1 0 0 0 1 .2032 16 125 66 0 ?129 101 122 126 0 0 1 31 128 419 0 100 126 130
 0 -.2260914146900175 -.26543 286702799462479e-31 0 -1 0 0 0 -1 .01397 16 100 41
6 0 ?131 132 97 128 0 0 1 31 130 510 0 132 128 133 0 +.208881230508629 -.27051 .
0865214386018549 0 -1 0 .38268343236509 0 -.923879532511287 .01397 16 132 508 0
 ?134 135 100 130 0 0 1 31 133 514 0 135 130 136 0 +.208881230508629 -.27051 .08
65214386018549 0 -1 0 .38268343236509 0 -.923879532511287 .01905 16 135 512 0 ?1
37 138 132 133 0 0 1 31 136 518 0 138 133 139 0 +.208881230508629 -.26543 .08652
14386018549 0 -1 0 .38268343236509 0 -.923879532511287 .01905 16 138 516 0 ?140
 141 135 136 0 0 1 31 139 522 0 141 136 142 0 -.208881230508629 -.26543 .0865214
386018549 0 -1 0 .38268343236509 0 -.923879532511287 .01397 16 141 520 0 ?143 14
4 138 139 0 0 1 31 142 546 0 144 139 145 0 +.1598707724953715 -.27051 .159870772
4953715 0 -1 0 .707106781186548 0 -.707106781186548 .01397 16 144 544 0 ?146 147
 141 142 0 0 1 31 145 550 0 147 142 148 0 +.1598707724953715 -.27051 .1598707724
953715 0 -1 0 .707106781186548 0 -.707106781186548 .01905 16 147 548 0 ?149 150
 144 145 0 0 1 31 148 554 0 150 145 151 0 +.1598707724953715 -.26543 .1598707724
953715 0 -1 0 .707106781186548 0 -.707106781186548 .01905 16 150 552 0 ?152 153
 147 148 0 0 1 31 151 558 0 153 148 154 0 -.1598707724953715 -.26543 .1598707724
953715 0 -1 0 .707106781186548 0 -.707106781186548 .01397 16 153 556 0 ?155 156
 150 151 0 0 1 31 154 582 0 156 151 157 0 +.0865214386018548 -.27051 .2088812305
08629 0 -1 0 .923879532511287 0 -.38268343236509 .01397 16 156 580 0 ?158 159 15
3 154 0 0 1 31 157 586 0 159 154 160 0 +.0865214386018548 -.27051 .2088812305086
29 0 -1 0 .923879532511287 0 -.38268343236509 .01905 16 159 584 0 ?161 162 156 1
57 0 0 1 31 160 590 0 162 157 163 0 +.0865214386018548 -.26543 .208881230508629
 0 -1 0 .923879532511287 0 -.38268343236509 .01905 16 162 588 0 ?164 165 159 160
 0 0 1 31 163 594 0 165 160 166 0 -.0865214386018548 -.26543 .208881230508629 0
 -1 0 .923879532511287 0 -.38268343236509 .01397 16 165 592 0 ?167 168 162 163 0
 0 1 31 166 618 0 168 163 169 0 +-1482617358050652e-32 -.27051 .2260914146900175
 0 -1 0 1 0 -612323399573677e-31 .01397 16 168 616 0 ?170 171 165 166 0 0 1 31 1
69 622 0 171 166 172 0 +-1513723386748995e-32 -.27051 .2260914146900175 0 -1 0 1
 0 -612323399573677e-31 .01905 16 171 620 0 ?173 174 168 169 0 0 1 31 172 626 0
 174 169 175 0 +-1513723386748995e-32 -.26543 .2260914146900175 0 -1 0 1 0 -6123
23399573677e-31 .01905 16 174 624 0 ?176 177 171 172 0 0 1 31 175 630 0 177 172
 178 0 --1482617358050652e-32 -.26543 .2260914146900175 0 -1 0 1 0 -612323399573
677e-31 .01397 16 177 628 0 ?179 180 174 175 0 0 1 31 178 654 0 180 175 181 0 +-
.0865214386018549 -.27051 .208881230508629 0 -1 0 .923879532511287 0 .3826834323
6509 .01397 16 180 652 0 ?182 183 177 178 0 0 1 31 181 658 0 183 178 184 0 +-.08
65214386018549 -.27051 .208881230508629 0 -1 0 .923879532511287 0 .3826834323650
9 .01905 16 183 656 0 ?185 186 180 181 0 0 1 31 184 662 0 186 181 187 0 +-.08652
14386018549 -.26543 .208881230508629 0 -1 0 .923879532511287 0 .38268343236509 .
01905 16 186 660 0 ?188 189 183 184 0 0 1 31 187 666 0 189 184 190 0 --.08652143
86018549 -.26543 .208881230508629 0 -1 0 .923879532511287 0 .38268343236509 .013
97 16 189 664 0 ?191 192 186 187 0 0 1 31 190 690 0 192 187 193 0 +-.15987077249
53715 -.27051 .1598707724953715 0 -1 0 .707106781186548 0 .707106781186548 .0139
7 16 192 688 0 ?194 195 189 190 0 0 1 31 193 694 0 195 190 196 0 +-.159870772495
3715 -.27051 .1598707724953715 0 -1 0 .707106781186548 0 .707106781186548 .01905
 16 195 692 0 ?197 198 192 193 0 0 1 31 196 698 0 198 193 199 0 +-.1598707724953
715 -.26543 .1598707724953715 0 -1 0 .707106781186548 0 .707106781186548 .01905
 16 198 696 0 ?200 201 195 196 0 0 1 31 199 702 0 201 196 202 0 --.1598707724953
715 -.26543 .1598707724953715 0 -1 0 .707106781186548 0 .707106781186548 .01397
 16 201 700 0 ?203 204 198 199 0 0 1 31 202 726 0 204 199 205 0 +-.2088812305086
29 -.27051 .0865214386018549 0 -1 0 .38268343236509 0 .923879532511287 .01397 16
 204 724 0 ?206 207 201 202 0 0 1 31 205 730 0 207 202 208 0 +-.208881230508629
 -.27051 .0865214386018549 0 -1 0 .38268343236509 0 .923879532511287 .01905 16 2
07 728 0 ?209 210 204 205 0 0 1 31 208 734 0 210 205 211 0 +-.208881230508629 -.
26543 .0865214386018549 0 -1 0 .38268343236509 0 .923879532511287 .01905 16 210
 732 0 ?212 213 207 208 0 0 1 31 211 738 0 213 208 214 0 --.208881230508629 -.26
543 .0865214386018549 0 -1 0 .38268343236509 0 .923879532511287 .01397 16 213 73
6 0 ?215 216 210 211 0 0 1 31 214 762 0 216 211 217 0 +-.2260914146900175 -.2705
1 -982067214765181e-33 0 -1 0 1224646799147352e-31 0 1 .01397 16 216 760 0 ?218
 219 213 214 0 0 1 31 217 766 0 219 214 220 0 +-.2260914146900175 -.27051 -12931
27501748604e-33 0 -1 0 1224646799147352e-31 0 1 .01905 16 219 764 0 ?221 222 216
 217 0 0 1 31 220 770 0 222 217 223 0 +-.2260914146900175 -.26543 -1293127501748
604e-33 0 -1 0 1224646799147352e-31 0 1 .01905 16 222 768 0 ?224 225 219 220 0 0
 1 31 223 774 0 225 220 226 0 --.2260914146900175 -.26543 -982067214765181e-33 0
 -1 0 1224646799147352e-31 0 1 .01397 16 225 772 0 ?227 228 222 223 0 0 1 31 226
 798 0 228 223 229 0 +-.208881230508629 -.27051 -.0865214386018549 0 -1 0 -.3826
834323650895 0 .923879532511287 .01397 16 228 796 0 ?230 231 225 226 0 0 1 31 22
9 802 0 231 226 232 0 +-.208881230508629 -.27051 -.0865214386018549 0 -1 0 -.382
6834323650895 0 .923879532511287 .01905 16 231 800 0 ?233 234 228 229 0 0 1 31 2
32 806 0 234 229 235 0 +-.208881230508629 -.26543 -.0865214386018549 0 -1 0 -.38
26834323650895 0 .923879532511287 .01905 16 234 804 0 ?236 237 231 232 0 0 1 31
 235 810 0 237 232 238 0 --.208881230508629 -.26543 -.0865214386018549 0 -1 0 -.
3826834323650895 0 .923879532511287 .01397 16 237 808 0 ?239 240 234 235 0 0 1 3
1 238 834 0 240 235 241 0 +-.1598707724953715 -.27051 -.1598707724953715 0 -1 0
 -.707106781186548 0 .707106781186548 .01397 16 240 832 0 ?242 243 237 238 0 0 1
 31 241 838 0 243 238 244 0 +-.1598707724953715 -.27051 -.1598707724953715 0 -1
 0 -.707106781186548 0 .707106781186548 .01905 16 243 836 0 ?245 246 240 241 0 0
 1 31 244 842 0 246 241 247 0 +-.1598707724953715 -.26543 -.1598707724953715 0 -
1 0 -.707106781186548 0 .707106781186548 .01905 16 246 840 0 ?248 249 243 244 0
 0 1 31 247 846 0 249 244 250 0 --.1598707724953715 -.26543 -.1598707724953715 0
 -1 0 -.707106781186548 0 .707106781186548 .01397 16 249 844 0 ?251 252 246 247
 0 0 1 31 250 870 0 252 247 253 0 +-.086521438601855 -.27051 -.208881230508629 0
 -1 0 -.923879532511287 0 .3826834323650905 .01397 16 252 868 0 ?254 255 249 250
 0 0 1 31 253 874 0 255 250 256 0 +-.086521438601855 -.27051 -.208881230508629 0
 -1 0 -.923879532511287 0 .3826834323650905 .01905 16 255 872 0 ?257 258 252 253
 0 0 1 31 256 878 0 258 253 259 0 +-.086521438601855 -.26543 -.208881230508629 0
 -1 0 -.923879532511287 0 .3826834323650905 .01905 16 258 876 0 ?260 261 255 256
 0 0 1 31 259 882 0 261 256 262 0 --.086521438601855 -.26543 -.208881230508629 0
 -1 0 -.923879532511287 0 .3826834323650905 .01397 16 261 880 0 ?263 264 258 259
 0 0 1 31 262 906 0 264 259 265 0 +-1286203915097616e-32 -.27051 -.2260914146900
175 0 -1 0 -1 0 183697019872103e-30 .01397 16 264 904 0 ?266 267 261 262 0 0 1 3
1 265 910 0 267 262 268 0 +-1255097886399274e-32 -.27051 -.2260914146900175 0 -1
 0 -1 0 183697019872103e-30 .01905 16 267 908 0 ?269 270 264 265 0 0 1 31 268 91
4 0 270 265 271 0 +-1255097886399274e-32 -.26543 -.2260914146900175 0 -1 0 -1 0
 183697019872103e-30 .01905 16 270 912 0 ?272 273 267 268 0 0 1 31 271 918 0 273
 268 274 0 --1286203915097616e-32 -.26543 -.2260914146900175 0 -1 0 -1 0 1836970
19872103e-30 .01397 16 273 916 0 ?275 276 270 271 0 0 1 31 274 942 0 276 271 277
 0 +.0865214386018549 -.27051 -.208881230508629 0 -1 0 -.923879532511287 0 -.382
68343236509 .01397 16 276 940 0 ?278 279 273 274 0 0 1 31 277 946 0 279 274 280
 0 +.0865214386018549 -.27051 -.208881230508629 0 -1 0 -.923879532511287 0 -.382
68343236509 .01905 16 279 944 0 ?281 282 276 277 0 0 1 31 280 950 0 282 277 283
 0 +.0865214386018549 -.26543 -.208881230508629 0 -1 0 -.923879532511287 0 -.382
68343236509 .01905 16 282 948 0 ?284 285 279 280 0 0 1 31 283 954 0 285 280 286
 0 -.0865214386018549 -.26543 -.208881230508629 0 -1 0 -.923879532511287 0 -.382
68343236509 .01397 16 285 952 0 ?287 288 282 283 0 0 1 31 286 978 0 288 283 289
 0 +.1598707724953715 -.27051 -.1598707724953715 0 -1 0 -.707106781186548 0 -.70
7106781186547 .01397 16 288 976 0 ?290 291 285 286 0 0 1 31 289 982 0 291 286 29
2 0 +.1598707724953715 -.27051 -.1598707724953715 0 -1 0 -.707106781186548 0 -.7
07106781186547 .01905 16 291 980 0 ?293 294 288 289 0 0 1 31 292 986 0 294 289 2
95 0 +.1598707724953715 -.26543 -.1598707724953715 0 -1 0 -.707106781186548 0 -.
707106781186547 .01905 16 294 984 0 ?296 297 291 292 0 0 1 31 295 990 0 297 292
 298 0 -.1598707724953715 -.26543 -.1598707724953715 0 -1 0 -.707106781186548 0
 -.707106781186547 .01397 16 297 988 0 ?299 300 294 295 0 0 1 31 298 1014 0 300
 295 301 0 +.208881230508629 -.27051 -.086521438601855 0 -1 0 -.3826834323650905
 0 -.923879532511287 .01397 16 300 1012 0 ?302 303 297 298 0 0 1 31 301 1018 0 3
03 298 304 0 +.208881230508629 -.27051 -.086521438601855 0 -1 0 -.38268343236509
05 0 -.923879532511287 .01905 16 303 1016 0 ?305 306 300 301 0 0 1 31 304 1022 0
 306 301 22 0 +.208881230508629 -.26543 -.086521438601855 0 -1 0 -.3826834323650
905 0 -.923879532511287 .01905 16 306 1020 0 ?307 308 303 304 0 0 1 31 22 1026 0
 308 304 8 0 -.208881230508629 -.26543 -.086521438601855 0 -1 0 -.38268343236509
05 0 -.923879532511287 .01397 16 308 1024 0 ?309 21 306 22 0 0 1 17 309 0 310 30
9 309 0 311 308 0 0 +16 21 2354 0 ?312 11 308 8 0 0 1 17 312 0 313 312 312 0 314
 21 0 0 +15 313 2377 0 312 315 0 17 314 0 316 314 314 0 312 21 0 0 -15 316 2356
 0 314 71 69 14 255 71 1426 317 ?318 78 316 6 319 -0 0 318 78 24 81 1 317 2625 3
20 71 0 0 321 322 323 14 318 1430 324 ?325 71 326 6 327 -0 0 325 71 24 14 78 142
2 328 ?71 329 65 6 330 +0 0 71 329 24 50 255 319 1449 0 71 327 330 0 +0 .3048 .0
721321424048793 0 0 -1 -1 0 0 13 24 56 0 0 0 0 0 0 10 17 14 17 74 331 ?332 0 333
 6 334 +0 0 332 0 24 81 1 331 2631 320 17 0 0 335 336 337 14 332 1056 0 ?338 17
 339 6 340 +338 341 338 17 24 15 333 92 0 129 17 29 50 334 82 0 17 342 343 0 +-.
1016 -3469446951953615e-32 0 0 1 0 0 0 1 54 255 342 81 0 344 345 334 0 +0 -.0996
497853117888 0 0 1 0 .1309004293764222 .12311501786963 0 0 1 50 343 492 0 346 33
4 347 0 +0 -.27051 0 0 -1 0 .923879532511287 0 .38268343236509 14 346 490 0 ?344
 348 349 6 343 +0 0 344 348 24 51 347 498 0 348 343 350 0 -.208881230508629 -.27
051 .0865214386018549 0 1 0 .01905 -.38268343236509 0 .923879532511287 14 348 49
6 0 ?346 351 352 6 347 -0 0 346 351 24 51 350 504 0 351 347 353 0 -.208881230508
629 -.27051 .0865214386018549 0 1 0 .01397 -.38268343236509 0 .923879532511287 1
4 351 502 0 ?348 354 355 6 350 +0 0 348 354 24 50 353 528 0 354 350 356 0 +0 -.2
7051 0 0 -1 0 .707106781186548 0 .707106781186548 14 354 526 0 ?351 357 358 6 35
3 +0 0 351 357 24 51 356 534 0 357 353 359 0 -.1598707724953715 -.27051 .1598707
724953715 0 1 0 .01905 -.707106781186548 0 .707106781186548 14 357 532 0 ?354 36
0 361 6 356 -0 0 354 360 24 51 359 540 0 360 356 362 0 -.1598707724953715 -.2705
1 .1598707724953715 0 1 0 .01397 -.707106781186548 0 .707106781186548 14 360 538
 0 ?357 363 364 6 359 +0 0 357 363 24 50 362 564 0 363 359 365 0 +0 -.27051 0 0
 -1 0 .38268343236509 0 .923879532511287 14 363 562 0 ?360 366 367 6 362 +0 0 36
0 366 24 51 365 570 0 366 362 368 0 -.0865214386018548 -.27051 .208881230508629
 0 1 0 .01905 -.923879532511287 0 .38268343236509 14 366 568 0 ?363 369 370 6 36
5 -0 0 363 369 24 51 368 576 0 369 365 371 0 -.0865214386018548 -.27051 .2088812
30508629 0 1 0 .01397 -.923879532511287 0 .38268343236509 14 369 574 0 ?366 372
 373 6 368 +0 0 366 372 24 50 371 600 0 372 368 374 0 +0 -.27051 0 0 -1 0 612323
399573677e-31 0 1 14 372 598 0 ?369 375 376 6 371 +0 0 369 375 24 51 374 606 0 3
75 371 377 0 --1513723386748995e-32 -.27051 .2260914146900175 0 1 0 .01905 -1 0
 612323399573677e-31 14 375 604 0 ?372 378 379 6 374 -0 0 372 378 24 51 377 612
 0 378 374 380 0 --1482617358050652e-32 -.27051 .2260914146900175 0 1 0 .01397 -
1 0 612323399573677e-31 14 378 610 0 ?375 381 382 6 377 +0 0 375 381 24 50 380 6
36 0 381 377 383 0 +0 -.27051 0 0 -1 0 -.38268343236509 0 .923879532511287 14 38
1 634 0 ?378 384 385 6 380 +0 0 378 384 24 51 383 642 0 384 380 386 0 --.0865214
386018549 -.27051 .208881230508629 0 1 0 .01905 -.923879532511287 0 -.3826834323
6509 14 384 640 0 ?381 387 388 6 383 -0 0 381 387 24 51 386 648 0 387 383 389 0
 --.0865214386018549 -.27051 .208881230508629 0 1 0 .01397 -.923879532511287 0 -
.38268343236509 14 387 646 0 ?384 390 391 6 386 +0 0 384 390 24 50 389 672 0 390
 386 392 0 +0 -.27051 0 0 -1 0 -.707106781186548 0 .707106781186548 14 390 670 0
 ?387 393 394 6 389 +0 0 387 393 24 51 392 678 0 393 389 395 0 --.15987077249537
15 -.27051 .1598707724953715 0 1 0 .01905 -.707106781186548 0 -.707106781186548
 14 393 676 0 ?390 396 397 6 392 -0 0 390 396 24 51 395 684 0 396 392 398 0 --.1
598707724953715 -.27051 .1598707724953715 0 1 0 .01397 -.707106781186548 0 -.707
106781186548 14 396 682 0 ?393 399 400 6 395 +0 0 393 399 24 50 398 708 0 399 39
5 401 0 +0 -.27051 0 0 -1 0 -.923879532511287 0 .38268343236509 14 399 706 0 ?39
6 402 403 6 398 +0 0 396 402 24 51 401 714 0 402 398 404 0 --.208881230508629 -.
27051 .0865214386018549 0 1 0 .01905 -.38268343236509 0 -.923879532511287 14 402
 712 0 ?399 405 406 6 401 -0 0 399 405 24 51 404 720 0 405 401 407 0 --.20888123
0508629 -.27051 .0865214386018549 0 1 0 .01397 -.38268343236509 0 -.923879532511
287 14 405 718 0 ?402 408 409 6 404 +0 0 402 408 24 50 407 744 0 408 404 410 0 +
0 -.27051 0 0 -1 0 -1 0 1224646799147352e-31 14 408 742 0 ?405 411 412 6 407 +0
 0 405 411 24 51 410 750 0 411 407 413 0 --.2260914146900175 -.27051 -1293127501
748604e-33 0 1 0 .01905 -1224646799147352e-31 0 -1 14 411 748 0 ?408 414 415 6 4
10 -0 0 408 414 24 51 413 756 0 414 410 416 0 --.2260914146900175 -.27051 -98206
7214765181e-33 0 1 0 .01397 -1224646799147352e-31 0 -1 14 414 754 0 ?411 417 418
 6 413 +0 0 411 417 24 50 416 780 0 417 413 419 0 +0 -.27051 0 0 -1 0 -.92387953
2511287 0 -.3826834323650895 14 417 778 0 ?414 420 421 6 416 +0 0 414 420 24 51
 419 786 0 420 416 422 0 --.208881230508629 -.27051 -.0865214386018549 0 1 0 .01
905 .3826834323650895 0 -.923879532511287 14 420 784 0 ?417 423 424 6 419 -0 0 4
17 423 24 51 422 792 0 423 419 425 0 --.208881230508629 -.27051 -.08652143860185
49 0 1 0 .01397 .3826834323650895 0 -.923879532511287 14 423 790 0 ?420 426 427
 6 422 +0 0 420 426 24 50 425 816 0 426 422 428 0 +0 -.27051 0 0 -1 0 -.70710678
1186548 0 -.707106781186548 14 426 814 0 ?423 429 430 6 425 +0 0 423 429 24 51 4
28 822 0 429 425 431 0 --.1598707724953715 -.27051 -.1598707724953715 0 1 0 .019
05 .707106781186548 0 -.707106781186548 14 429 820 0 ?426 432 433 6 428 -0 0 426
 432 24 51 431 828 0 432 428 434 0 --.1598707724953715 -.27051 -.159870772495371
5 0 1 0 .01397 .707106781186548 0 -.707106781186548 14 432 826 0 ?429 435 436 6
 431 +0 0 429 435 24 50 434 852 0 435 431 437 0 +0 -.27051 0 0 -1 0 -.3826834323
650905 0 -.923879532511287 14 435 850 0 ?432 438 439 6 434 +0 0 432 438 24 51 43
7 858 0 438 434 440 0 --.086521438601855 -.27051 -.208881230508629 0 1 0 .01905
 .923879532511287 0 -.3826834323650905 14 438 856 0 ?435 441 442 6 437 -0 0 435
 441 24 51 440 864 0 441 437 443 0 --.086521438601855 -.27051 -.208881230508629
 0 1 0 .01397 .923879532511287 0 -.3826834323650905 14 441 862 0 ?438 444 445 6
 440 +0 0 438 444 24 50 443 888 0 444 440 446 0 +0 -.27051 0 0 -1 0 -18369701987
2103e-30 0 -1 14 444 886 0 ?441 447 448 6 443 +0 0 441 447 24 51 446 894 0 447 4
43 449 0 --1255097886399274e-32 -.27051 -.2260914146900175 0 1 0 .01905 1 0 -183
697019872103e-30 14 447 892 0 ?444 450 451 6 446 -0 0 444 450 24 51 449 900 0 45
0 446 452 0 --1286203915097616e-32 -.27051 -.2260914146900175 0 1 0 .01397 1 0 -
183697019872103e-30 14 450 898 0 ?447 453 454 6 449 +0 0 447 453 24 50 452 924 0
 453 449 455 0 +0 -.27051 0 0 -1 0 .38268343236509 0 -.923879532511287 14 453 92
2 0 ?450 456 457 6 452 +0 0 450 456 24 51 455 930 0 456 452 458 0 -.086521438601
8549 -.27051 -.208881230508629 0 1 0 .01905 .923879532511287 0 .38268343236509 1
4 456 928 0 ?453 459 460 6 455 -0 0 453 459 24 51 458 936 0 459 455 461 0 -.0865
214386018549 -.27051 -.208881230508629 0 1 0 .01397 .923879532511287 0 .38268343
236509 14 459 934 0 ?456 462 463 6 458 +0 0 456 462 24 50 461 960 0 462 458 464
 0 +0 -.27051 0 0 -1 0 .707106781186547 0 -.707106781186548 14 462 958 0 ?459 46
5 466 6 461 +0 0 459 465 24 51 464 966 0 465 461 467 0 -.1598707724953715 -.2705
1 -.1598707724953715 0 1 0 .01905 .707106781186548 0 .707106781186547 14 465 964
 0 ?462 468 469 6 464 -0 0 462 468 24 51 467 972 0 468 464 470 0 -.1598707724953
715 -.27051 -.1598707724953715 0 1 0 .01397 .707106781186548 0 .707106781186547
 14 468 970 0 ?465 471 472 6 467 +0 0 465 471 24 50 470 996 0 471 467 20 0 +0 -.
27051 0 0 -1 0 .923879532511287 0 -.3826834323650905 14 471 994 0 ?468 473 474 6
 470 +0 0 468 473 24 51 20 1002 0 473 470 7 0 -.208881230508629 -.27051 -.086521
438601855 0 1 0 .01905 .3826834323650905 0 .923879532511287 14 473 1000 0 ?471 1
9 475 6 20 -0 0 471 19 24 14 19 1006 0 ?473 476 477 6 7 +0 0 473 476 24 15 475 1
004 0 478 473 479 17 478 0 475 478 478 0 305 303 0 0 -15 479 1005 0 307 473 0 17
 307 0 479 307 307 0 480 306 0 0 +17 480 0 481 480 480 0 307 306 0 0 -15 481 992
 0 480 341 482 14 341 295 336 ?483 484 481 6 340 +332 329 483 484 24 15 482 956
 0 485 341 486 17 485 0 482 485 485 0 296 294 0 0 -15 486 920 0 487 341 488 17 4
87 0 486 487 487 0 284 282 0 0 -15 488 884 0 489 341 490 17 489 0 488 489 489 0
 272 270 0 0 -15 490 848 0 491 341 492 17 491 0 490 491 491 0 260 258 0 0 -15 49
2 812 0 493 341 494 17 493 0 492 493 493 0 248 246 0 0 -15 494 776 0 495 341 496
 17 495 0 494 495 495 0 236 234 0 0 -15 496 740 0 497 341 498 17 497 0 496 497 4
97 0 224 222 0 0 -15 498 704 0 499 341 500 17 499 0 498 499 499 0 212 210 0 0 -1
5 500 668 0 501 341 502 17 501 0 500 501 501 0 200 198 0 0 -15 502 632 0 503 341
 504 17 503 0 502 503 503 0 188 186 0 0 -15 504 596 0 505 341 506 17 505 0 504 5
05 505 0 176 174 0 0 -15 506 560 0 507 341 508 17 507 0 506 507 507 0 164 162 0
 0 -15 508 524 0 509 341 510 17 509 0 508 509 509 0 152 150 0 0 -15 510 488 0 51
1 341 512 17 511 0 510 511 511 0 140 138 0 0 -15 512 410 0 513 341 514 17 513 0
 512 513 513 0 81 79 0 0 -15 514 340 0 515 341 516 17 515 0 514 515 515 0 99 97
 0 0 -15 516 298 0 104 341 0 17 104 0 516 104 104 0 517 102 0 0 +17 517 0 518 51
7 517 0 104 102 0 0 -15 518 293 0 517 484 519 14 484 290 520 ?341 521 518 6 522
 -0 0 341 521 24 15 519 294 0 107 484 0 17 107 0 519 107 107 0 523 96 0 0 +17 52
3 0 524 523 523 0 107 96 0 0 -15 524 303 0 523 483 0 14 483 299 525 ?526 341 527
 6 528 -0 0 526 341 24 81 1 525 2635 320 483 0 0 328 520 529 14 526 356 530 ?531
 483 532 6 533 -0 0 531 483 24 15 527 302 0 110 483 524 50 528 307 0 483 340 522
 0 +0 -.21463 0 0 -1 0 1 0 0 50 340 308 0 341 533 528 0 +0 -.26543 0 0 -1 0 1 0
 0 51 522 306 0 484 528 534 0 -0 -.26543 1576127803643565e-32 0 1 0 .25740120412
52915 0 0 1 50 534 244 0 521 522 535 0 +0 -.20955 0 0 -1 0 1 0 0 14 521 236 536
 ?484 537 538 6 534 -0 0 484 537 24 51 535 243 0 537 534 539 0 -0 -.21463 154082
2811738975e-32 0 1 0 .251635461393727 0 0 1 14 537 227 321 ?521 540 541 6 535 -0
 0 521 540 24 54 539 187 0 540 535 542 0 +0 -.15874966017277 0 0 1 0 .1332555453
261096 .124239078034254 0 0 1 14 540 175 322 ?537 543 544 6 539 +0 0 537 543 24
 50 542 186 0 543 539 545 0 +-.12065 -.10795 0 0 1 0 0 0 1 14 543 170 0 ?540 546
 547 6 542 +0 0 540 546 24 51 545 140 0 546 542 345 0 -0 -.10795 147753636317128
2e-32 0 1 0 .2413 0 0 1 14 546 125 548 ?543 549 550 6 545 -0 0 543 549 24 50 345
 80 0 549 545 342 0 +-.127 -.1016 0 0 1 0 0 0 1 14 549 64 551 ?546 344 552 6 345
 -0 0 546 344 24 81 1 551 2627 320 549 0 0 322 548 553 14 344 69 335 ?549 346 55
4 6 342 +0 0 549 346 24 15 552 109 0 555 549 556 17 555 0 552 555 555 0 124 101
 0 0 -15 556 90 0 557 549 0 17 557 0 556 557 557 0 127 122 0 0 -17 127 0 554 127
 127 0 557 122 0 0 +15 554 91 0 127 344 558 15 558 68 0 559 344 0 17 559 0 558 5
59 559 0 129 125 0 0 -17 129 0 333 129 129 0 559 125 0 0 +17 124 0 560 124 124 0
 555 101 0 0 +15 560 129 0 124 546 0 81 1 335 2630 320 344 0 0 324 331 561 80 7
 CCCCCDI12 legal_owners0 17 1 lCZ1 320 0 562 8001 0 0 0 0 3 5 0 0 0 FFFFTFTFFFFF
FFFFF2 81 1 324 2629 320 318 0 0 548 335 563 83 255 3 561 .498039215686275 .4980
39215686275 .498039215686275 81 1 548 2628 320 546 0 0 551 324 564 83 3 563 .498
039215686275 .498039215686275 .498039215686275 83 3 564 .498039215686275 .498039
215686275 .498039215686275 79 255 15 562 SDL/TYSA_COLOUR81 1 322 2626 320 540 0
 0 317 551 565 83 3 553 .498039215686275 .498039215686275 .498039215686275 83 3
 565 .972549019607843 .529411764705882 .00392156862745098 15 550 128 0 566 546 5
60 17 566 0 550 566 566 0 121 119 0 0 -17 121 0 547 121 121 0 566 119 0 0 +15 54
7 173 0 121 543 567 15 567 174 0 118 543 0 17 118 0 567 118 118 0 568 116 0 0 +1
7 568 0 569 568 568 0 118 116 0 0 -15 569 179 0 568 540 0 15 544 178 0 115 540 5
69 17 115 0 544 115 115 0 570 111 0 0 +17 570 0 538 570 570 0 115 111 0 0 -15 53
8 239 0 570 521 571 15 571 240 0 572 521 0 17 572 0 571 572 572 0 113 105 0 0 -1
7 113 0 573 113 113 0 572 105 0 0 +15 573 231 0 113 537 0 81 1 321 2623 320 537
 0 0 574 317 575 15 541 230 0 576 537 573 17 576 0 541 576 576 0 110 108 0 0 -17
 110 0 527 110 110 0 576 108 0 0 +81 1 574 2622 320 531 0 0 0 321 577 83 3 575 .
498039215686275 .498039215686275 .498039215686275 14 531 361 574 ?578 526 579 6
 580 +0 0 578 526 24 83 3 577 .498039215686275 .498039215686275 .498039215686275
 14 578 445 0 ?581 531 582 6 583 +0 0 581 531 24 15 579 2581 0 584 531 585 50 58
0 373 0 531 583 533 0 +0 -.27813 0 0 -1 0 1 0 0 51 583 467 0 578 586 580 0 -.226
0914146900175 -.27051 286702799462479e-31 0 1 0 .01397 0 0 1 51 533 371 0 526 58
0 340 0 -0 -.27813 2781486415704345e-32 0 1 0 .19685 0 0 1 51 586 468 0 581 587
 583 0 -.2260914146900175 -.27051 289813402332313e-31 0 1 0 .01905 0 0 1 14 581
 450 0 ?588 578 589 6 586 -0 0 588 578 24 50 587 470 0 588 330 586 0 +0 -.27051
 0 0 -1 0 1 0 0 14 588 455 0 ?329 581 590 6 587 +0 0 329 581 24 50 330 1448 0 78
 319 587 0 +-.1410973531910192 .3048 0 -1 0 0 0 0 1 14 329 420 0 ?78 588 591 6 3
40 +341 476 78 588 24 15 590 458 0 592 588 593 17 592 0 590 592 592 0 89 82 0 0
 -15 593 459 0 91 588 0 17 91 0 593 91 91 0 594 90 0 0 +17 594 0 589 594 594 0 9
1 90 0 0 -15 589 453 0 594 581 595 15 595 454 0 81 581 0 17 81 0 595 81 81 0 513
 79 0 0 +17 89 0 582 89 89 0 592 82 0 0 +15 582 448 0 89 578 596 15 596 449 0 13
1 578 0 17 131 0 596 131 131 0 597 100 0 0 +17 597 0 591 597 597 0 131 100 0 0 -
15 591 418 0 597 329 0 14 476 1028 0 ?19 598 599 6 340 +329 598 19 598 24 14 598
 1030 0 ?476 600 601 6 340 +476 600 476 600 24 15 599 489 0 602 476 0 17 602 0 5
99 602 602 0 143 141 0 0 -17 143 0 603 143 143 0 602 141 0 0 +15 603 507 0 143 3
51 0 14 600 1032 0 ?598 604 605 6 340 +598 604 598 604 24 15 601 525 0 606 598 0
 17 606 0 601 606 606 0 155 153 0 0 -17 155 0 607 155 155 0 606 153 0 0 +15 607
 543 0 155 360 0 14 604 1034 0 ?600 608 609 6 340 +600 608 600 608 24 15 605 561
 0 610 600 0 17 610 0 605 610 610 0 167 165 0 0 -17 167 0 611 167 167 0 610 165
 0 0 +15 611 579 0 167 369 0 14 608 1036 0 ?604 612 613 6 340 +604 612 604 612 2
4 15 609 597 0 614 604 0 17 614 0 609 614 614 0 179 177 0 0 -17 179 0 615 179 17
9 0 614 177 0 0 +15 615 615 0 179 378 0 14 612 1038 0 ?608 616 617 6 340 +608 61
6 608 616 24 15 613 633 0 618 608 0 17 618 0 613 618 618 0 191 189 0 0 -17 191 0
 619 191 191 0 618 189 0 0 +15 619 651 0 191 387 0 14 616 1040 0 ?612 620 621 6
 340 +612 620 612 620 24 15 617 669 0 622 612 0 17 622 0 617 622 622 0 203 201 0
 0 -17 203 0 623 203 203 0 622 201 0 0 +15 623 687 0 203 396 0 14 620 1042 0 ?61
6 624 625 6 340 +616 624 616 624 24 15 621 705 0 626 616 0 17 626 0 621 626 626
 0 215 213 0 0 -17 215 0 627 215 215 0 626 213 0 0 +15 627 723 0 215 405 0 14 62
4 1044 0 ?620 628 629 6 340 +620 628 620 628 24 15 625 741 0 630 620 0 17 630 0
 625 630 630 0 227 225 0 0 -17 227 0 631 227 227 0 630 225 0 0 +15 631 759 0 227
 414 0 14 628 1046 0 ?624 632 633 6 340 +624 632 624 632 24 15 629 777 0 634 624
 0 17 634 0 629 634 634 0 239 237 0 0 -17 239 0 635 239 239 0 634 237 0 0 +15 63
5 795 0 239 423 0 14 632 1048 0 ?628 636 637 6 340 +628 636 628 636 24 15 633 81
3 0 638 628 0 17 638 0 633 638 638 0 251 249 0 0 -17 251 0 639 251 251 0 638 249
 0 0 +15 639 831 0 251 432 0 14 636 1050 0 ?632 640 641 6 340 +632 640 632 640 2
4 15 637 849 0 642 632 0 17 642 0 637 642 642 0 263 261 0 0 -17 263 0 643 263 26
3 0 642 261 0 0 +15 643 867 0 263 441 0 14 640 1052 0 ?636 338 644 6 340 +636 33
8 636 338 24 15 641 885 0 645 636 0 17 645 0 641 645 645 0 275 273 0 0 -17 275 0
 646 275 275 0 645 273 0 0 +15 646 903 0 275 450 0 14 338 1054 0 ?640 332 647 6
 340 +640 332 640 332 24 15 644 921 0 648 640 0 17 648 0 644 648 648 0 287 285 0
 0 -17 287 0 649 287 287 0 648 285 0 0 +15 649 939 0 287 459 0 15 647 957 0 650
 338 0 17 650 0 647 650 650 0 299 297 0 0 -17 299 0 651 299 299 0 650 297 0 0 +1
5 651 975 0 299 468 0 17 584 0 579 584 584 0 25 11 0 0 -15 585 364 0 95 531 0 17
 95 0 585 95 95 0 652 92 0 0 +17 652 0 532 652 652 0 95 92 0 0 -15 532 359 0 652
 526 653 15 653 360 0 99 526 0 17 99 0 653 99 99 0 515 97 0 0 +17 25 0 654 25 25
 0 584 11 0 0 +15 654 2601 0 25 655 0 14 655 2597 0 ?656 657 658 6 659 -0 0 656
 657 24 14 656 2602 0 ?0 655 660 6 661 +0 0 0 655 24 14 657 2378 0 ?655 315 662
 6 663 +0 0 655 315 24 15 658 2600 0 664 655 654 51 659 2612 0 655 661 663 0 -0
 -.35433 -.00632179286772261 0 1 0 .05715 0 0 1 50 661 2614 0 656 0 659 0 +0 -.3
5433 277555756156289e-31 0 -1 0 1 0 0 50 663 2390 0 657 659 665 0 +0 .2229486765
955095 .1229321424048792 0 0 1 1 0 0 51 665 2388 0 315 663 666 0 -0 .3048 .12293
21424048792 0 0 -1 .08255 -1 0 0 14 315 2373 0 ?657 667 668 6 665 -0 0 657 667 2
4 50 666 2171 0 667 665 669 0 +0 .2229486765955095 -.1229321424048792 0 0 -1 1 0
 0 14 667 2159 0 ?315 670 671 6 666 +0 0 315 670 24 51 669 2169 0 670 666 672 0
 -0 .3048 -.1229321424048792 0 0 1 .08255 1 0 0 14 670 2154 0 ?667 59 673 6 669
 -0 0 667 59 24 51 672 1932 0 59 669 674 0 +0 .3048 .0721341424048793 0 0 -1 .14
10973531910192 -1 0 0 14 59 1921 675 ?670 325 55 6 672 +0 0 670 325 24 50 674 14
51 0 325 672 327 0 +0 .3048 -.0721321424048793 0 0 -1 -1 0 0 14 325 1434 676 ?59
 318 677 6 674 +0 0 59 318 24 50 327 1450 0 318 674 319 0 +.1410973531910192 .30
48 0 -1 0 0 0 0 1 81 1 676 2639 320 325 0 0 536 0 678 15 677 2136 0 679 325 680
 17 679 0 677 679 679 0 681 682 0 0 -15 680 1850 0 64 325 0 17 64 0 680 62 37 40
 34 683 0 56 -17 62 0 680 39 64 45 47 63 0 684 +17 37 0 680 64 39 12 30 38 0 0 -
17 34 0 65 32 56 12 64 683 0 37 +16 683 1365 0 ?34 84 67 685 0 0 1 16 84 1387 0
 ?39 75 683 87 0 0 1 16 67 1393 0 ?49 683 57 686 0 0 1 30 685 1457 0 683 687 87
 0 +-.1410973531910192 .3048 -.0721321424048793 0 -1 0 30 687 1458 0 38 688 685
 0 +0 -3469446951953615e-32 -.0721321424048793 1 0 0 30 87 1456 0 84 685 85 0 +.
1410973531910192 .3048 -.0721321424048793 0 -1 0 16 38 1401 0 ?30 57 689 687 0 0
 1 30 688 1459 0 689 690 687 0 +.1410973531910192 -3469446951953615e-32 0 0 0 -1
 16 689 1376 0 ?691 38 692 688 0 0 1 30 690 1460 0 692 693 688 0 +0 -34694469519
53615e-32 .0721321424048793 1 0 0 16 692 1368 0 ?72 689 33 690 0 0 1 30 693 1461
 0 33 686 690 0 +-.1410973531910192 -3469446951953615e-32 0 0 0 -1 16 33 1396 0
 ?27 692 60 693 0 0 1 30 686 1463 0 67 68 693 0 +.1410973531910192 .3048 0 0 0 -
1 30 68 1465 0 57 77 686 0 +-.1410973531910192 .3048 0 0 0 -1 31 77 1936 0 60 69
4 68 0 -0 .3048 .0721321424048793 0 0 -1 -1 0 0 .1410973531910192 31 694 1937 0
 63 695 77 0 +0 .3048 -.0721321424048793 0 0 -1 -1 0 0 .1410973531910192 16 63 1
879 0 ?62 60 696 694 0 0 1 31 695 2172 0 682 697 694 0 +0 .3048 -.07213214240487
93 0 0 -1 -1 0 0 .08255 16 682 2146 0 ?681 696 698 695 0 0 1 31 697 2173 0 696 6
99 695 0 +0 .3048 -.1229321424048792 0 0 -1 -1 0 0 .08255 16 696 2151 0 ?700 63
 682 697 0 0 1 31 699 2392 0 698 26 697 0 +0 .3048 .1229321424048792 0 0 1 1 0 0
 .08255 16 698 2370 0 ?701 682 702 699 0 0 1 31 26 2615 0 11 703 699 0 +0 -.2781
3 -.00632179286772261 0 -1 0 0 0 -1 .05715 31 703 2616 0 702 0 26 0 +0 -.35433 -
.00632179286772261 0 -1 0 0 0 -1 .05715 16 702 2594 0 ?704 698 0 703 0 0 1 17 70
4 0 660 704 704 0 664 702 0 0 +15 660 2605 0 704 656 0 17 664 0 658 664 664 0 70
4 702 0 0 -17 701 0 662 701 701 0 705 698 0 0 +15 662 2381 0 701 657 0 17 705 0
 668 705 705 0 701 698 0 0 -15 668 2376 0 705 315 313 17 700 0 671 700 700 0 706
 696 0 0 +15 671 2162 0 700 667 0 17 706 0 673 706 706 0 700 696 0 0 -15 673 215
7 0 706 670 707 15 707 2158 0 681 670 0 17 681 0 707 681 681 0 679 682 0 0 +17 7
2 0 69 61 70 43 31 692 0 74 +17 31 0 29 27 36 35 72 692 0 70 -17 74 0 326 691 76
 43 61 75 0 0 +15 326 1433 0 691 318 0 17 691 0 326 684 74 28 36 689 0 0 +17 76
 0 326 74 684 50 49 67 0 0 -17 684 0 326 76 691 45 39 84 0 0 -17 49 0 55 47 52 4
5 76 67 0 62 +17 39 0 680 37 62 28 684 84 0 691 +17 36 0 29 31 30 43 691 689 0 7
2 -15 29 1336 0 31 17 0 81 1 536 2638 320 521 0 0 675 676 708 83 3 678 .97254901
9607843 .529411764705882 .00392156862745098 81 1 675 2637 320 59 0 0 520 536 709
 83 3 708 .498039215686275 .498039215686275 .498039215686275 81 1 520 2636 320 4
84 0 0 525 675 710 83 3 709 .498039215686275 .498039215686275 .498039215686275 8
3 3 710 .498039215686275 .498039215686275 .498039215686275 81 1 530 2633 320 526
 0 0 336 328 711 81 1 336 2632 320 341 0 0 331 530 712 81 1 328 2634 320 78 0 0
 530 525 713 83 3 711 .498039215686275 .498039215686275 .498039215686275 83 3 71
3 .498039215686275 .498039215686275 .498039215686275 83 3 712 .972549019607843 .
529411764705882 .00392156862745098 83 3 529 .498039215686275 .498039215686275 .4
98039215686275 17 140 0 714 140 140 0 511 138 0 0 +15 714 501 0 140 348 0 17 152
 0 715 152 152 0 509 150 0 0 +15 715 537 0 152 357 0 17 164 0 716 164 164 0 507
 162 0 0 +15 716 573 0 164 366 0 17 176 0 717 176 176 0 505 174 0 0 +15 717 609
 0 176 375 0 17 188 0 718 188 188 0 503 186 0 0 +15 718 645 0 188 384 0 17 200 0
 719 200 200 0 501 198 0 0 +15 719 681 0 200 393 0 17 212 0 720 212 212 0 499 21
0 0 0 +15 720 717 0 212 402 0 17 224 0 721 224 224 0 497 222 0 0 +15 721 753 0 2
24 411 0 17 236 0 722 236 236 0 495 234 0 0 +15 722 789 0 236 420 0 17 248 0 723
 248 248 0 493 246 0 0 +15 723 825 0 248 429 0 17 260 0 724 260 260 0 491 258 0
 0 +15 724 861 0 260 438 0 17 272 0 725 272 272 0 489 270 0 0 +15 725 897 0 272
 447 0 17 284 0 726 284 284 0 487 282 0 0 +15 726 933 0 284 456 0 17 296 0 727 2
96 296 0 485 294 0 0 +15 727 969 0 296 465 0 17 305 0 728 305 305 0 478 303 0 0
 +15 728 999 0 305 471 0 15 477 1010 0 302 19 310 17 302 0 477 302 302 0 729 300
 0 0 +15 310 1011 0 309 19 0 17 729 0 474 729 729 0 302 300 0 0 -15 474 998 0 72
9 471 728 15 472 974 0 290 468 651 17 290 0 472 290 290 0 730 288 0 0 +17 730 0
 466 730 730 0 290 288 0 0 -15 466 962 0 730 462 731 15 731 963 0 293 462 0 17 2
93 0 731 293 293 0 732 291 0 0 +17 732 0 469 732 732 0 293 291 0 0 -15 469 968 0
 732 465 727 15 463 938 0 278 459 649 17 278 0 463 278 278 0 733 276 0 0 +17 733
 0 457 733 733 0 278 276 0 0 -15 457 926 0 733 453 734 15 734 927 0 281 453 0 17
 281 0 734 281 281 0 735 279 0 0 +17 735 0 460 735 735 0 281 279 0 0 -15 460 932
 0 735 456 726 15 454 902 0 266 450 646 17 266 0 454 266 266 0 736 264 0 0 +17 7
36 0 448 736 736 0 266 264 0 0 -15 448 890 0 736 444 737 15 737 891 0 269 444 0
 17 269 0 737 269 269 0 738 267 0 0 +17 738 0 451 738 738 0 269 267 0 0 -15 451
 896 0 738 447 725 15 445 866 0 254 441 643 17 254 0 445 254 254 0 739 252 0 0 +
17 739 0 439 739 739 0 254 252 0 0 -15 439 854 0 739 435 740 15 740 855 0 257 43
5 0 17 257 0 740 257 257 0 741 255 0 0 +17 741 0 442 741 741 0 257 255 0 0 -15 4
42 860 0 741 438 724 15 436 830 0 242 432 639 17 242 0 436 242 242 0 742 240 0 0
 +17 742 0 430 742 742 0 242 240 0 0 -15 430 818 0 742 426 743 15 743 819 0 245
 426 0 17 245 0 743 245 245 0 744 243 0 0 +17 744 0 433 744 744 0 245 243 0 0 -1
5 433 824 0 744 429 723 15 427 794 0 230 423 635 17 230 0 427 230 230 0 745 228
 0 0 +17 745 0 421 745 745 0 230 228 0 0 -15 421 782 0 745 417 746 15 746 783 0
 233 417 0 17 233 0 746 233 233 0 747 231 0 0 +17 747 0 424 747 747 0 233 231 0
 0 -15 424 788 0 747 420 722 15 418 758 0 218 414 631 17 218 0 418 218 218 0 748
 216 0 0 +17 748 0 412 748 748 0 218 216 0 0 -15 412 746 0 748 408 749 15 749 74
7 0 221 408 0 17 221 0 749 221 221 0 750 219 0 0 +17 750 0 415 750 750 0 221 219
 0 0 -15 415 752 0 750 411 721 15 409 722 0 206 405 627 17 206 0 409 206 206 0 7
51 204 0 0 +17 751 0 403 751 751 0 206 204 0 0 -15 403 710 0 751 399 752 15 752
 711 0 209 399 0 17 209 0 752 209 209 0 753 207 0 0 +17 753 0 406 753 753 0 209
 207 0 0 -15 406 716 0 753 402 720 15 400 686 0 194 396 623 17 194 0 400 194 194
 0 754 192 0 0 +17 754 0 394 754 754 0 194 192 0 0 -15 394 674 0 754 390 755 15
 755 675 0 197 390 0 17 197 0 755 197 197 0 756 195 0 0 +17 756 0 397 756 756 0
 197 195 0 0 -15 397 680 0 756 393 719 15 391 650 0 182 387 619 17 182 0 391 182
 182 0 757 180 0 0 +17 757 0 385 757 757 0 182 180 0 0 -15 385 638 0 757 381 758
 15 758 639 0 185 381 0 17 185 0 758 185 185 0 759 183 0 0 +17 759 0 388 759 759
 0 185 183 0 0 -15 388 644 0 759 384 718 15 382 614 0 170 378 615 17 170 0 382 1
70 170 0 760 168 0 0 +17 760 0 376 760 760 0 170 168 0 0 -15 376 602 0 760 372 7
61 15 761 603 0 173 372 0 17 173 0 761 173 173 0 762 171 0 0 +17 762 0 379 762 7
62 0 173 171 0 0 -15 379 608 0 762 375 717 15 373 578 0 158 369 611 17 158 0 373
 158 158 0 763 156 0 0 +17 763 0 367 763 763 0 158 156 0 0 -15 367 566 0 763 363
 764 15 764 567 0 161 363 0 17 161 0 764 161 161 0 765 159 0 0 +17 765 0 370 765
 765 0 161 159 0 0 -15 370 572 0 765 366 716 15 364 542 0 146 360 607 17 146 0 3
64 146 146 0 766 144 0 0 +17 766 0 358 766 766 0 146 144 0 0 -15 358 530 0 766 3
54 767 15 767 531 0 149 354 0 17 149 0 767 149 149 0 768 147 0 0 +17 768 0 361 7
68 768 0 149 147 0 0 -15 361 536 0 768 357 715 15 355 506 0 134 351 603 17 134 0
 355 134 134 0 769 132 0 0 +17 769 0 349 769 769 0 134 132 0 0 -15 349 494 0 769
 346 770 15 770 495 0 137 346 0 17 137 0 770 137 137 0 771 135 0 0 +17 771 0 352
 771 771 0 137 135 0 0 -15 352 500 0 771 348 714 15 339 993 0 311 332 0 17 311 0
 339 311 311 0 309 308 0 0 -83 3 337 .972549019607843 .529411764705882 .00392156
862745098 83 3 323 .972549019607843 .529411764705882 .00392156862745098 19 18 48
 0 1 0 10 6 0 S0 74 4 CI16 index_map_offset0 0 1 dCCZ20 16 4 0 0 676 772 14 2 0
 0 0 0 0 0 0 0 0 0 0 0 0 0 0 0 81 1 772 2624 773 1 0 14 0 0 774 81 1 14 2640 775
 1 772 2 0 0 776 80 1 775 13 777 8038 0 0 0 0 0 0 0 0 0 TTTTTTTTTTTTTFTFT10 98 2
55 6 776 80 97 114 116 32 49 79 14 777 SDL/TYSA_UNAME80 1 773 320 778 8040 0 0 0
 0 3 5 0 0 0 TTTFFFFFFFFFFFFFF2 83 3 774 .615686274509804 .811764705882353 .9294
11764705882 79 17 778 SDL/TYSA_COLOUR_280 1 13 779 780 8017 0 0 0 0 0 0 0 0 0 TT
TTTTTTTTTTTFTFT3 84 255 6 15 Part 179 13 780 SDL/TYSA_NAME1 0 
