**ABCDEFGHIJKLMNOPQRSTUVWXYZabcdefghijklmnopqrstuvwxyz**************************
**PARASOLID !"#$%&'()*+,-./:;<=>?@[\]^_`{|}~0123456789**************************
**PART1;
MC=unknown;
MC_MODEL=unknown;
MC_ID=unknown;
OS=unknown;
OS_RELEASE=unknown;
FRU=Parasolid 36.0.180;
APPL=Onshape;
SITE=unknown;
USER=unknown;
FORMAT=text;
GUISE=transmit;
KEY=BTGapi::writeModels_.xmt;
FILE=BTGapi::writeModels_.xmt;
DATE=2024-06-30T06:56:52 (UTC);
**PART2;
SCH=SCH_3600180_36001;
USFLD_SIZE=0;
**PART3;
**END_OF_HEADER*****************************************************************
T51 : TRANSMIT FILE created by modeller version 360018023 SCH_3600180_36001_1300
6231 0 12 36 CCCI7 lattice222 0 CCCI4 mesh1006 0 I8 polyline1008 0 CCCCCCCDI5 ow
ner1040 0 CCCI16 boundary_lattice222 0 CCCI13 boundary_mesh1006 0 I17 boundary_p
olyline1008 0 CCCA16 index_map_offset0 0 1 dA9 index_map82 0 A17 node_id_index_m
ap82 0 A20 schema_embedding_map82 0 A5 child12 0 A14 lowest_node_id0 0 1 dA16 me
sh_offset_data206 0 Z1 3864 2 3 0 0 0 0 0 0 0 1e3 1e-8 0 4 5 1 0 1 2 6 0 7 8 9 0
 0 10 11 12 0 0 0 0 0 0 0 81 255 1 2 3864 13 1 14 0 0 0 15 70 11 CI9 list_type0
 0 1 uI10 notransmit0 0 1 lCCCDCCDI12 finger_index0 0 1 dI12 finger_block1012 0
 CZ3 0 4 T1 0 0 4 20 1 16 16 13 255 6 49 0 1 0 17 0 0 18 0 51 255 7 3444 0 19 20
 0 0 +-.914559228107817 .5842 -.254 0 0 -1 .0508 -1 0 0 30 255 8 3255 0 21 22 0
 0 +-.965359228107817 -.5842 -.8128 0 0 1 29 255 9 3197 0 12 23 0 1.015840771892
182 -.635 -.8128 19 9 CCCCCCI5 frame230 0 CA5 owner12 0 Z10 48 0 1 18 0 24 0 V0
 16 255 11 3765 0 ?25 0 21 26 0 0 1 18 255 12 3194 0 27 0 28 9 ?1 17 255 27 0 29
 30 31 12 32 33 0 34 +18 28 3190 0 35 12 36 23 ?1 17 35 0 37 38 39 28 40 41 0 42
 +18 36 3186 0 43 28 44 45 ?1 29 23 3193 0 28 45 9 -.965359228107817 .5842 -.812
8 29 45 3189 0 36 46 23 -.965359228107817 -.5842 -.8128 29 46 3185 0 44 47 45 -.
914559228107817 -.635 -.8128 18 44 3182 0 48 36 49 46 ?1 29 47 3171 0 49 50 46 1
.015840771892182 .635 -.8128 18 49 3168 0 51 44 52 47 ?1 29 50 3167 0 52 53 47 -
.914559228107817 .635 -.8128 18 52 3164 0 54 49 55 50 ?1 29 53 3143 0 55 56 50 -
.914559228107817 -.635 -.3048 18 55 3140 0 57 52 58 53 ?1 29 56 3139 0 58 59 53
 1.015840771892182 -.635 -.3048 18 58 3136 0 60 55 61 56 ?1 29 59 3135 0 61 62 5
6 -.965359228107817 .5842 -.3048 18 61 3132 0 63 58 64 59 ?1 29 62 3131 0 64 65
 59 -.965359228107817 -.5842 -.3048 18 64 3128 0 66 61 67 62 ?1 29 65 3127 0 67
 68 62 1.015840771892182 .635 -.3048 18 67 3124 0 69 64 70 65 ?1 29 68 3123 0 70
 71 65 -.914559228107817 .635 -.3048 18 70 3120 0 72 67 73 68 ?1 29 71 3109 0 73
 74 68 1.066640771892182 -.5842 -.8128 18 73 3106 0 75 70 76 71 ?1 29 74 3105 0
 76 77 71 1.066640771892182 .5842 -.8128 18 76 3102 0 78 73 79 74 ?1 29 77 3101
 0 79 80 74 1.066640771892182 -.5842 -.3048 18 79 3098 0 81 76 82 77 ?1 29 80 30
97 0 82 83 77 1.066640771892182 .5842 -.3048 18 82 3094 0 84 79 85 80 ?1 29 83 3
073 0 85 86 80 -.965359228107817 .5842 -.254 18 85 3070 0 87 82 88 83 ?1 29 86 3
069 0 88 89 83 -.965359228107817 -.5842 -.254 18 88 3066 0 90 85 91 86 ?1 29 89
 3065 0 91 92 86 -.914559228107817 -.635 -.254 18 91 3062 0 93 88 94 89 ?1 29 92
 3061 0 94 95 89 1.015840771892182 -.635 -.254 18 94 3058 0 96 91 97 92 ?1 29 95
 3047 0 97 98 92 -.914559228107817 .635 -.254 18 97 3044 0 99 94 100 95 ?1 29 98
 3043 0 100 101 95 1.015840771892182 .635 -.254 18 100 3040 0 102 97 103 98 ?1 2
9 101 3019 0 103 104 98 -.965359228107817 .5842 0 18 103 3016 0 105 100 106 101
 ?1 29 104 3015 0 106 107 101 -.965359228107817 -.5842 0 18 106 3012 0 108 103 1
09 104 ?1 29 107 3011 0 109 110 104 -.914559228107817 .635 0 18 109 3008 0 111 1
06 112 107 ?1 29 110 3007 0 112 113 107 1.015840771892182 .635 0 18 112 3004 0 1
14 109 115 110 ?1 29 113 3003 0 115 116 110 -.914559228107817 -.635 0 18 115 300
0 0 117 112 118 113 ?1 29 116 2999 0 118 119 113 1.015840771892182 -.635 0 18 11
8 2996 0 120 115 121 116 ?1 29 119 2985 0 121 122 116 1.066640771892182 .5842 -.
254 18 121 2982 0 123 118 124 119 ?1 29 122 2981 0 124 125 119 1.066640771892182
 -.5842 -.254 18 124 2978 0 126 121 127 122 ?1 29 125 2977 0 127 128 122 1.06664
0771892182 .5842 0 18 127 2974 0 129 124 130 125 ?1 29 128 2973 0 130 131 125 1.
066640771892182 -.5842 0 18 130 2970 0 132 127 133 128 ?1 29 131 1822 0 133 134
 128 -.774859228107817 -.5969 -.8128 18 133 1820 0 135 130 136 131 ?1 29 134 181
9 0 136 137 131 -.647859228107817 -.5969 -.8128 18 136 1817 0 138 133 139 134 ?1
 29 137 1805 0 139 140 134 -.647859228107817 -.635 -.8128 18 139 1801 0 141 136
 142 137 ?1 29 140 1723 0 142 143 137 .749140771892183 -.5969 -.8128 18 142 1721
 0 144 139 145 140 ?1 29 143 1720 0 145 146 140 .876140771892183 -.5969 -.8128 1
8 145 1718 0 147 142 148 143 ?1 29 146 1706 0 148 149 143 .876140771892183 -.635
 -.8128 18 148 1702 0 30 145 150 146 ?1 29 149 727 0 150 151 146 .87614077189218
3 .5969 -.8128 18 150 725 0 152 148 153 149 ?1 29 151 724 0 153 154 149 .7491407
71892183 .5969 -.8128 18 153 722 0 155 150 156 151 ?1 29 154 710 0 156 157 151 .
749140771892183 .635 -.8128 18 156 706 0 158 153 159 154 ?1 29 157 622 0 159 160
 154 -.647859228107817 .5969 -.8128 18 159 620 0 161 156 162 157 ?1 29 160 209 0
 162 163 157 -.889 .508 -.254 18 162 207 0 164 159 165 160 ?1 29 163 206 0 165 1
66 160 -.889 -.508 -.254 18 165 204 0 167 162 168 163 ?1 29 166 200 0 168 169 16
3 .889 .508 -.254 18 168 198 0 170 165 171 166 ?1 29 169 331 0 172 173 166 .889
 -.508 -.254 18 172 273 0 174 171 175 169 ?1 29 173 334 0 171 176 169 -.889 -.50
8 -.3048 18 171 283 0 177 168 172 173 ?1 29 176 526 0 175 178 173 .889 .508 -.30
48 18 175 472 0 179 172 180 176 ?1 29 178 527 0 180 181 176 .889 -.508 -.3048 18
 180 473 0 182 175 183 178 ?1 29 181 529 0 183 184 178 -.889 .508 -.3048 18 183
 457 0 185 180 186 181 ?1 29 184 701 0 186 187 181 -.647859228107817 .635 -.8128
 18 186 668 0 188 183 189 184 ?1 29 187 702 0 189 190 184 -.774859228107817 .635
 -.8128 18 189 669 0 191 186 192 187 ?1 29 190 703 0 192 193 187 -.7748592281078
17 .5969 -.8128 18 192 670 0 194 189 195 190 ?1 29 193 800 0 195 196 190 .876140
771892183 .635 -.8128 18 195 767 0 197 192 198 193 ?1 29 196 1796 0 198 199 193
 .749140771892183 -.635 -.8128 18 198 1763 0 200 195 201 196 ?1 29 199 1895 0 20
1 0 196 -.774859228107817 -.635 -.8128 18 201 1862 0 202 198 0 199 ?1 17 202 0 2
03 141 48 201 204 205 0 206 -15 255 203 1812 0 34 207 0 17 141 0 203 200 202 139
 208 209 0 210 -17 48 0 203 202 211 44 212 213 0 204 +17 204 0 29 43 206 44 202
 205 0 214 +16 205 1807 0 ?204 215 216 217 215 218 1 17 206 0 29 204 135 201 219
 220 0 208 +15 29 500 0 221 17 0 17 135 0 29 206 138 133 222 223 0 219 +17 219 0
 224 225 208 133 206 220 0 226 -16 220 1846 0 ?206 227 228 229 0 0 1 17 208 0 22
4 219 230 201 141 209 0 0 +15 224 1876 0 219 231 232 17 230 0 224 208 225 139 13
8 228 0 0 -16 209 1811 0 ?208 223 233 234 0 0 1 16 223 1821 0 ?135 235 209 236 0
 0 1 16 233 1722 0 ?144 209 237 238 0 0 1 31 255 234 1813 0 209 238 236 0 --.711
359228107817 -.635 -.8128 -1092739197465704e-31 1 0 -1 -1092739197465704e-31 0 .
0635 30 238 1724 0 233 239 234 0 +.0506407718921834 -.5969 -.8128 -1 -1092739197
465704e-31 0 30 236 1823 0 223 234 240 0 +.0506407718921834 -.5969 -.8128 -1 -10
92739197465704e-31 0 30 240 2988 0 235 236 241 0 -1.066640771892182 -.5842 -.254
 0 0 1 16 235 2986 0 ?126 242 223 240 0 0 1 30 241 2993 0 242 240 243 0 +1.06664
0771892182 .5842 -.254 0 0 1 16 242 2991 0 ?244 245 235 241 0 0 1 31 243 3022 0
 245 241 246 0 +-.914559228107817 .5842 0 0 0 1 1 0 0 .0508 16 245 3020 0 ?105 2
47 242 243 0 0 1 31 246 3027 0 247 243 248 0 +-.914559228107817 -.5842 0 0 0 1 1
 0 0 .0508 16 247 3025 0 ?117 249 245 246 0 0 1 31 248 3032 0 249 246 250 0 +1.0
15840771892182 -.5842 0 0 0 1 1 0 0 .0508 16 249 3030 0 ?132 251 247 248 0 0 1 3
1 250 3037 0 251 248 252 0 +1.015840771892182 .5842 0 0 0 1 1 0 0 .0508 16 251 3
035 0 ?114 253 249 250 0 0 1 30 252 3050 0 253 250 254 0 +-.914559228107817 .635
 0 0 0 1 16 253 3048 0 ?255 256 251 252 0 0 1 30 254 3055 0 256 252 257 0 -1.015
840771892182 .635 -.254 0 0 1 16 256 3053 0 ?102 258 253 254 0 0 1 31 257 3076 0
 258 254 259 0 --.914559228107817 .5842 -.254 0 0 1 1 0 0 .0508 16 258 3074 0 ?9
9 260 256 257 0 0 1 31 259 3081 0 260 257 261 0 --.914559228107817 -.5842 -.254
 0 0 1 1 0 0 .0508 16 260 3079 0 ?90 262 258 259 0 0 1 31 261 3086 0 262 259 263
 0 -1.015840771892182 -.5842 -.254 0 0 1 1 0 0 .0508 16 262 3084 0 ?96 264 260 2
61 0 0 1 31 263 3091 0 264 261 265 0 -1.015840771892182 .5842 -.254 0 0 1 1 0 0
 .0508 16 264 3089 0 ?123 266 262 263 0 0 1 30 265 3112 0 266 263 267 0 -1.06664
0771892182 -.5842 -.8128 0 0 1 16 266 3110 0 ?75 268 264 265 0 0 1 30 267 3117 0
 268 265 269 0 +1.066640771892182 .5842 -.8128 0 0 1 16 268 3115 0 ?270 271 266
 267 0 0 1 31 269 3146 0 271 267 272 0 --.914559228107817 .5842 -.3048 0 0 -1 -1
 0 0 .0508 16 271 3144 0 ?63 273 268 269 0 0 1 31 272 3151 0 273 269 274 0 --.91
4559228107817 -.5842 -.3048 0 0 -1 -1 0 0 .0508 16 273 3149 0 ?57 275 271 272 0
 0 1 31 274 3156 0 275 272 276 0 -1.015840771892182 -.5842 -.3048 0 0 -1 -1 0 0
 .0508 16 275 3154 0 ?81 277 273 274 0 0 1 31 276 3161 0 277 274 278 0 -1.015840
771892182 .5842 -.3048 0 0 -1 -1 0 0 .0508 16 277 3159 0 ?69 279 275 276 0 0 1 3
0 278 3174 0 279 276 280 0 +-.914559228107817 .635 -.8128 0 0 1 16 279 3172 0 ?2
81 282 277 278 0 0 1 30 280 3179 0 282 278 283 0 -1.015840771892182 .635 -.8128
 0 0 1 16 282 3177 0 ?51 284 279 280 0 0 1 31 283 3200 0 284 280 285 0 +-.914559
228107817 .5842 -.8128 0 0 -1 -1 0 0 .0508 16 284 3198 0 ?54 286 282 283 0 0 1 3
1 285 3205 0 286 283 287 0 +-.914559228107817 -.5842 -.8128 0 0 -1 -1 0 0 .0508
 16 286 3203 0 ?43 33 284 285 0 0 1 31 287 3210 0 33 285 288 0 +1.01584077189218
2 -.5842 -.8128 0 0 -1 -1 0 0 .0508 16 33 3208 0 ?27 289 286 287 0 0 1 31 288 32
15 0 289 287 290 0 +1.015840771892182 .5842 -.8128 0 0 -1 -1 0 0 .0508 16 289 32
13 0 ?78 213 33 288 0 0 1 30 290 3220 0 213 288 291 0 --.914559228107817 -.635 -
.8128 0 0 1 16 213 3218 0 ?48 292 289 290 0 0 1 30 291 3225 0 292 290 293 0 +1.0
15840771892182 -.635 -.8128 0 0 1 16 292 3223 0 ?294 295 213 291 0 0 1 30 293 32
30 0 295 291 296 0 --.914559228107817 -.635 -.254 0 0 1 16 295 3228 0 ?93 297 29
2 293 0 0 1 30 296 3235 0 297 293 298 0 +1.015840771892182 -.635 0 0 0 1 16 297
 3233 0 ?299 300 295 296 0 0 1 30 298 3240 0 300 296 301 0 --.965359228107817 .5
842 -.254 0 0 1 16 300 3238 0 ?87 302 297 298 0 0 1 30 301 3245 0 302 298 22 0 +
-.965359228107817 -.5842 -.254 0 0 1 16 302 3243 0 ?303 41 300 301 0 0 1 30 22 3
250 0 41 301 8 0 --.965359228107817 .5842 -.8128 0 0 1 16 41 3248 0 ?35 21 302 2
2 0 0 1 16 21 3253 0 ?304 11 41 8 0 0 1 17 304 0 37 39 38 64 305 21 0 306 +15 37
 492 0 38 307 0 17 39 0 37 35 304 61 306 308 0 40 +17 38 0 37 304 35 36 42 309 0
 305 -17 305 0 310 214 66 36 304 21 0 0 -17 306 0 311 57 63 64 39 308 0 0 -15 31
1 505 0 312 313 0 17 57 0 311 314 306 55 66 273 0 211 +17 63 0 311 306 315 61 72
 271 0 39 +16 308 3129 0 ?39 316 317 318 0 0 1 16 316 3121 0 ?319 216 308 320 0
 0 1 16 317 3137 0 ?211 308 321 322 0 0 1 30 318 519 0 308 322 320 0 +-.96535922
8107817 -1110223024625156e-31 -.3048 0 1 0 30 322 520 0 317 323 318 0 +.05064077
18921833 -.635 -.3048 -1 -1092739197465704e-31 0 30 320 518 0 316 318 324 0 +.05
06407718921831 .635 -.3048 1 0 0 30 324 328 0 325 320 326 0 +0 .508 -.3048 -1 0
 0 16 325 225 0 ?327 328 329 324 0 0 1 30 326 327 0 328 324 330 0 +.889 0 -.3048
 0 -1 0 16 328 253 0 ?182 331 325 326 0 0 1 30 330 326 0 331 326 332 0 +0 -.508
 -.3048 -1 0 0 16 331 256 0 ?177 333 328 330 0 0 1 30 332 325 0 333 330 334 0 +-
.889 0 -.3048 0 -1 0 16 333 247 0 ?335 336 331 332 0 0 1 30 334 324 0 337 332 33
8 0 +0 .508 -.254 -1 0 0 16 337 259 0 ?164 339 340 334 0 0 1 30 338 323 0 339 33
4 341 0 +.889 0 -.254 0 -1 0 16 339 231 0 ?342 343 337 338 0 0 1 30 341 322 0 34
3 338 344 0 +0 -.508 -.254 -1 0 0 16 343 239 0 ?345 329 339 341 0 0 1 30 344 321
 0 329 341 346 0 +-.889 0 -.254 0 -1 0 16 329 264 0 ?167 325 343 344 0 0 1 30 34
6 320 0 336 344 347 0 +-.889 .508 -.3048 0 0 1 16 336 228 0 ?348 349 333 346 0 0
 1 30 347 319 0 349 346 350 0 +-.889 -.508 -.3048 0 0 1 16 349 250 0 ?351 352 33
6 347 0 0 1 30 350 318 0 352 347 353 0 +.889 -.508 -.3048 0 0 1 16 352 244 0 ?35
4 355 349 350 0 0 1 30 353 317 0 355 350 356 0 +.889 .508 -.3048 0 0 1 16 355 23
6 0 ?357 358 352 353 0 0 1 30 356 9 0 359 353 360 0 +.0506407718921833 -.635 -.2
54 -1 -1092739197465704e-31 0 16 359 3059 0 ?361 362 363 356 0 0 1 30 360 14 0 3
62 356 364 0 +1.066640771892182 1110223024625156e-31 -.254 0 1 0 16 362 2979 0 ?
365 366 359 360 0 0 1 30 364 19 0 366 360 367 0 +.0506407718921834 .635 -.254 -1
 0 0 16 366 3041 0 ?368 369 362 364 0 0 1 30 367 24 0 369 364 370 0 +-.965359228
107817 -1110223024625156e-31 -.254 0 1 0 16 369 3067 0 ?371 372 366 367 0 0 1 30
 370 112 0 358 367 373 0 +.0506407718921833 -.635 0 -1 -1092739197465704e-31 0 1
6 358 2997 0 ?374 375 355 370 0 0 1 30 373 111 0 375 370 376 0 +1.06664077189218
2 1110223024625156e-31 0 0 1 0 16 375 2971 0 ?377 378 358 373 0 0 1 30 376 110 0
 378 373 379 0 +.0506407718921834 .635 0 -1 0 0 16 378 3005 0 ?380 363 375 376 0
 0 1 30 379 109 0 363 376 381 0 +-.965359228107817 -1110223024625156e-31 0 0 1 0
 16 363 3013 0 ?382 359 378 379 0 0 1 30 381 623 0 372 379 383 0 +.0506407718921
833 .5969 -.8128 1 0 0 16 372 621 0 ?384 385 369 381 0 0 1 30 383 625 0 385 381
 386 0 +-.774859228107817 .6731 -.8128 0 -1 0 16 385 624 0 ?387 388 372 383 0 0
 1 30 386 628 0 388 383 389 0 --.647859228107817 .6731 -.8128 0 -1 0 16 388 626
 0 ?390 391 385 386 0 0 1 31 389 718 0 391 386 392 0 -.812640771892183 .635 -.81
28 0 -1 0 0 0 -1 .0635 16 391 716 0 ?393 394 388 389 0 0 1 30 392 728 0 394 389
 239 0 +.0506407718921833 .5969 -.8128 1 0 0 16 394 726 0 ?152 237 391 392 0 0 1
 31 239 1714 0 237 392 238 0 -.812640771892183 -.635 -.8128 -1092739197465704e-3
1 1 0 -1 -1092739197465704e-31 0 .0635 16 237 1712 0 ?395 233 394 239 0 0 1 17 3
95 0 396 397 398 198 399 237 0 0 +15 396 1777 0 397 400 401 17 397 0 396 402 395
 142 403 404 0 405 -17 398 0 396 395 402 148 147 406 0 0 -17 399 0 203 34 200 14
8 395 237 0 398 -17 34 0 203 294 399 12 30 218 0 407 -17 200 0 203 399 141 198 2
10 215 0 403 -17 210 0 29 138 403 139 200 215 0 230 +16 215 1708 0 ?210 218 205
 217 218 205 1 17 403 0 29 210 144 198 397 404 0 395 +17 144 0 29 403 147 142 40
8 233 0 397 +16 404 1747 0 ?403 409 406 410 0 0 1 16 409 1572 0 ?411 412 404 413
 0 0 1 16 406 1750 0 ?147 404 414 415 0 0 1 30 410 1792 0 404 415 416 0 -.749140
771892183 -.6731 -.8128 -1092739197465704e-31 1 0 30 415 1793 0 406 417 410 0 +.
876140771892183 -.6731 -.8128 -1092739197465704e-31 1 0 31 416 1599 0 412 410 41
3 0 +-.711359228107817 .8001 -.8128 0 1 0 0 0 1 .0635 16 412 1577 0 ?418 419 409
 416 0 0 1 31 413 1598 0 409 416 420 0 +-.711359228107817 .7874 -.8128 0 1 0 0 0
 1 .0635 31 420 1456 0 421 413 422 0 +-.711359228107817 .7874 -.8128 0 1 0 0 0 1
 .1905 16 421 1429 0 ?423 424 419 420 0 0 1 31 422 1455 0 419 420 425 0 +-.71135
9228107817 .8001 -.8128 0 1 0 0 0 1 .1905 16 419 1432 0 ?426 421 412 422 0 0 1 3
1 425 1324 0 427 422 428 0 +-.711359228107817 .8001 -.8128 0 1 0 0 0 1 .254 16 4
27 1294 0 ?429 430 424 425 0 0 1 31 428 1323 0 424 425 431 0 +-.711359228107817
 .6731 -.8128 0 1 0 0 0 1 .254 16 424 1291 0 ?432 427 421 428 0 0 1 31 431 1196
 0 433 428 434 0 +.812640771892183 .8001 -.8128 0 1 0 0 0 1 .0635 16 433 1174 0
 ?435 436 430 431 0 0 1 31 434 1195 0 430 431 437 0 +.812640771892183 .7874 -.81
28 0 1 0 0 0 1 .0635 16 430 1169 0 ?438 433 427 434 0 0 1 31 437 1065 0 439 434
 440 0 +.812640771892183 .7874 -.8128 0 1 0 0 0 1 .1905 16 439 1038 0 ?441 442 4
36 437 0 0 1 31 440 1064 0 436 437 443 0 +.812640771892183 .8001 -.8128 0 1 0 0
 0 1 .1905 16 436 1041 0 ?444 439 433 440 0 0 1 31 443 945 0 445 440 446 0 +.812
640771892183 .8001 -.8128 0 1 0 0 0 1 .254 16 445 915 0 ?447 448 442 443 0 0 1 3
1 446 944 0 442 443 449 0 +.812640771892183 .6731 -.8128 0 1 0 0 0 1 .254 16 442
 912 0 ?450 445 439 446 0 0 1 31 449 799 0 451 446 452 0 +.812640771892183 .6731
 -.8128 0 1 0 0 0 1 .0635 16 451 763 0 ?453 454 448 449 0 0 1 31 452 798 0 448 4
49 455 0 +.812640771892183 .5969 -.8128 0 1 0 0 0 1 .0635 16 448 757 0 ?456 451
 445 452 0 0 1 30 455 797 0 454 452 457 0 +.749140771892183 .6731 -.8128 0 -1 0
 16 454 754 0 ?155 458 451 455 0 0 1 30 457 796 0 458 455 459 0 -.87614077189218
3 .6731 -.8128 0 -1 0 16 458 751 0 ?460 461 454 457 0 0 1 31 459 700 0 462 457 4
63 0 +-.711359228107817 .6731 -.8128 0 1 0 0 0 1 .0635 16 462 665 0 ?464 465 461
 459 0 0 1 31 463 699 0 461 459 466 0 +-.711359228107817 .5969 -.8128 0 1 0 0 0
 1 .0635 16 461 659 0 ?467 462 458 463 0 0 1 31 466 698 0 465 463 468 0 --.71135
9228107817 .635 -.8128 0 -1 0 0 0 -1 .0635 16 465 662 0 ?188 321 462 466 0 0 1 3
0 468 525 0 216 466 217 0 +1.066640771892182 -1110223024625156e-31 -.8128 0 -1 0
 16 216 3103 0 ?31 205 316 468 0 0 1 30 217 524 0 218 468 469 0 +.05064077189218
33 -.635 -.8128 -1 -1092739197465704e-31 0 16 218 3195 0 ?30 309 215 217 205 215
 1 30 469 523 0 309 217 470 0 +-.965359228107817 -1110223024625156e-31 -.8128 0
 1 0 16 309 3187 0 ?42 471 218 469 0 0 1 30 470 522 0 340 469 323 0 +.0506407718
921831 .635 -.8128 1 0 0 16 340 3165 0 ?191 337 472 470 471 472 1 30 323 521 0 3
21 470 322 0 +1.066640771892182 -1110223024625156e-31 -.3048 0 -1 0 16 321 3095
 0 ?473 317 465 323 0 0 1 17 473 0 474 75 270 79 312 321 0 475 +15 474 484 0 476
 477 0 17 75 0 474 476 473 73 475 266 0 31 +17 270 0 474 473 476 82 478 268 0 31
2 +17 312 0 311 69 81 82 473 321 0 0 -17 475 0 479 60 32 79 75 266 0 0 -15 479 3
328 0 32 480 0 17 60 0 479 407 475 58 81 275 0 294 -17 32 0 479 475 407 73 27 33
 0 0 -17 407 0 479 32 60 12 294 292 0 0 -17 294 0 203 211 34 58 407 292 0 314 +1
7 211 0 203 48 294 55 314 317 0 212 +17 314 0 311 81 57 58 211 317 0 0 -17 81 0
 311 312 314 79 60 275 0 473 +17 212 0 310 66 214 55 48 213 0 0 -15 310 3391 0 2
14 481 0 17 66 0 310 305 212 64 57 273 0 304 -17 214 0 310 212 305 44 43 286 0 0
 -17 43 0 29 42 204 36 214 286 0 38 +17 42 0 29 54 43 28 38 309 0 482 +17 54 0 2
9 191 42 52 482 284 0 483 +17 482 0 484 40 485 28 54 284 0 0 -15 484 3412 0 482
 486 0 17 40 0 484 72 482 61 35 41 0 0 -17 485 0 484 482 72 52 281 279 0 0 -17 7
2 0 484 485 40 70 63 271 0 281 -17 281 0 487 319 483 70 485 279 0 315 +15 487 71
7 0 319 488 0 17 319 0 487 51 281 67 315 316 0 489 +17 483 0 487 281 490 52 191
 340 0 485 -17 315 0 311 63 69 70 319 316 0 0 -17 69 0 311 315 312 67 84 277 0 3
19 +17 84 0 491 478 489 82 69 277 0 270 -15 491 3307 0 492 493 0 17 478 0 491 49
2 84 76 270 268 0 0 -17 489 0 491 84 492 67 51 282 0 0 -17 492 0 491 489 478 49
 78 289 0 0 -17 51 0 487 197 319 49 489 282 0 221 +17 197 0 487 158 51 195 221 4
71 0 460 -17 221 0 29 78 460 49 197 471 0 492 +17 78 0 29 31 221 76 492 289 0 47
6 +17 460 0 29 221 152 195 494 458 0 393 +16 471 712 0 ?221 472 309 470 472 340
 1 16 472 613 0 ?495 340 471 470 340 471 1 17 495 0 29 155 390 156 496 472 0 497
 +17 155 0 29 152 495 153 497 454 0 498 +17 390 0 29 495 384 186 499 388 0 496 +
17 496 0 487 490 158 186 495 472 0 0 -17 497 0 500 393 456 156 155 454 0 0 -15 5
00 781 0 494 501 502 17 393 0 500 494 497 195 158 391 0 0 +17 456 0 500 497 494
 153 503 448 0 0 +17 494 0 500 456 393 150 460 458 0 503 -17 503 0 504 498 498 1
50 456 448 0 0 -15 504 790 0 498 505 0 17 498 0 504 503 503 153 152 394 0 456 -1
7 152 0 29 460 155 150 498 394 0 494 +14 255 505 787 506 ?507 501 504 6 508 -0 0
 507 501 24 81 1 506 3809 509 505 0 0 510 511 512 14 507 925 513 ?514 505 515 6
 516 -0 0 514 505 24 14 501 778 517 ?505 518 500 6 519 -0 0 505 518 24 50 255 50
8 794 0 505 516 519 0 +.0506407718921833 .5969 -.59055 0 1 0 -1 0 0 13 24 137 0
 0 0 0 0 0 10 17 14 17 497 520 ?521 0 29 6 522 +0 0 521 0 24 81 1 520 3811 509 1
7 0 0 511 523 524 14 521 128 525 ?526 17 527 6 528 -0 0 526 17 24 50 522 513 0 1
7 529 530 0 +.0506407718921833 -1110223024625156e-31 -.8128 0 0 -1 1 0 0 51 529
 695 0 531 532 522 0 --.711359228107817 .6731 -.8128 0 -1 0 .0635 0 0 -1 50 530
 512 0 313 522 533 0 +.0506407718921833 -1110223024625156e-31 -.3048 0 0 -1 1 0
 0 14 313 501 534 ?531 488 535 6 530 -0 0 531 488 24 50 533 511 0 488 530 536 0
 +.0506407718921831 .635 -.8128 0 -1 0 0 0 -1 14 488 493 537 ?313 307 487 6 533
 -0 0 313 307 24 50 536 510 0 307 533 538 0 +-.965359228107817 -1110223024625156
e-31 -.8128 1 0 0 0 0 -1 14 307 489 539 ?488 207 37 6 536 -0 0 488 207 24 50 538
 509 0 207 536 540 0 +.0506407718921833 -.635 -.8128 -1092739197465704e-31 1 0 -
1 -1092739197465704e-31 0 14 207 485 541 ?307 477 203 6 538 -0 0 307 477 24 50 5
40 508 0 477 538 542 0 +1.066640771892182 -1110223024625156e-31 -.8128 -1 0 0 0
 0 1 14 477 481 543 ?207 544 474 6 540 -0 0 207 544 24 50 542 314 0 544 540 545
 0 +-.889 0 -.3048 -1 0 0 0 0 1 14 544 297 546 ?477 547 548 6 542 +0 0 477 547 2
4 50 545 313 0 547 542 549 0 +0 -.508 -.3048 0 1 0 0 0 1 14 547 293 550 ?544 551
 552 6 545 -0 0 544 551 24 50 549 312 0 551 545 553 0 +.889 0 -.3048 -1 0 0 0 0
 1 14 551 289 554 ?547 555 556 6 549 -0 0 547 555 24 50 553 311 0 555 549 557 0
 +0 .508 -.3048 0 1 0 0 0 1 14 555 285 558 ?551 559 560 6 553 +0 0 551 559 24 50
 557 3 0 561 553 562 0 +.0506407718921833 0 -.254 0 0 1 1 0 0 14 561 1 563 ?559
 564 565 6 557 -0 0 559 564 24 50 562 108 0 559 557 566 0 +.0506407718921833 0 0
 0 0 1 1 0 0 14 559 68 567 ?555 561 568 6 562 +0 0 555 561 24 50 566 129 0 564 5
62 569 0 +-.965359228107817 -1110223024625156e-31 -.254 1 0 0 0 0 -1 14 564 122
 570 ?561 571 572 6 566 -0 0 561 571 24 50 569 130 0 571 566 573 0 +.05064077189
21834 .635 -.254 0 1 0 0 0 1 14 571 124 574 ?564 526 575 6 569 +0 0 564 526 24 5
0 573 131 0 526 569 528 0 +1.066640771892182 1110223024625156e-31 -.254 1 0 0 0
 0 -1 14 526 126 576 ?571 521 577 6 573 +0 0 571 521 24 50 528 132 0 521 573 578
 0 +.0506407718921833 -.635 -.254 -1092739197465704e-31 1 0 -1 -1092739197465704
e-31 0 51 578 3297 0 579 528 580 0 +1.015840771892182 .5842 -.254 0 0 1 .0508 1
 0 0 14 579 3285 581 ?493 582 583 6 578 +0 0 493 582 24 51 580 3318 0 493 578 58
4 0 +1.015840771892182 .5842 -.8128 0 0 1 .0508 1 0 0 14 493 3306 585 ?480 579 4
91 6 580 +0 0 480 579 24 51 584 3339 0 480 580 586 0 +1.015840771892182 -.5842 -
.8128 0 0 1 .0508 1 0 0 14 480 3327 587 ?588 493 479 6 584 +0 0 588 493 24 51 58
6 3360 0 588 584 589 0 +1.015840771892182 -.5842 -.254 0 0 -1 .0508 -1 0 0 14 58
8 3348 590 ?591 480 592 6 586 +0 0 591 480 24 51 589 3381 0 591 586 593 0 +-.914
559228107817 -.5842 -.254 0 0 1 .0508 1 0 0 14 591 3369 594 ?481 588 595 6 589 +
0 0 481 588 24 51 593 3402 0 481 589 20 0 +-.914559228107817 -.5842 -.8128 0 0 1
 .0508 1 0 0 14 481 3390 596 ?486 591 310 6 593 +0 0 486 591 24 51 20 3423 0 486
 593 7 0 +-.914559228107817 .5842 -.8128 0 0 1 .0508 1 0 0 14 486 3411 597 ?19 4
81 484 6 20 +0 0 19 481 24 81 1 597 3843 509 486 0 0 574 546 598 14 19 3432 599
 ?600 486 601 6 7 +0 0 600 486 24 81 1 599 3855 509 19 0 0 570 602 603 14 600 37
83 604 ?605 19 606 6 607 -0 0 605 19 24 15 601 3433 0 608 19 0 17 608 0 601 609
 610 85 99 258 0 0 -17 609 0 601 111 608 103 87 300 0 0 -17 610 0 601 608 111 97
 255 253 0 0 -17 99 0 611 612 371 97 608 258 0 368 +15 611 6 0 612 561 0 17 612
 0 611 123 99 100 368 366 0 613 -17 371 0 611 99 90 85 614 369 0 608 +17 368 0 5
75 255 102 97 612 366 0 610 +15 575 123 0 615 571 0 17 255 0 575 615 368 109 610
 253 0 380 +17 102 0 575 368 615 100 616 256 0 612 +17 615 0 575 102 255 112 380
 378 0 616 -17 616 0 583 129 613 112 102 256 0 0 -15 583 3286 0 613 579 0 17 129
 0 583 617 616 127 114 251 0 244 -17 613 0 583 616 617 100 123 264 0 0 -17 617 0
 583 613 129 121 244 242 0 0 -17 123 0 611 618 612 121 613 264 0 365 +17 618 0 6
11 96 123 124 365 362 0 619 -17 365 0 577 244 126 121 618 362 0 617 +15 577 125
 0 365 526 0 17 244 0 577 620 365 127 617 242 0 377 +17 126 0 577 365 620 124 62
1 235 0 618 +17 620 0 577 126 244 130 377 375 0 621 -17 621 0 592 120 619 130 12
6 235 0 0 -15 592 3349 0 619 588 0 17 120 0 592 622 621 118 132 249 0 299 -17 61
9 0 592 621 622 124 96 262 0 0 -17 622 0 592 619 120 94 299 297 0 0 -17 96 0 611
 361 618 94 619 262 0 623 +17 361 0 611 90 96 91 623 359 0 624 +17 623 0 527 299
 93 94 361 359 0 622 -15 527 127 0 623 521 0 17 299 0 527 374 623 118 622 297 0
 625 +17 93 0 527 623 374 91 626 295 0 361 +17 374 0 527 93 299 115 625 358 0 62
6 +17 626 0 595 108 624 115 93 295 0 0 -15 595 3370 0 624 591 0 17 108 0 595 627
 626 106 117 247 0 303 -17 624 0 595 626 627 91 90 260 0 0 -17 627 0 595 624 108
 88 303 302 0 0 -17 90 0 611 371 361 88 624 260 0 614 +17 614 0 572 303 87 88 37
1 369 0 627 -15 572 121 0 614 564 0 17 303 0 572 382 614 106 627 302 0 628 +17 8
7 0 572 614 382 85 609 300 0 371 +17 382 0 572 87 303 103 628 363 0 609 +17 628
 0 629 117 105 106 382 363 0 0 -15 629 75 0 377 559 0 17 117 0 629 625 628 115 1
08 247 0 374 +17 105 0 629 628 380 103 111 245 0 382 +17 380 0 629 105 114 109 6
15 378 0 0 +17 111 0 601 610 609 109 105 245 0 255 -17 114 0 629 380 377 112 129
 251 0 615 +17 377 0 629 114 132 127 620 375 0 0 +17 132 0 629 377 625 130 120 2
49 0 620 +17 625 0 629 132 117 118 374 358 0 0 -81 1 604 3833 509 600 0 0 630 57
6 631 14 605 3788 523 ?0 600 632 6 633 +0 0 0 600 24 15 606 3786 0 634 600 635 5
1 607 3798 0 600 633 636 0 --.423805356025696 -6922211566998e-29 .0762 0 0 -1 .0
635 -1 0 0 50 633 3800 0 605 0 607 0 +.0506407718921833 -1110223024625156e-31 .0
762 0 0 1 1 0 0 50 636 2956 0 582 607 637 0 +.812640771892184 -.8001 -.8128 1092
739197465704e-31 -1 0 1 1092739197465704e-31 0 14 582 2944 638 ?579 639 640 6 63
6 +0 0 579 639 24 51 637 2954 0 639 636 641 0 -.812640771892184 -.8001 -.8128 -1
092739197465704e-31 1 0 .0635 -1 -1092739197465704e-31 0 14 639 2939 0 ?582 642
 643 6 637 -0 0 582 642 24 50 641 2769 0 642 637 644 0 +.812640771892184 -.7874
 -.8128 1092739197465704e-31 -1 0 1 1092739197465704e-31 0 14 642 2757 645 ?639
 646 647 6 641 +0 0 639 646 24 51 644 2767 0 646 641 648 0 +.812640771892184 -.7
874 -.8128 1092739197465704e-31 -1 0 .1905 1 1092739197465704e-31 0 14 646 2752
 0 ?642 649 650 6 644 -0 0 642 649 24 50 648 2593 0 651 644 652 0 +.812640771892
184 -.8001 -.8128 1092739197465704e-31 -1 0 1 1092739197465704e-31 0 14 651 2580
 653 ?649 654 655 6 648 +0 0 649 654 24 50 652 2592 0 649 648 656 0 +.8126407718
92184 -.6731 -.8128 1092739197465704e-31 -1 0 1 1092739197465704e-31 0 14 649 25
84 657 ?646 651 658 6 652 -0 0 646 651 24 51 656 2591 0 654 652 659 0 -.81264077
1892184 -.8001 -.8128 -1092739197465704e-31 1 0 .254 -1 -1092739197465704e-31 0
 14 654 2575 660 ?651 661 662 6 656 -0 0 651 661 24 50 659 2421 0 661 656 663 0
 +-.711359228107817 -.8001 -.8128 1092739197465704e-31 -1 0 1 1092739197465704e-
31 0 14 661 2409 630 ?654 664 665 6 659 +0 0 654 664 24 51 663 2419 0 664 659 66
6 0 --.711359228107817 -.8001 -.8128 -1092739197465704e-31 1 0 .0635 -1 -1092739
197465704e-31 0 14 664 2404 0 ?661 667 668 6 663 -0 0 661 667 24 50 666 2246 0 6
67 663 669 0 +-.711359228107817 -.7874 -.8128 1092739197465704e-31 -1 0 1 109273
9197465704e-31 0 14 667 2234 602 ?664 670 671 6 666 +0 0 664 670 24 51 669 2244
 0 670 666 672 0 +-.711359228107817 -.7874 -.8128 1092739197465704e-31 -1 0 .190
5 1 1092739197465704e-31 0 14 670 2229 0 ?667 673 674 6 669 -0 0 667 673 24 50 6
72 2082 0 675 669 676 0 +-.711359228107817 -.8001 -.8128 1092739197465704e-31 -1
 0 1 1092739197465704e-31 0 14 675 2069 677 ?673 678 679 6 672 +0 0 673 678 24 5
0 676 2081 0 673 672 680 0 +-.711359228107817 -.6731 -.8128 1092739197465704e-31
 -1 0 1 1092739197465704e-31 0 14 673 2073 681 ?670 675 682 6 676 -0 0 670 675 2
4 51 680 2080 0 678 676 683 0 --.711359228107817 -.8001 -.8128 -1092739197465704
e-31 1 0 .254 -1 -1092739197465704e-31 0 14 678 2064 684 ?675 685 686 6 680 -0 0
 675 685 24 50 683 1889 0 685 680 687 0 +.0506407718921831 -.5969 -.59055 109273
9197465704e-31 -1 0 1 1092739197465704e-31 0 14 685 1882 688 ?678 231 689 6 683
 -0 0 678 231 24 51 687 1888 0 231 683 690 0 --.711359228107817 -.6731 -.8128 -1
092739197465704e-31 1 0 .0635 -1 -1092739197465706e-31 0 14 231 1873 691 ?685 69
2 224 6 687 -0 0 685 692 24 50 690 1790 0 692 687 693 0 +.0506407718921831 -.596
9 -.59055 1092739197465704e-31 -1 0 1 1092739197465704e-31 0 14 692 1783 694 ?23
1 400 695 6 690 -0 0 231 400 24 51 693 1789 0 400 690 696 0 -.812640771892183 -.
6731 -.8128 -1092739197465704e-31 1 0 .0635 -1 -1092739197465706e-31 0 14 400 17
74 697 ?692 698 396 6 693 -0 0 692 698 24 50 696 1597 0 698 693 699 0 +-.7113592
28107817 .8001 -.8128 0 1 0 -1 0 0 14 698 1585 700 ?400 701 702 6 696 +0 0 400 7
01 24 51 699 1595 0 701 696 703 0 --.711359228107817 .8001 -.8128 0 -1 0 .0635 0
 0 -1 14 701 1580 0 ?698 704 705 6 699 -0 0 698 704 24 50 703 1454 0 704 699 706
 0 +-.711359228107817 .7874 -.8128 0 1 0 -1 0 0 14 704 1442 707 ?701 708 709 6 7
03 +0 0 701 708 24 51 706 1452 0 708 703 710 0 +-.711359228107817 .7874 -.8128 0
 1 0 .1905 0 0 1 14 708 1437 0 ?704 711 712 6 706 -0 0 704 711 24 50 710 1322 0
 713 706 714 0 +-.711359228107817 .8001 -.8128 0 1 0 -1 0 0 14 713 1309 715 ?711
 716 717 6 710 +0 0 711 716 24 50 714 1321 0 711 710 718 0 +-.711359228107817 .6
731 -.8128 0 1 0 -1 0 0 14 711 1313 719 ?708 713 720 6 714 -0 0 708 713 24 51 71
8 1320 0 716 714 721 0 --.711359228107817 .8001 -.8128 0 -1 0 .254 0 0 -1 14 716
 1304 722 ?713 723 724 6 718 -0 0 713 723 24 50 721 1194 0 723 718 725 0 +.81264
0771892183 .8001 -.8128 0 1 0 -1 0 0 14 723 1182 510 ?716 726 727 6 721 +0 0 716
 726 24 51 725 1192 0 726 721 728 0 -.812640771892183 .8001 -.8128 0 -1 0 .0635
 0 0 -1 14 726 1177 0 ?723 729 730 6 725 -0 0 723 729 24 50 728 1063 0 729 725 7
31 0 +.812640771892183 .7874 -.8128 0 1 0 -1 0 0 14 729 1051 732 ?726 733 734 6
 728 +0 0 726 733 24 51 731 1061 0 733 728 735 0 +.812640771892183 .7874 -.8128
 0 1 0 .1905 0 0 1 14 733 1046 0 ?729 736 737 6 731 -0 0 729 736 24 50 735 943 0
 514 731 738 0 +.812640771892183 .8001 -.8128 0 1 0 -1 0 0 14 514 930 739 ?736 5
07 740 6 735 +0 0 736 507 24 50 738 942 0 736 735 516 0 +.812640771892183 .6731
 -.8128 0 1 0 -1 0 0 14 736 934 741 ?733 514 742 6 738 -0 0 733 514 24 51 516 94
1 0 507 738 508 0 -.812640771892183 .8001 -.8128 0 -1 0 .254 0 0 -1 81 1 741 386
2 509 736 0 0 684 0 743 15 742 937 0 453 736 744 17 453 0 742 453 453 0 745 451
 0 0 +15 744 938 0 746 736 0 17 746 0 744 746 746 0 450 442 0 0 -17 450 0 747 45
0 450 0 746 442 0 0 +15 747 929 0 450 507 0 17 745 0 502 745 745 0 453 451 0 0 -
15 502 782 0 745 501 0 80 7 CCCCCDI12 legal_owners0 17 1 lCZ1 509 0 748 8001 0 0
 0 0 3 5 0 0 0 FFFFTFTFFFFFFFFFF2 81 1 684 3861 509 678 0 0 537 741 749 83 255 3
 743 0 0 0 81 1 537 3860 509 488 0 0 554 684 750 83 3 749 0 0 0 81 1 554 3859 50
9 551 0 0 563 537 751 83 3 750 .972549019607843 .529411764705882 .00392156862745
098 81 1 563 3858 509 561 0 0 602 554 752 83 3 751 0 0 0 81 1 602 3857 509 667 0
 0 599 563 753 83 3 752 .980392156862745 .713725490196078 .00392156862745098 83
 3 753 .917647058823529 .917647058823529 .917647058823529 79 255 15 748 SDL/TYSA
_COLOUR81 1 739 3827 509 514 0 0 657 581 754 15 740 1030 0 755 514 756 17 755 0
 740 755 755 0 444 436 0 0 -15 756 933 0 447 514 0 17 447 0 756 447 447 0 757 44
5 0 0 +17 757 0 515 757 757 0 447 445 0 0 -15 515 928 0 757 507 747 17 444 0 758
 444 444 0 755 436 0 0 +15 758 1050 0 444 733 0 81 1 657 3826 509 649 0 0 653 73
9 759 81 1 581 3828 509 579 0 0 739 645 760 83 3 754 0 0 0 81 1 645 3829 509 642
 0 0 581 517 761 83 3 760 0 0 0 81 1 517 3830 509 501 0 0 645 543 762 83 3 761 .
917647058823529 .917647058823529 .917647058823529 81 1 543 3831 509 477 0 0 517
 630 763 83 3 762 0 0 0 81 1 630 3832 509 661 0 0 543 604 764 83 3 763 .97254901
9607843 .529411764705882 .00392156862745098 83 3 764 0 0 0 81 1 653 3825 509 651
 0 0 541 657 765 83 3 759 0 0 0 81 1 541 3824 509 207 0 0 638 653 766 83 3 765 0
 0 0 81 1 638 3823 509 582 0 0 700 541 767 83 3 766 .972549019607843 .5294117647
05882 .00392156862745098 81 1 700 3822 509 698 0 0 567 638 768 83 3 767 0 0 0 81
 1 567 3821 509 559 0 0 594 700 769 83 3 768 0 0 0 81 1 594 3820 509 591 0 0 681
 567 770 83 3 769 .980392156862745 .713725490196078 .00392156862745098 81 1 681
 3819 509 673 0 0 534 594 771 83 3 770 0 0 0 81 1 534 3818 509 313 0 0 590 681 7
72 83 3 771 0 0 0 81 1 590 3817 509 588 0 0 677 534 773 83 3 772 .98039215686274
5 .713725490196078 .00392156862745098 81 1 677 3816 509 675 0 0 707 590 774 83 3
 773 0 0 0 81 1 707 3815 509 704 0 0 775 677 776 83 3 774 0 0 0 81 1 775 3814 50
9 531 0 0 722 707 777 83 3 776 .917647058823529 .917647058823529 .91764705882352
9 14 531 680 775 ?518 313 778 6 529 -0 0 518 313 24 81 1 722 3813 509 716 0 0 52
3 775 779 83 3 777 0 0 0 81 1 523 3812 509 605 0 0 520 722 780 83 3 779 0 0 0 83
 3 780 .498039215686275 .498039215686275 .498039215686275 14 518 689 511 ?501 53
1 781 6 532 -0 0 501 531 24 15 778 683 0 499 531 782 17 499 0 778 467 188 159 39
0 388 0 384 -15 782 684 0 783 531 0 17 783 0 782 783 783 0 464 462 0 0 -17 464 0
 720 464 464 0 783 462 0 0 +15 720 1316 0 464 711 784 15 784 1317 0 785 711 0 17
 785 0 784 785 785 0 432 424 0 0 -17 432 0 786 432 432 0 785 424 0 0 +15 786 130
8 0 432 716 0 17 467 0 778 787 499 192 161 461 0 387 +17 188 0 778 499 787 186 4
90 465 0 390 +17 384 0 29 390 387 159 194 372 0 0 +17 387 0 29 384 191 192 787 3
85 0 0 +17 194 0 781 161 161 192 384 372 0 467 -15 781 692 0 194 518 0 17 161 0
 781 194 194 159 467 461 0 499 -17 191 0 29 387 54 189 483 340 0 787 +17 787 0 7
78 188 467 189 387 385 0 490 -17 490 0 487 483 496 189 188 465 0 0 -81 1 511 381
0 509 518 0 0 506 520 788 50 532 696 0 518 519 529 0 +.0506407718921833 .5969 -.
59055 0 1 0 -1 0 0 51 519 793 0 501 508 532 0 -.812640771892183 .6731 -.8128 0 -
1 0 .0635 0 0 -1 83 3 788 0 0 0 15 737 1049 0 789 733 758 17 789 0 737 789 789 0
 441 439 0 0 -17 441 0 790 441 441 0 789 439 0 0 +15 790 1054 0 441 729 0 81 1 7
32 3847 509 729 0 0 697 558 791 15 734 1159 0 792 729 790 17 792 0 734 792 792 0
 438 430 0 0 -17 438 0 793 438 438 0 792 430 0 0 +15 793 1181 0 438 726 0 81 1 6
97 3846 509 400 0 0 691 732 794 81 1 558 3848 509 555 0 0 732 596 795 83 3 791 .
917647058823529 .917647058823529 .917647058823529 81 1 596 3849 509 481 0 0 558
 587 796 83 3 795 0 0 0 81 1 587 3850 509 480 0 0 596 660 797 83 3 796 0 0 0 81
 1 660 3851 509 654 0 0 587 513 798 83 3 797 0 0 0 81 1 513 3852 509 507 0 0 660
 525 799 83 3 798 0 0 0 81 1 525 3853 509 521 0 0 513 570 800 83 3 799 0 0 0 81
 1 570 3854 509 564 0 0 525 599 801 83 3 800 .980392156862745 .713725490196078 .
00392156862745098 83 3 801 .980392156862745 .713725490196078 .00392156862745098
 81 1 691 3845 509 231 0 0 546 697 802 83 3 794 0 0 0 81 1 546 3844 509 544 0 0
 597 691 803 83 3 802 0 0 0 83 3 803 0 0 0 15 730 1180 0 804 726 793 17 804 0 73
0 804 804 0 435 433 0 0 -17 435 0 727 435 435 0 804 433 0 0 +15 727 1185 0 435 7
23 0 81 1 510 3808 509 723 0 0 0 506 805 83 3 805 0 0 0 15 724 1307 0 806 716 78
6 17 806 0 724 806 806 0 429 427 0 0 -17 429 0 807 429 429 0 806 427 0 0 +15 807
 1312 0 429 713 0 81 1 719 3836 509 711 0 0 688 539 808 81 1 688 3835 509 685 0
 0 576 719 809 81 1 539 3837 509 307 0 0 719 585 810 83 3 808 0 0 0 81 1 585 383
8 509 493 0 0 539 715 811 83 3 810 .972549019607843 .529411764705882 .0039215686
2745098 81 1 715 3839 509 713 0 0 585 694 812 83 3 811 0 0 0 81 1 694 3840 509 6
92 0 0 715 550 813 83 3 812 0 0 0 81 1 550 3841 509 547 0 0 694 574 814 83 3 813
 0 0 0 81 1 574 3842 509 571 0 0 550 597 815 83 3 814 0 0 0 83 3 815 .9803921568
62745 .713725490196078 .00392156862745098 81 1 576 3834 509 526 0 0 604 688 816
 83 3 809 0 0 0 83 3 816 .980392156862745 .713725490196078 .00392156862745098 15
 717 1421 0 817 713 807 17 817 0 717 817 817 0 426 419 0 0 -17 426 0 818 426 426
 0 817 419 0 0 +15 818 1441 0 426 708 0 15 712 1440 0 819 708 818 17 819 0 712 8
19 819 0 423 421 0 0 -17 423 0 820 423 423 0 819 421 0 0 +15 820 1445 0 423 704
 0 15 709 1562 0 821 704 820 17 821 0 709 821 821 0 411 409 0 0 -17 411 0 822 41
1 411 0 821 409 0 0 +15 822 1584 0 411 701 0 15 705 1583 0 823 701 822 17 823 0
 705 823 823 0 418 412 0 0 -17 418 0 702 418 418 0 823 412 0 0 +15 702 1588 0 41
8 698 0 15 695 1786 0 408 692 0 17 408 0 695 405 405 145 144 233 0 402 -17 405 0
 695 408 408 142 402 227 0 0 -17 402 0 396 398 397 145 405 227 0 0 +16 227 1744
 0 ?402 414 220 417 0 0 1 16 414 1759 0 ?824 406 227 825 0 0 1 31 417 1794 0 227
 825 415 0 +.812640771892183 -.5969 -.8128 1092739197465704e-31 -1 0 1 109273919
7465704e-31 0 .0635 31 825 1795 0 414 229 417 0 +.812640771892183 -.6731 -.8128
 1092739197465704e-31 -1 0 1 1092739197465704e-31 0 .0635 30 229 1891 0 220 826
 825 0 --.774859228107817 -.6731 -.8128 -1092739197465704e-31 1 0 30 826 1892 0
 228 827 229 0 +-.647859228107817 -.6731 -.8128 -1092739197465704e-31 1 0 16 228
 1849 0 ?138 220 828 826 0 0 1 31 827 1893 0 829 830 826 0 +-.711359228107817 -.
5969 -.8128 1092739197465704e-31 -1 0 1 1092739197465704e-31 0 .0635 16 829 1843
 0 ?225 828 831 827 0 0 1 31 830 1894 0 828 832 827 0 +-.711359228107817 -.6731
 -.8128 1092739197465704e-31 -1 0 1 1092739197465704e-31 0 .0635 16 828 1858 0 ?
833 228 829 830 0 0 1 31 832 2083 0 834 835 830 0 +-.711359228107817 -.6731 -.81
28 1092739197465704e-31 -1 0 1 1092739197465704e-31 0 .254 16 834 2051 0 ?836 83
1 837 832 0 0 1 31 835 2084 0 831 838 832 0 +-.711359228107817 -.8001 -.8128 109
2739197465704e-31 -1 0 1 1092739197465704e-31 0 .254 16 831 2054 0 ?839 829 834
 835 0 0 1 31 838 2247 0 840 841 835 0 +-.711359228107817 -.8001 -.8128 10927391
97465704e-31 -1 0 1 1092739197465704e-31 0 .1905 16 840 2224 0 ?842 837 843 838
 0 0 1 31 841 2248 0 837 844 838 0 +-.711359228107817 -.7874 -.8128 109273919746
5704e-31 -1 0 1 1092739197465704e-31 0 .1905 16 837 2221 0 ?845 834 840 841 0 0
 1 31 844 2422 0 846 847 841 0 +-.711359228107817 -.7874 -.8128 1092739197465704
e-31 -1 0 1 1092739197465704e-31 0 .0635 16 846 2396 0 ?848 843 849 844 0 0 1 31
 847 2423 0 843 850 844 0 +-.711359228107817 -.8001 -.8128 1092739197465704e-31
 -1 0 1 1092739197465704e-31 0 .0635 16 843 2401 0 ?851 840 846 847 0 0 1 31 850
 2594 0 852 853 847 0 +.812640771892184 -.6731 -.8128 1092739197465704e-31 -1 0
 1 1092739197465704e-31 0 .254 16 852 2562 0 ?854 849 855 850 0 0 1 31 853 2595
 0 849 856 850 0 +.812640771892184 -.8001 -.8128 1092739197465704e-31 -1 0 1 109
2739197465704e-31 0 .254 16 849 2565 0 ?857 846 852 853 0 0 1 31 856 2770 0 858
 859 853 0 +.812640771892184 -.8001 -.8128 1092739197465704e-31 -1 0 1 109273919
7465704e-31 0 .1905 16 858 2747 0 ?860 855 861 856 0 0 1 31 859 2771 0 855 862 8
56 0 +.812640771892184 -.7874 -.8128 1092739197465704e-31 -1 0 1 109273919746570
4e-31 0 .1905 16 855 2744 0 ?863 852 858 859 0 0 1 31 862 2957 0 864 865 859 0 +
.812640771892184 -.7874 -.8128 1092739197465704e-31 -1 0 1 1092739197465704e-31
 0 .0635 16 864 2931 0 ?866 861 867 862 0 0 1 31 865 2958 0 861 26 862 0 +.81264
0771892184 -.8001 -.8128 1092739197465704e-31 -1 0 1 1092739197465704e-31 0 .063
5 16 861 2936 0 ?868 858 864 865 0 0 1 31 26 3801 0 11 869 865 0 +-.423805356025
696 -6922211566998e-29 0 0 0 1 1 0 0 .0635 31 869 3802 0 867 0 26 0 +-.423805356
025696 -6922211566998e-29 .0762 0 0 1 1 0 0 .0635 16 867 3780 0 ?870 864 0 869 0
 0 1 17 870 0 632 870 870 0 634 867 0 0 +15 632 3791 0 870 605 0 17 634 0 606 63
4 634 0 870 867 0 0 -17 868 0 640 868 868 0 871 861 0 0 +15 640 2947 0 868 582 0
 17 871 0 643 871 871 0 868 861 0 0 -15 643 2942 0 871 639 872 15 872 2943 0 866
 639 0 17 866 0 872 866 866 0 873 864 0 0 +17 873 0 647 873 873 0 866 864 0 0 -1
5 647 2921 0 873 642 874 15 874 2760 0 863 642 0 17 863 0 874 863 863 0 875 855
 0 0 +17 875 0 650 875 875 0 863 855 0 0 -15 650 2755 0 875 646 876 15 876 2756
 0 860 646 0 17 860 0 876 860 860 0 877 858 0 0 +17 877 0 655 877 877 0 860 858
 0 0 -15 655 2736 0 877 651 878 15 878 2583 0 857 651 0 17 857 0 878 857 857 0 8
79 849 0 0 +17 879 0 662 879 879 0 857 849 0 0 -15 662 2578 0 879 654 880 15 880
 2579 0 854 654 0 17 854 0 880 854 854 0 881 852 0 0 +17 881 0 882 881 881 0 854
 852 0 0 -15 882 2588 0 881 649 0 17 851 0 665 851 851 0 883 843 0 0 +15 665 241
2 0 851 661 0 17 883 0 668 883 883 0 851 843 0 0 -15 668 2407 0 883 664 884 15 8
84 2408 0 848 664 0 17 848 0 884 848 848 0 885 846 0 0 +17 885 0 671 885 885 0 8
48 846 0 0 -15 671 2386 0 885 667 886 15 886 2237 0 845 667 0 17 845 0 886 845 8
45 0 887 837 0 0 +17 887 0 674 887 887 0 845 837 0 0 -15 674 2232 0 887 670 888
 15 888 2233 0 842 670 0 17 842 0 888 842 842 0 889 840 0 0 +17 889 0 679 889 88
9 0 842 840 0 0 -15 679 2213 0 889 675 890 15 890 2072 0 839 675 0 17 839 0 890
 839 839 0 891 831 0 0 +17 891 0 686 891 891 0 839 831 0 0 -15 686 2067 0 891 67
8 892 15 892 2068 0 836 678 0 17 836 0 892 836 836 0 893 834 0 0 +17 893 0 894 8
93 893 0 836 834 0 0 -15 894 2077 0 893 673 0 17 833 0 682 833 833 0 895 828 0 0
 +15 682 2076 0 833 673 894 17 895 0 232 895 895 0 833 828 0 0 -15 232 1877 0 89
5 231 0 17 225 0 224 230 219 136 226 829 0 0 +17 226 0 689 222 222 133 225 829 0
 0 -15 689 1885 0 222 685 0 17 222 0 689 226 226 136 135 223 0 225 -17 138 0 29
 135 210 136 230 228 0 222 +17 824 0 658 824 824 0 896 414 0 0 +15 658 2587 0 82
4 649 882 17 896 0 401 896 896 0 824 414 0 0 -15 401 1778 0 896 400 0 15 635 378
7 0 25 600 0 17 25 0 635 25 25 0 897 11 0 0 +17 897 0 568 897 897 0 25 11 0 0 -1
5 568 3767 0 897 559 629 83 3 631 .498039215686275 .498039215686275 .49803921568
6275 83 3 603 0 0 0 83 3 598 0 0 0 15 565 199 0 170 561 611 17 170 0 565 164 174
 168 342 339 0 357 -17 164 0 565 167 170 162 898 337 0 348 +17 174 0 565 170 167
 172 345 343 0 342 -17 342 0 556 899 357 172 170 339 0 354 +17 357 0 556 342 900
 168 901 355 0 898 +15 556 292 0 342 551 0 17 900 0 556 357 899 175 182 328 0 0
 -17 901 0 560 327 898 175 357 355 0 900 -17 898 0 560 901 348 168 164 337 0 0 -
15 560 288 0 898 555 0 17 348 0 560 898 327 162 902 336 0 903 +17 327 0 560 348
 901 183 179 325 0 0 +17 902 0 548 335 903 183 348 336 0 327 -17 903 0 548 902 3
51 162 167 329 0 0 -15 548 300 0 903 544 0 17 351 0 548 903 335 165 904 349 0 34
5 +17 167 0 565 174 164 165 903 329 0 351 +17 335 0 548 351 902 171 185 333 0 0
 +17 904 0 552 905 345 171 351 349 0 335 -17 345 0 552 904 354 165 174 343 0 0 +
15 552 296 0 345 547 0 17 354 0 552 345 905 172 899 352 0 0 +17 905 0 552 354 90
4 180 177 331 0 0 -17 899 0 556 900 342 180 354 352 0 905 -17 177 0 535 185 182
 171 905 331 0 904 +15 535 504 0 179 313 311 17 185 0 535 179 177 183 335 333 0
 902 -17 182 0 535 177 179 180 900 328 0 899 +17 179 0 535 182 185 175 327 325 0
 901 -83 3 524 .980392156862745 .713725490196078 .00392156862745098 83 3 512 0 0
 0 17 158 0 487 496 197 156 393 391 0 495 -17 31 0 29 27 78 73 476 216 0 32 +17
 476 0 474 270 75 76 31 216 0 478 -17 30 0 29 147 27 148 34 218 0 399 +17 147 0
 29 144 30 145 398 406 0 408 +19 18 138 0 1 0 10 6 0 S0 74 4 CI16 index_map_offs
et0 0 1 dCCZ20 16 4 0 0 741 906 14 2 0 0 0 0 0 0 0 0 0 0 0 0 0 0 0 0 81 1 906 38
56 907 1 0 14 0 0 908 81 1 14 3863 909 1 906 2 0 0 910 80 1 909 13 911 8038 0 0
 0 0 0 0 0 0 0 TTTTTTTTTTTTTFTFT10 98 255 6 910 80 97 114 116 32 49 79 14 911 SD
L/TYSA_UNAME80 1 907 509 912 8040 0 0 0 0 3 5 0 0 0 TTTFFFFFFFFFFFFFF2 83 3 908
 .615686274509804 .811764705882353 .929411764705882 79 17 912 SDL/TYSA_COLOUR_28
0 1 13 913 914 8017 0 0 0 0 0 0 0 0 0 TTTTTTTTTTTTTFTFT3 84 255 6 15 Part 179 13
 914 SDL/TYSA_NAME1 0 
